/* XPM */
static char *appstart_xpm[] = {
/* columns rows colors chars-per-pixel */
"16 16 134 2",
"   c Black",
"O. c #EAFFC8",
"r  c #D547D5",
"a  c #FF9B9F",
"~  c #FFF3C9",
"V  c #FFC1AC",
"d. c #9091D5",
"5. c #D5FFCC",
"I  c #FFADF2",
"f. c #763BB1",
"0. c #EEF9FF",
"M  c #FFE7B6",
"p. c #BFCFD5",
"6  c #FFAC78",
"X  c #FFB28E",
"9. c #EAFFF8",
"m  c #FFAAFF",
"'  c #F7FFC5",
"-. c #8E8ED5",
"<  c #FF639A",
"&. c #FAF2FF",
"@. c #F9FFE7",
"}  c #FFF0F4",
"|  c #FFF0FB",
"7  c #FFA37D",
"h  c #FF55FF",
"/  c #FFE7E1",
" . c #FEB7FE",
"i  c #FFA691",
"D  c #BB77B7",
")  c #FFEAF5",
"P  c #FFB2BC",
";. c #E2FFCE",
"(  c #FFE7EC",
"%  c #FF89C0",
"e  c #FF5AAA",
"S  c #FFA9B4",
"k  c #FFC694",
"n  c #FFA6AE",
"T  c #FFF8C3",
"p  c #FF9D97",
"t. c #9ED5A3",
"<. c #F5FFF8",
"$. c #FEF7FD",
"1. c #F7F9FF",
"d  c #FFA0AC",
"+. c #F1FFDA",
"s  c #FF9DA8",
"F  c #FFEFBE",
"l  c #FFBD9A",
"9  c #FF918B",
"[  c #FFF8E1",
"0  c #FF9196",
"s. c #96CAD5",
"X. c #8E47D5",
"G  c #FFE3AB",
"2. c #F5F3FF",
"E  c #FFE6C0",
"{  c #FFF2EC",
"o. c #EBFFCF",
"C  c #FFB4AE",
"o  c #FFAB91",
"-  c #FF9F6B",
"r. c #CBEACA",
"w  c #FF62A7",
"H  c #FFDAB3",
"*. c #FBAFFF",
"t  c #FFD4A7",
",. c #EBFFE7",
"$  c #FF8BBB",
"x  c #FFA8A2",
"4. c #F9AFFF",
"5  c #FFCB9B",
"#. c #FEFCF6",
"A  c #FFABB5",
"&  c #FF88C3",
"q. c #EFF3FF",
"y. c #A7D5B4",
".  c #FFCEAD",
"!  c #FFFABF",
",  c #FF6A6E",
"J  c #FFCEBA",
"=  c #FFC294",
"i. c #BAD5CF",
"7. c #D2FFD6",
"+  c #FF9692",
"]  c #FDFDD2",
"R  c #FFEEB6",
"y  c #FFB988",
"_  c #FFB4FB",
":  c #FF8A72",
"a. c #9DCAD5",
">. c #E3FFD9",
"q  c #FF96A1",
"`  c #F4FFCD",
"@  c #FF9093",
"%. c #FCF3FF",
"Y  c #DA8FDA",
"#  c #FF8D94",
"K  c #FFBFBA",
"*  c #E17EB0",
"3. c #F5F2FF",
"u  c #FFB08E",
"w. c #B7F1FF",
"^  c #FFEBD6",
"z  c #FFB39F",
"4  c #D5478E",
"j  c #FFDCAF",
"N  c #FFD6A0",
":. c #DDFFC8",
"6. c #CAFFC5",
"Q  c #FCFEC9",
"L  c #FFB6BB",
"8. c #DFFFE7",
"1  c #FF5EA3",
">  c #FF756F",
"W  c #BB78BC",
"Z  c #FFADB2",
"g  c #FFAAAA",
".. c #B97BBC",
"e. c #AFAEFF",
"=. c #AAAAFF",
"O  c #FFA193",
"2  c #FF58A8",
";  c #FF9570",
"u. c #AED5C1",
"c  c #FFA4A8",
"B  c #FFCAA8",
"8  c #FF9883",
"f  c #FFA4AC",
"v  c #FFA4AE",
"3  c #FF55AA",
"U  c #150019",
"b  c #FFA4B0",
/* pixels */
"                                ",
"  . X o O + @ # $ % & & & & *   ",
"  = - ; : > , < 1 2 3 3 3 3 4   ",
"  5 6 7 8 9 0 q w e 3 3 3 3 r   ",
"  t y u i p a s d f g 3 3 h r   ",
"  j k l z x c v b n g m h h r   ",
"  M N B V C Z A S D m m m h r   ",
"  F G H J K L P I U Y m m h r   ",
"  T R E U U U U U U U W m m r   ",
"  Q ! ~ ^ / ( ) _ U W m m m r   ",
"  ` ' ] [ { } |  ...m m m m X.  ",
"  o.O.+.@.#.$.%.&.*.m m =.=.-.  ",
"  ;.:.>.,.<.1.2.3.4.m =.=.=.-.  ",
"  5.6.7.8.9.0.q.w.e.=.=.=.=.X.  ",
"  r.t.y.u.i.p.a.s.d.-.-.-.-.f.  ",
"                                "
};
