/* XPM */
static char *assets_xpm[] = {
/* columns rows colors chars-per-pixel */
"16 16 40 1",
". c Black",
"$ c #F7F7F7",
"s c #212E39",
"t c #9B9D9E",
"O c #12191F",
"4 c #0D1217",
"# c #FFFFFF",
"w c #151D24",
"p c #9E9E9F",
"i c #0B0F13",
"@ c #F8F8F8",
"1 c #5B5B5B",
"< c #090C10",
"9 c #FBFCFC",
"- c #363636",
"a c #161E26",
"  c None",
"2 c #989898",
"% c #5F6060",
"e c #555555",
"+ c #A0A0A0",
"> c #9C9D9E",
"0 c #EFF0F2",
"r c #FCFCFD",
"; c #5A5B5B",
"5 c #5A5B5C",
"y c #1C2832",
"& c #0D1318",
"6 c #080C0F",
", c #1A252E",
": c #979898",
"7 c #090D11",
"X c #4B6983",
"3 c #909193",
"= c #070A0C",
"8 c #FEFEFE",
"* c #1E2A34",
"u c #19232B",
"q c #0F151A",
"o c #0F151B",
/* pixels */
"                ",
" .............  ",
"   . . . . . .  ",
"  ............  ",
"  XoO+@#$%&*XX  ",
"  X=+##-;:>,XX  ",
"  X<@#1-2234XX  ",
"  X.###-;;56XX  ",
"  X7@##-890qXX  ",
"  Xw+#1e;rtyXX  ",
"  Xui+@#$pasXX  ",
" .............  ",
" . . . . . . .  ",
" .............  ",
"                ",
"                "
};
