/* XPM */
static const char *billsdeposits_xpm[] = {
/* columns rows colors const chars-per-pixel */
"16 16 198 2",
"r  c #C4B3BF",
"b  c #EEC4AE",
"_. c #E8E8E8",
";  c #F3C8B0",
"!. c #EFE0DA",
"*. c #BBBECF",
"S  c #6D75B6",
"'  c #D7E5F4",
"T  c #EBF5FC",
"i. c #D4C9BD",
"6. c #D0E7F7",
" . c #E296A6",
"z. c #CDD7E6",
"*  c #EEBEA9",
"Y  c #8E97C9",
" X c #AC5C3D",
"l. c #EBA886",
"I. c #C3C3C3",
"d  c #F9DFD0",
"=X c #D2D2D2",
"OX c #E1E1E1",
">  c #D1B9B8",
"*X c #F0F0F0",
"2  c #D0977F",
";. c #DFEDF8",
"8. c #CEE7F7",
"/  c #F1BFA3",
"). c #ADADAD",
"~. c #F4CFBE",
"W. c #EDD4CB",
"H  c #DADADA",
"a. c #C7E3F5",
"D  c #D5DCEF",
"p. c #C7E3F6",
"%. c #C4D6EC",
"N. c #675D59",
"4  c #F8F8F8",
"m  c #F7D6C3",
"f  c #D5D6E3",
"6  c #E68F68",
"(. c #6A6A6A",
"S. c #E7AB90",
">. c #F7D6C4",
"I  c #ECF6FC",
"X  c #E49B7C",
"4. c #D1E8F7",
"g. c #797979",
"-  c #ECAC8C",
"B. c #979797",
"#. c #DBEDF9",
"b. c #CAB2C7",
"-X c #D3D3D3",
"$  c #E1C6BB",
"H. c #C999B0",
"{. c #DE724A",
"{  c #5D67AF",
"t. c #CAE4F6",
"XX c #727272",
"U  c #535CA9",
"&X c #BDBDBD",
"J  c #EDB698",
"+  c #E79670",
"Z. c #F5D0C2",
"   c None",
"t  c #EAA380",
"w. c #EAA381",
"@. c #DDD5E2",
"B  c #D1D6EA",
"!  c #E4C7BF",
"3. c #D2E9F7",
"f. c #AD8671",
"T. c #EAA38A",
"G. c #C5C8C7",
"Q  c #E3ECF7",
"P  c #D9E1EF",
"c. c #C1E0F5",
"Q. c #E5DAD7",
"m. c #F2F5F7",
"h. c #D4D4D4",
"V. c #E3E3E3",
"%  c #F2F2F2",
"1. c #DE7284",
"~  c #737373",
"z  c #CCBDC6",
"5. c #E2B590",
"1  c #E89A75",
":  c #F6D1BC",
"<. c #EAD5CE",
"q. c #F9E1D2",
"L  c #F9E1D3",
".. c #EAD2CA",
"}. c #DA6336",
"5  c #F1CAB9",
"C. c #E6E4E3",
"#  c #DFA58C",
"u. c #D0D4D4",
"Z  c #F3F9FD",
"=. c #D8EBF8",
"y  c #B6988B",
"+X c #E4E4E4",
"g  c #FDFEFF",
"%X c #929292",
"n  c #ECAB8A",
"@  c #E49471",
"N  c #F6FAFE",
".  c #F5DBCF",
"J. c #F1F3F6",
"i  c #FBFBFB",
"/. c #825E4F",
")  c #E4D5D3",
"r. c #CAE3F5",
"7. c #CFE7F7",
"(  c #F2C2A8",
"9  c #D3CFD8",
"V  c #F4FAFD",
"<  c #E8B49C",
"O. c #F5CCB5",
"8  c #F8DCCB",
"0  c #D6DCEC",
"k. c #EAA587",
"`  c #E3F1FA",
"]  c #515BA9",
",. c #EDAF8F",
"9. c #E8F2FA",
"c  c #B1B1B1",
"W  c #C5D0E8",
"j. c #EFE4DE",
"A. c #DF754A",
"o. c #CFCFCF",
"u  c #DEDEDE",
"=  c #E28258",
"v  c #EDEDED",
"&  c #FCFCFC",
"&. c #BE7F61",
"h  c #F8D6DB",
"e. c #E7C4B5",
"a  c #E89973",
"$. c #DAEDF9",
"w  c #E5A1B0",
"n. c #BFDFF4",
"@X c #B9B9B9",
"d. c #F7ECE7",
"K. c #EEB699",
".X c #6B554C",
"'. c #E6E6E6",
"U. c #F5F5F5",
"_  c #E4F2FB",
"y. c #C9E4F6",
"$X c #767676",
"q  c #F1CFD7",
"2. c #D3E9F7",
"F. c #B8DBF4",
"L. c #846658",
"K  c #F1BDA1",
"7  c #F1BDA2",
"]. c #C1C1C1",
"A  c #DAE1F0",
"x. c #C2E0F5",
"O  c #E6936D",
"^. c #E6936E",
"l  c #E9EDF7",
"o  c #E3835A",
"`. c #FDFDFD",
"e  c #D0D6EB",
"E  c #5F68AF",
"M. c #E5B59D",
"}  c #BFCDE7",
"oX c #ABABAB",
"x  c #D89473",
"k  c #FBFDFF",
":. c #F0D3C6",
",  c #D2B5B2",
"P. c #777777",
"G  c #868686",
"|  c #E1CAD7",
"j  c #F3AEB7",
"M  c #E7E1E4",
"D. c #CFE3F5",
"C  c #F4F9FD",
"F  c #E8B39A",
"[. c #CA9581",
"p  c #FBF1ED",
"^  c #D1D1D1",
"3  c #E0E0E0",
"Y. c #D6D5D5",
"+. c #F1E3DB",
"s. c #CDE6F6",
"[  c #95A1CE",
"X. c #707070",
"R  c #DEE9F5",
"|. c #DC6A3D",
"R. c #DC6A3E",
"0. c #F0BEA3",
"#X c #8E8E8E",
"-. c #D7EBF8",
"s  c #F0BB9F",
"E. c #E59777",
"v. c #D8B79A",
/* pixels */
"      . X o O + @ # $ % &       ",
"    * = - ; : > , < 1 2 3 4     ",
"  5 6 7 8 9 0 q w e r t y u i   ",
"p a s d f g g h j k l z x c v   ",
"b n m M N B V C Z A S D F G H   ",
"J K L P I U Y T R E W Q ! ~ ^   ",
"/ ( ) _ ` ' ] [ { } |  ...X.o.  ",
"O.K +.@.#.$.%.&.*.=.-.;.:.X.o.  ",
">.,.<.1.2.3.4.5.6.7.8.9.0.X.o.  ",
"q.w.e.r.t.y.u.i.p.a.s.d.f.g.h.  ",
"j.k.l.z.x.c.v.b.n.x.m.M.N.B.V.  ",
"C.Z.A.S.D.F.G.H.y.J.K.L.P.I.U.  ",
"% Y.T.R.E.W.Q.!.~.^./.(.)._.    ",
"`.'.].[.{.}.|.R. X.XXXoXOXi     ",
"  i +X@X#X$XX.X.P.%X&X'.i       ",
"    & *Xu =Xo.o.-X3 % `.        "
};
