/* XPM */
static const char *bookmark_xpm[] = {
/* columns rows colors const chars-per-pixel */
"16 16 27 1",
". c Black",
"> c #F0DB91",
"# c #E1BD6A",
"* c #FFFFFF",
"< c #F3E2A7",
"8 c #835D06",
"5 c #906607",
"  c None",
"X c #D1940C",
"7 c #E4C05A",
"- c #F3E4B3",
"6 c #9E7008",
"= c #E4E4E4",
"o c #DAA93C",
"1 c #C4B78A",
"@ c #DDB04D",
": c #D6CA9F",
"% c #BD953A",
"& c #E5E5E5",
"4 c #BE870A",
"3 c #D0AF52",
"+ c #AD7B09",
"O c #333333",
"; c #F1E0A6",
"$ c #ECD693",
", c #F4E4AE",
"2 c #161616",
/* pixels */
"                ",
"                ",
"                ",
"     ..      .. ",
"     .X.    .X. ",
"     .oo..O.+@. ",
"   ...#$%X@X%#. ",
"..&*=.-;:>,<1<2 ",
"   ...345++467. ",
"     .46....8+. ",
"     .6.    .5. ",
"     ..      .. ",
"                ",
"                ",
"                ",
"                "
};
