/* XPM */
static const char *budgeting_xpm[] = {
/* columns rows colors const chars-per-pixel */
"16 16 29 1",
". c Black",
"3 c #E3CFA1",
"= c #D4BA81",
"o c #A5A5A5",
"9 c #B4B4B4",
"6 c #F5EBD3",
": c #FFFFFF",
"% c #ADADAD",
"0 c #020202",
"@ c #CCCCCC",
"  c None",
"O c #B6B6B6",
"< c #F2F2F2",
"> c #FAF4E7",
"& c #D6BE85",
"7 c #E5D0A2",
"$ c #B1B1B1",
", c #DEC694",
"5 c #C8C8C8",
"X c #D7D7D7",
"# c #B2B2B2",
"* c #D0B579",
"+ c #C9C9C9",
"4 c #C4A766",
"8 c #D3B97E",
"; c #959595",
"1 c #D1D1D1",
"2 c #EAD9B2",
"- c #ACACAC",
/* pixels */
"                ",
" .............. ",
" .XXXoXXXXOXX+. ",
" .X@@#@@@@#@@$. ",
" .X@@#@@@@#@@%. ",
" .&**=****=--;. ",
" .:>>,>>>>,<<@. ",
" .:>>,>>>>,<<1. ",
" .:>>,>>>>,<<1. ",
" .23343333455%. ",
" .:>>,>>>>,<<@. ",
" .:>>,>>>>,<<@. ",
" .:>>,>>>>,<<@. ",
" .677,77778++9. ",
" .............0 ",
"                "
};
