/* XPM */
static char *calendar_xpm[] = {
/* columns rows colors chars-per-pixel */
"16 16 145 2",
"y. c #EDF2F8",
"S  c #F2F6FA",
"%. c #F2F6FB",
"n. c #4277BB",
"b  c #94B7E7",
"s  c #FF7D3B",
"v. c #5687C7",
"d. c #C8D6EA",
",  c #9EBFEC",
"~  c #95D28E",
"d  c #6A97D1",
"0  c #6F9BD4",
"%  c #88AFE2",
"w. c #F0F3F9",
"&. c #F0F3FA",
"m  c #FFFFFF",
"]  c #7AB575",
"<. c #B5CDEA",
"J  c #B0C9E9",
"W  c #B0C9EA",
"6. c #EEF3F9",
"1  c #FFA364",
"b. c #5284C3",
"2  c #FFA060",
"!  c #73B16F",
"o. c #C9D7EA",
"O  c #9ABCEB",
"X  c #9FC0ED",
"k  c #FF9D5C",
"H  c #AEC9E9",
"E  c #AEC9EA",
"5. c #7AA4D9",
"l  c #FF9A5A",
"&  c #84ACE0",
"3. c #F1F4FA",
"#. c #9BD494",
"c  c #FF9452",
"-. c #5F8DC8",
"2. c #DBE4F1",
".  c #A2C1EF",
"D  c #ACC6E9",
"k. c #6E99D3",
"u. c #EAF0F7",
"   c None",
"7  c #FF8B47",
"=  c #7DA5DC",
"9. c #C0D3EB",
"T  c #8CB1E3",
" . c #74B26F",
"q  c #9BBDEB",
"e  c #FFBD79",
"h. c #5D8AC5",
"N  c #AAC6E9",
"*  c #80A9DD",
"g. c #F2F5FA",
"9  c #FF7F3D",
"c. c #5B8AC9",
"q. c #CDD9EC",
"p  c #FFAB5A",
"f. c #DCE5F2",
"`  c #B2CBEA",
"G  c #ADC7E9",
"i. c #E6EDF6",
"0. c #ADC7EA",
"C  c #EBF1F7",
"O. c #5486C4",
"|  c #75B370",
"Y  c #598AC8",
"x. c #5E8ECB",
"z. c #6392CE",
"l. c #6896D1",
"n  c #A6C3E9",
"j. c #729ED6",
"I  c #B5CCE8",
"V  c #B0C8E8",
":. c #BAD0EB",
"L  c #6EAF6A",
"g  c #FFA262",
"j  c #FF9F5F",
"{  c #78B473",
"s. c #D8E2F0",
"=. c #DDE6F2",
"X. c #AEC8E8",
"p. c #E2EAF4",
"'  c #B3CCEA",
"M  c #A9C4E8",
"R  c #F1F6FA",
"4  c #FF9958",
"-  c #7AA3DA",
",. c #BDD1EB",
"5  c #FF9654",
"K  c #71B06C",
"@  c #93B7E7",
"Z  c #5F8FCB",
"v  c #6493CE",
"r. c #5F8CC6",
"6  c #FF904D",
"@. c #EFF3F9",
":  c #F4F7FB",
"[  c #79B574",
"U  c #DEE7F2",
"a. c #DEE7F3",
"t  c #FFB971",
"8  c #FF8442",
"7. c #BED2EB",
"P  c #6DAD68",
"u  c #FFB368",
"A  c #8FB4E5",
".. c #72B16E",
"i  c #FFB061",
">  c #74A0D7",
";. c #7EA8DD",
"}  c #B7CEEA",
"a  c #FFA754",
"_  c #F0F4FA",
"*. c #CBD8EB",
";  c #A1C1EE",
"w  c #FFA464",
"<  c #FFA465",
"8. c #BFD3EB",
"$. c #BACFEA",
"h  c #FFA161",
"#  c #90B5E6",
"3  c #FF9E5D",
"4. c #5C8AC6",
"t. c #75A1D7",
"Q  c #B3CBE9",
"z  c #FF9857",
"x  c #FF9554",
"(  c #5586C6",
"f  c #98BAE9",
"1. c #CCD9EB",
"o  c #9DBEEB",
"/  c #DBE5F1",
"B  c #ACC7E8",
"F  c #ACC7EA",
">. c #BBD0EB",
"+. c #82AADF",
")  c #87AEE1",
"^  c #6FAF6B",
"e. c #EFF2F9",
"$  c #8CB2E4",
"+  c #96BAE9",
"r  c #FFBB75",
"y  c #FFB86D",
/* pixels */
"                                ",
"    . X o O + @ # $ % & * = -   ",
"  ; : : : : : : : : : : : : >   ",
"  , : < 1 2 3 4 5 6 7 8 9 : 0   ",
"  q : w e r t y u i p a s : d   ",
"  f : < 1 g h j k l z x c : v   ",
"  b : n m M m N m B m V m C Z   ",
"  A S N D F G H J K L P I U Y   ",
"  T R E m W m Q m ! ~ ^ m / (   ",
"  ) _ ` ' ] [ { } |  ...X.o.O.  ",
"  +.@.} m ] #.[ m $.%.&.*.=.-.  ",
"  ;.@.:.>.] ] ] ,.<._ 1.2.3.4.  ",
"  5.6.7.m 8.m 9.m 0.q.2.w.e.r.  ",
"  t.y.u.i.p.a.2.s.d.f.3.w.g.h.  ",
"  j.k.l.z.x.c.v.b.b.b.b.b.b.n.  ",
"                                "
};
