/* XPM */
static char *categories_xpm[] = {
/* columns rows colors chars-per-pixel */
"16 16 44 1",
"y c #F2F3F3",
": c #F7F7F7",
"% c #FAFBFA",
"X c #FFFFFF",
"a c #E9E9E9",
"= c #F8F8F8",
"O c #204A87",
"q c #F6F5F5",
"0 c #F6F5F6",
"f c #E5E6E5",
"  c None",
"5 c #EAEAEA",
"& c #F9F9F9",
"< c #F2F2F2",
"u c #F2F2F3",
"; c #F5F6F6",
"t c #F0EFEF",
"7 c #EEEFEE",
", c #F3F3F3",
"# c #3465A4",
"$ c #FBFBFB",
"r c #EFF0EF",
"h c #EFF0F0",
"9 c #E5E5E5",
"8 c #E5E5E6",
"s c #EAE9E9",
"d c #EAE9EA",
"@ c #FCFCFB",
"w c #F5F5F5",
"4 c #EBEAEA",
"6 c #F8F9F8",
"g c #EEEEED",
"1 c #EEEEEE",
"+ c #FDFDFD",
"e c #F3F2F2",
"i c #F3F2F3",
". c #BABDB6",
"* c #E2E3E0",
"p c #F1F2F1",
"- c #F6F6F6",
"2 c #EFEFEF",
"3 c #EFEFF0",
"o c #FEFEFE",
"> c #F4F3F3",
/* pixels */
" ..........     ",
".XXXXXXXXXX.    ",
".oOOOOOOOO+.    ",
".@########$.    ",
".%&&*.......... ",
".=-;.XXXXXXXXXX.",
".:>,.oOOOOOOOO+.",
".<12.@########$.",
".345.%&&&6====6.",
".789.=-;0-qwqq:.",
".ert.:>,,,y,ui-.",
" ....<12222221p.",
"    .34555a5sd2.",
"    .789f99999g.",
"    .ert2h22t22.",
"     .......... "
};
