/* XPM */
static char *chartpiereport_xpm[] = {
/* columns rows colors chars-per-pixel */
"16 16 149 2",
"e. c #E6817B",
"3  c #9EC2EB",
"f  c #46933F",
"X. c #6796E2",
"9. c #1C4590",
"1. c #EFA8A3",
"R  c #8FB3E7",
"j  c #8DB9EB",
"-  c #A8D5A0",
"0. c #F85F5F",
"z  c #3D6DBC",
"O  c #67B55B",
"G  c #6FCC7B",
"~  c #94BF92",
"A  c #88AFE3",
"@. c #F85C5C",
"d  c #A3CEA3",
"<  c #ADD9B0",
"z. c #1A428D",
"r  c #B5D3F3",
"2. c #EDA5A0",
"v  c #6DCC7A",
"(  c #77A6E7",
"=. c #4C79D9",
"!  c #ABD9AF",
"p  c #5FCA6D",
"&. c #81A8E1",
"|  c #8BB0E4",
"n  c #66C872",
"$  c #B5E1B9",
"+. c #F96665",
"j. c #2751A1",
"I  c #A9C8EF",
"#. c #F37E7C",
"K  c #8BB889",
"J  c #A9D9AD",
"a  c #58C666",
"l  c #709CD8",
"*  c #54A34B",
";. c #4A70BE",
"3. c #F14C4F",
"^  c #408D3A",
"e  c #8EB4E7",
"f. c #EB9994",
"V  c #ACCCF0",
"u. c #7099DB",
"U  c #73A6E6",
"X  c #77C26A",
"y  c #4B80CB",
"c  c #B8DFBA",
"   c None",
"v. c #E76D6C",
"<. c #F48584",
"C  c #71A6E5",
"l. c #4366B8",
"Y  c #679BE2",
"k  c #AAC9F0",
")  c #5D90E0",
"t. c #EF4044",
"S  c #3564B4",
"q  c #96C193",
";  c #BBE0BA",
"k. c #628ED6",
"h  c #B2D1F2",
"H  c #89D292",
"M  c #6DA868",
"i  c #9AD8A2",
"P  c #5489D1",
"6  c #BEE1BE",
"L  c #3A8435",
"%. c #3B6CBA",
"]  c #56A54D",
"+  c #85CC78",
"d. c #EE7F7D",
"w  c #669CDE",
"o  c #6FBC63",
"o. c #6D97DA",
"O. c #224C9A",
":. c #1D4591",
"&  c #A6CEA4",
"Z  c #84B1E9",
",. c #F96262",
"_  c #5C8EDE",
"N. c #EA1B22",
"q. c #F29995",
"u  c #B5DAB3",
"a. c #3155A6",
"%  c #CBEACE",
"4. c #3462B3",
"$. c #F45859",
"/  c #93B7E7",
"t  c #98BBE9",
"8  c #62CA6E",
"4  c #73A2DD",
":  c #A0DAA7",
"i. c #7FA4E6",
"-. c #84A8E7",
"[  c #93BF90",
">. c #FA6C6B",
"F  c #B1E0B6",
"x  c #75C168",
"N  c #5D92D8",
"B. c #E8151D",
",  c #73CD7F",
"}  c #4475C3",
"b  c #59C666",
"0  c #97D69E",
"s. c #F36262",
"7  c #89D494",
"x. c #F13338",
"5  c #82CA74",
"E  c #2E5CAB",
"2  c #689EDF",
"5. c #79A1DE",
"g  c #5E93D9",
"`  c #88ADE6",
"6. c #5B89DE",
"W  c #60AF56",
"Q  c #C8E8CA",
" . c #6D9CE3",
"@  c #B7DCB4",
".. c #5485DD",
"T  c #6698E2",
">  c #70CE7D",
"B  c #8EB5E6",
"w. c #EEAAA5",
"=  c #699FDF",
"#  c #BAE0BC",
"n. c #204B98",
"r. c #EB9A97",
"8. c #5C87D0",
"7. c #7FA6E6",
"p. c #5780CB",
"s  c #75CC80",
"1  c #52A14A",
"y. c #2D5AA9",
"D  c #6BB860",
"b. c #E92D33",
"m. c #19418B",
"*. c #6492E0",
"'  c #2853A3",
"9  c #60C96E",
"M. c #EB2128",
"h. c #EC373B",
"c. c #EB5658",
".  c #7FC873",
"{  c #F75556",
"g. c #E9918D",
"m  c #A3DAA8",
/* pixels */
"          . X o O               ",
"      + @ # $ % & *   =         ",
"    - ; : > , < 1   2 3 4       ",
"  5 6 7 8 9 0 q   w e r t y     ",
". u i p a s d f   g h j k l z   ",
"x c v b n m M   N B V C Z A S   ",
"D F G H J K L   P I U Y T R E   ",
"W Q ! ~ ^       y / ( ) _ ` '   ",
"] [ f       {   } |  ...X.o.O.  ",
"      +.@.#.$.  %.&.*.=.-.;.:.  ",
"  >.,.<.1.2.3.  4.5.6.7.8.9.    ",
"  0.q.w.e.r.t.  y.u.i.p.a.      ",
"    s.d.f.g.h.  j.k.l.z.        ",
"      x.c.v.b.  n.:.m.          ",
"        M.N.B.                  ",
"                                "
};
