/* XPM */
static const char * customsql_xpm[] = {
"16 15 134 2",
"  	c None",
". 	c #D3D3D3",
"+ 	c #D3E4F7",
"@ 	c #D0E1F5",
"# 	c #CBDEF4",
"$ 	c #C7DBF3",
"% 	c #C4D8F1",
"& 	c #BFD5F0",
"* 	c #BBD2EE",
"= 	c #B8D0ED",
"- 	c #B4CDEB",
"; 	c #AFC9EB",
"> 	c #ABC7E9",
", 	c #A7C5E8",
"' 	c #A3C2E7",
") 	c #9FBFE6",
"! 	c #9BBCE4",
"~ 	c #D3E3F6",
"{ 	c #848484",
"] 	c #D0D0CE",
"^ 	c #97B9E2",
"/ 	c #D1E1F6",
"( 	c #000000",
"_ 	c #94B7E1",
": 	c #CDDFF4",
"< 	c #858585",
"[ 	c #8FB3E0",
"} 	c #C9DCF3",
"| 	c #FFFFFF",
"1 	c #FEFEFE",
"2 	c #FCFDFE",
"3 	c #F2F2F2",
"4 	c #CABB92",
"5 	c #D8A558",
"6 	c #DBB185",
"7 	c #D09D46",
"8 	c #8CB1DF",
"9 	c #C5D9F0",
"0 	c #F4FAFE",
"a 	c #546571",
"b 	c #F4E4AF",
"c 	c #E7BE77",
"d 	c #F0D2B4",
"e 	c #FFF3E5",
"f 	c #EFD2AC",
"g 	c #C78C48",
"h 	c #C2D7F1",
"i 	c #FEFEFF",
"j 	c #EFF8FF",
"k 	c #CACD9B",
"l 	c #EDD581",
"m 	c #F9E3B2",
"n 	c #E7C08B",
"o 	c #F6D3AE",
"p 	c #FCE0C4",
"q 	c #D39F66",
"r 	c #BDD4EF",
"s 	c #E1EDFB",
"t 	c #E1ECFA",
"u 	c #E0ECFB",
"v 	c #D5E8FC",
"w 	c #CFD19F",
"x 	c #EDD47D",
"y 	c #FDF6C4",
"z 	c #F6DD6C",
"A 	c #EDCA6D",
"B 	c #D7A363",
"C 	c #D09D64",
"D 	c #81A9DB",
"E 	c #BAD1EF",
"F 	c #7F8C95",
"G 	c #BFCAA3",
"H 	c #EED379",
"I 	c #FDF7C7",
"J 	c #F5DC5F",
"K 	c #F7E25B",
"L 	c #F2D67A",
"M 	c #DE9F4E",
"N 	c #BBAFA1",
"O 	c #7DA7DA",
"P 	c #B7CFED",
"Q 	c #E2E9F0",
"R 	c #E5D4B0",
"S 	c #E9CF7F",
"T 	c #F5DC5E",
"U 	c #F7E15A",
"V 	c #F1D47B",
"W 	c #DC984A",
"X 	c #BEAE9D",
"Y 	c #7AA4D9",
"Z 	c #B3CCEC",
"` 	c #B7A683",
" .	c #D6B976",
"..	c #FDF6C2",
"+.	c #F7DF63",
"@.	c #F8E25D",
"#.	c #F0D379",
"$.	c #DB9748",
"%.	c #BBB2A7",
"&.	c #76A1D7",
"*.	c #AFCAEA",
"=.	c #D5B67A",
"-.	c #D1B790",
";.	c #E4C955",
">.	c #F5DF5B",
",.	c #EDD078",
"'.	c #DA9A4E",
").	c #BBB1A5",
"!.	c #74A0D7",
"~.	c #AA8943",
"{.	c #FFF2E0",
"].	c #D89A54",
"^.	c #BE7A1A",
"/.	c #C59849",
"(.	c #C38B45",
"_.	c #BBAEA0",
":.	c #83652B",
"<.	c #F9C794",
"[.	c #F9C991",
"}.	c #C98541",
"|.	c #AA6723",
"1.	c #B7AB9D",
"2.	c #A4C2E6",
"3.	c #A0BEE5",
"4.	c #9CBCE4",
"5.	c #97B9E3",
"6.	c #553D11",
"7.	c #875F28",
"8.	c #BD8849",
"9.	c #BC8D42",
"0.	c #83ABDC",
"a.	c #80A8DB",
"b.	c #7BA5D9",
"c.	c #77A2D8",
". + @ # $ % & * = - ; > , ' ) ! ",
"~ { { { { ] { { { { { { { { { ^ ",
"/ { ( { { ] { ( ( ( ( { { { { _ ",
": { { { { ] { { { { < { { { { [ ",
"} | | | 1 2 2 | | | 3 4 5 6 7 8 ",
"9 1 ( { ( 0 ( ( { a b c d e f g ",
"h | | | 1 | | i j k l m n o p q ",
"r s s t s s u v w x y z A B C D ",
"E s ( { ( s F G H I J K L M N O ",
"P s s s s Q R S I T U V W X s Y ",
"Z | | | | `  ...+.@.#.$.%.| | &.",
"*.| ( ( { =.-.;.>.,.'.).( ( | !.",
"> | | | ~.{.].^./.(._.| | | | !.",
", s s s :.<.[.}.|.1.s s s s s !.",
"2.3.4.5.6.7.8.9.0.a.b.c.!.!.!.!."};
