/* XPM */
static const char * customsql_xpm[] = {
"16 15 55 1",
" 	c None",
".	c #D3E4F7",
"+	c #D0E1F5",
"@	c #CBDEF4",
"#	c #C7DBF3",
"$	c #C4D8F1",
"%	c #BFD5F0",
"&	c #BBD2EE",
"*	c #B8D0ED",
"=	c #B4CDEB",
"-	c #AFC9EB",
";	c #ABC7E9",
">	c #A7C5E8",
",	c #A3C2E7",
"'	c #9FBFE6",
")	c #9BBCE4",
"!	c #D4E4F7",
"~	c #848484",
"{	c #D0D0CE",
"]	c #97B9E2",
"^	c #D1E1F6",
"/	c #000000",
"(	c #94B7E1",
"_	c #CDDFF4",
":	c #8FB3E0",
"<	c #C9DCF3",
"[	c #FFFFFF",
"}	c #8CB1DF",
"|	c #C5DAF2",
"1	c #88AEDD",
"2	c #C2D7F1",
"3	c #84ACDC",
"4	c #BDD4EF",
"5	c #E1EDFB",
"6	c #81A9DB",
"7	c #BAD1EF",
"8	c #7DA7DA",
"9	c #B7CFED",
"0	c #7AA4D9",
"a	c #B3CCEC",
"b	c #76A1D7",
"c	c #AFCAEA",
"d	c #74A0D7",
"e	c #A4C2E6",
"f	c #A0BEE5",
"g	c #9CBCE4",
"h	c #97B9E3",
"i	c #93B6E1",
"j	c #90B3E0",
"k	c #8CB0DF",
"l	c #87AEDD",
"m	c #83ABDC",
"n	c #80A8DB",
"o	c #7BA5D9",
"p	c #77A2D8",
" .+@#$%&*=-;>,')",
"!~~~~{~~~~~~~~~]",
"^~/~~{~////~~~~(",
"_~~~~{~~~~~~~~~:",
"<[[[[[[[[[[[[[[}",
"|[/~/[//~///~/[1",
"2[[[[[[[[[[[[[[3",
"4555555555555556",
"75/~/5//~///~/58",
"9555555555555550",
"a[[[[[[[[[[[[[[b",
"c[//~[///~////[d",
";[[[[[[[[[[[[[[d",
">55555555555555d",
"efghijklmnopdddd"};
