/* XPM */
static const char *delete_account_xpm[] = {
/* columns rows colors const chars-per-pixel */
"16 16 46 1",
". c Black",
"y c #E8E8E8",
", c #4B4B49",
"# c #C3C3C3",
"; c #F0F0F0",
"e c #FFFFFF",
"9 c #F9DFDA",
"& c #ADADAD",
"j c #BCBCBC",
"u c #E9E9E9",
"p c #FDF9F8",
"8 c #FDF6F4",
": c #E2E2E2",
"@ c #F1F1F1",
"  c None",
"i c #FBEAE7",
"h c #E3E3E3",
"k c #A0A0A0",
"w c #EBEBEB",
"6 c #FCF1EF",
"= c #5D5D5D",
"4 c #E58772",
"% c #A8A8A8",
"g c #E4E4E4",
"7 c #FDFBFA",
"q c #ECECEC",
"$ c #FBFBFB",
"- c #404040",
"f c #E5E5E5",
"r c #FBECE9",
"0 c #EDEDED",
"s c #E6E6E6",
"* c #767676",
"> c #858585",
"+ c #C1C1C1",
"2 c #EEEEEE",
"o c #FDFDFD",
"d c #E1836E",
"a c #D1D1D1",
"< c #161616",
"O c #E0E0E0",
"1 c #EFEFEF",
"X c #FEFEFE",
"t c #ACACAC",
"5 c #DF421E",
"3 c #BBBBBB",
/* pixels */
"   .........    ",
"  .XXXXXXoO+.   ",
"  .X@@@@@@#$%.  ",
"  .X@@@@@@&*=-. ",
"  .X@@@@@;:>,<. ",
"  .X@111111223. ",
"  .X111224555555",
"  .o222225675895",
"  .o0qqqw57ere85",
" .....tyy556er55",
".eeeeO.uy58eiep5",
".e...a.ss56p5895",
".e1..a.ssd555555",
".e.1.a.fgghhh3. ",
".Oaaaa.jj3333k. ",
" .............  "
};
