/* XPM */
static char *edit_account_xpm[] = {
/* columns rows colors chars-per-pixel */
"16 16 50 1",
". c Black",
"4 c #FCEB3D",
"u c #E8E8E8",
", c #4B4B49",
"# c #C3C3C3",
"; c #F0F0F0",
"s c #FFFFFF",
"5 c #F7B544",
"8 c #F7B545",
"& c #ADADAD",
"x c #BCBCBC",
"d c #E9E9E9",
"t c #5B4F2C",
"f c #4F4115",
": c #E2E2E2",
"@ c #F1F1F1",
"  c None",
"z c #E3E3E3",
"c c #A0A0A0",
"w c #EBEBEB",
"= c #5D5D5D",
"3 c #F2B64D",
"% c #A8A8A8",
"p c #655930",
"l c #E4E4E4",
"i c #D7AE74",
"q c #ECECEC",
"$ c #FBFBFB",
"- c #404040",
"k c #E5E5E5",
"0 c #EDEDED",
"7 c #FCE93B",
"e c #F6D236",
"r c #F4B244",
"9 c #6C5F34",
"j c #E6E6E6",
"6 c #5D502C",
"* c #767676",
"> c #858585",
"+ c #C1C1C1",
"1 c #EEEEEE",
"o c #FDFDFD",
"g c #E7E7E7",
"2 c #FBE73B",
"h c #D1D1D1",
"O c #E0E0E0",
"< c #EFEFEF",
"X c #FEFEFE",
"y c #ACACAC",
"a c #BBBBBB",
/* pixels */
"   .........    ",
"  .XXXXXXoO+.   ",
"  .X@@@@@@#$%.  ",
"  .X@@@@@@&*=-. ",
"  .X@@@@@;:>,.. ",
"  .X@<<<<<<1.23.",
"  .X<<<1111.456.",
"  .o111111.789. ",
"  .o0qqqw.ert.. ",
" .....yuu.ip.a. ",
".ssssO.d.f..ga. ",
".s...h.j..jjka. ",
".s<..h.jjkklla. ",
".s.<.h.kllzzza. ",
".Ohhhh.xxaaaac. ",
" .............  "
};
