/* XPM */
static const char * export_import_xpm[] = {
"48 48 120 2",
"  	c None",
". 	c #B3B3B3",
"+ 	c #CACACA",
"@ 	c #C7C7C7",
"# 	c #B8B8B8",
"$ 	c #C2C2C2",
"% 	c #FFFFFF",
"& 	c #F6F6F6",
"* 	c #C3C3C3",
"= 	c #BEBEBE",
"- 	c #F5F5F5",
"; 	c #C6C6C6",
"> 	c #CFCFCF",
", 	c #F3F3F3",
"' 	c #C9C9C9",
") 	c #D3D3D3",
"! 	c #F2F2F2",
"~ 	c #CBCBCB",
"{ 	c #D6D6D6",
"] 	c #BDBDBD",
"^ 	c #FEFEFE",
"/ 	c #F0F0F0",
"( 	c #CECECE",
"_ 	c #D9D9D9",
": 	c #BCBCBC",
"< 	c #D2D2D2",
"[ 	c #DCDCDC",
"} 	c #C1C1C1",
"| 	c #FDFDFD",
"1 	c #EDEDED",
"2 	c #D5D5D5",
"3 	c #DFDFDF",
"4 	c #BABABA",
"5 	c #ECECEC",
"6 	c #D8D8D8",
"7 	c #E3E3E3",
"8 	c #EBEBEB",
"9 	c #DBDBDB",
"0 	c #E6E6E6",
"a 	c #FCFCFC",
"b 	c #E9E9E9",
"c 	c #E8E8E8",
"d 	c #D0D0D0",
"e 	c #D4D4D4",
"f 	c #CDCDCD",
"g 	c #C4C4C4",
"h 	c #B1B1B1",
"i 	c #FBFBFB",
"j 	c #E4E4E4",
"k 	c #E2E2E2",
"l 	c #B7B7B7",
"m 	c #FAFAFA",
"n 	c #C0C0C0",
"o 	c #F9F9F9",
"p 	c #F8F8F8",
"q 	c #F7F7F7",
"r 	c #BFBFBF",
"s 	c #F4F4F4",
"t 	c #BBBBBB",
"u 	c #EFEFEF",
"v 	c #EEEEEE",
"w 	c #F1F1F1",
"x 	c #A8A8A8",
"y 	c #808080",
"z 	c #989898",
"A 	c #8F8F8F",
"B 	c #999999",
"C 	c #E1E1E1",
"D 	c #ADADAD",
"E 	c #DEDEDE",
"F 	c #ABABAB",
"G 	c #CCCCCC",
"H 	c #EAEAEA",
"I 	c #DADADA",
"J 	c #DDDDDD",
"K 	c #878787",
"L 	c #939393",
"M 	c #949494",
"N 	c #8B8B8B",
"O 	c #8D8D8D",
"P 	c #979797",
"Q 	c #858585",
"R 	c #9E9E9E",
"S 	c #C8C8C8",
"T 	c #AEAEAE",
"U 	c #9A9A9A",
"V 	c #A6A6A6",
"W 	c #B0B0B0",
"X 	c #A0A0A0",
"Y 	c #B6B6B6",
"Z 	c #969696",
"` 	c #959595",
" .	c #E7E7E7",
"..	c #A5A5A5",
"+.	c #848484",
"@.	c #E5E5E5",
"#.	c #818181",
"$.	c #8A8A8A",
"%.	c #8E8E8E",
"&.	c #888888",
"*.	c #828282",
"=.	c #9F9F9F",
"-.	c #C5C5C5",
";.	c #A9A9A9",
">.	c #9C9C9C",
",.	c #AAAAAA",
"'.	c #868686",
").	c #E0E0E0",
"!.	c #A3A3A3",
"~.	c #A7A7A7",
"{.	c #9D9D9D",
"].	c #D7D7D7",
"^.	c #AFAFAF",
"/.	c #838383",
"(.	c #9B9B9B",
"_.	c #A2A2A2",
":.	c #909090",
"<.	c #B9B9B9",
"[.	c #8C8C8C",
"}.	c #ACACAC",
"      . + + + + + + + + + + + + + + + + + + + + + + + + + + + + @ #                             ",
"      $ % % % % % % % % % % % % % % % % % % % % % % % % % % % % & * =                           ",
"      $ % % % % % % % % % % % % % % % % % % % % % % % % % % % % - ; > =                         ",
"      $ % % % % % % % % % % % % % % % % % % % % % % % % % % % % , ' ) > =                       ",
"      $ % % % % % % % % % % % % % % % % % % % % % % % % % % % % ! ~ { ) > ]                     ",
"      $ ^ ^ ^ ^ ^ ^ ^ ^ ^ ^ ^ ^ ^ ^ ^ ^ ^ ^ ^ ^ ^ ^ ^ ^ ^ ^ ^ ^ / ( _ { ) ( :                   ",
"      $ ^ ^ ^ ^ ^ ^ ^ ^ ^ ^ ^ ^ ^ ^ ^ ^ ^ ^ ^ ^ ^ ^ ^ ^ ^ ^ ^ ^ / < [ _ { ) ( :                 ",
"      } | | | | | | | | | | | | | | | | | | | | | | | | | | | | 1 2 3 [ _ { ) > 4               ",
"      } | | | | | | | | | | | | | | | | | | | | | | | | | | | | 5 6 7 3 [ _ { ) > 4             ",
"      } | | | | | | | | | | | | | | | | | | | | | | | | | | | | 8 9 0 7 3 [ _ { ) > #           ",
"      } a a a a a a a a a a a a a a a a a a a a a a a a a a a a b 3 b 0 7 3 [ _ { ) ( #         ",
"      } a a a a a a a a a a a a a a a a a a a a a a a a a a a a c d 6 { e < > f ~ ' @ g h       ",
"      } i i i i i i i i i i i i i i i i i i i i i i i i i i i i & j j j 7 7 7 7 7 7 k k l       ",
"      } i i i i i i i i i i i i i i i i i i i i i i i i i i i i i i i i i i i i i i i i ]       ",
"      } i i i i i i i i i i i i i i i i i i i i i i i i i i i i i i i i i i i i i i i i ]       ",
"      } m m m m m m m m m m m m m m m m m m m m m m m m m m m m m m m m m m m m m m m m ]       ",
"      } m m m m m m m m m m m m m m m m m m m m m m m m m m m m m m m m m m m m m m m m ]       ",
"      n o o o o o o o o o o o o o o o o o o o o o o o o o o o o o o o o o o o o o o o o ]       ",
"      n o o o o o o o o o o o o o o o o o o o o o o o o o o o o o o o o o o o o o o o o ]       ",
"      n o o o o o o o o o o o o o o o o o o o o o o o o o o o o o o o o o o o o o o o o ]       ",
"      n p p p p p p p p p p p p p p p p p p p p p p p p p p p p p p p p p p p p p p p p :       ",
"      n p p p p p p p p p p p p p p p p p p p p p p p p p p p p p p p p p p p p p p p p :       ",
"      n q q q q q q q q q q q q q q q q q q q q q q q q q q q q q q q q q q q q q q q q :       ",
"      n q q q q q q q q q q q q q q q q q q q q q q q q q q q q q q q q q q q q q q q q :       ",
"      n q q q q q q q q q q q q q q q q q q q q q q q q q q q q q q q q q q q q q q q q :       ",
"      r & & & & & & & & & & & & & & & & & & & & & & & & & & & & & & & & & & & & & & & & :       ",
"      r & & & & & & & & & & & & & & & & & & & & & & & & & & & & & & & & & & & & & & & & :       ",
"      r - - - - - - - - - - - - - - - - - - - - - - - - - - - - - - - - - - - - - - - - :       ",
"      r - - - - - - - - - - - - - - - - - - - - - - - - - - - - - - - - - - - - - - - - :       ",
"      r - - - - - - - - - - - - - - - - - - - - - - - - - - - - - - - - - - - - - - - - :       ",
"      r s s s s s s s s s s s s s s s s s s s s s s s s s s s s s s s s s s s s s s s s t       ",
"      r s s s s s s s s s s s s s s s s s s s s s s s s s s s s s s s s s s s s s s s s t       ",
"      r , , , , , , , , , , , , , , , , , , , , , , , , , , , , , , , u 5 ! , , , v v , t       ",
"      r , , , , , , , , , , , , , , , , , , , , , w x v , , , , , , , h y [ , 9 z y x , t       ",
"      r , , , , , , , , , , , , , , , , , , , , , 6 A , , , , , , , , r B C , D y # 2 , t       ",
"      = ! ! 0 ; r [ ! ! E r g 3 v ( _ ! ! [ ( 8 ! t F ! w G G H ( I ! J ( 8 _ A y ( 3 ! t       ",
"      = ! _ K y y L ! = y y y M ! N O ! ! P Q v ! R S ! T y y U y V ! W y 9 X y y y Y ! t       ",
"      = w Z y h 9 g w ` ` H C @ w T y E  .y ..w v +.7 @.#.$.f X y V w W y I 6 %.y ( E w t       ",
"      = 1 y &./ w w w ..*.=.-.5 w < y ] S y S w { %.w d y ;.w < y V w W y I w ` y w w w t       ",
"      =  .y L w w w w E V *.y M w v K >.x *.H w 4 ,.w ~ y h w I y V w W y I w ` y w w w t       ",
"      = / '.y )./ c / H / 8 !.y j / ~.*.&.R / / {.; / ].y B u n y ../ ^.y _ / ` y / / / t       ",
"      = / Y y /.(.P / Z _.F &.:./ / + y y } / 1 +.k / u %.y %.+.y ../ ^.y _ / ` y / / / t       ",
"      ] u 1 <.M [.^.u l M [...< u u b >.(.7 u 2 O u u u I Z Z @ y ..u r (.E u F >.u u u 4       ",
"      ] u u u u u u u u u u u u u u u u u u u ] }.u u u u u u 3 y ..u u u u u u u u u u 4       ",
"      ] u u u u u u u u u u u u u u u u u u u u u u u u u u u 3 y ..u u u u u u u u u u 4       ",
"      ] v v v v v v v v v v v v v v v v v v v v v v v v v v v  .= ( v v v v v v v v v v 4       ",
"      ] v v v v v v v v v v v v v v v v v v v v v v v v v v v v v v v v v v v v v v v v 4       ",
"      ] 1 1 1 1 1 1 1 1 1 1 1 1 1 1 1 1 1 1 1 1 1 1 1 1 1 1 1 1 1 1 1 1 1 1 1 1 1 1 1 1 4       "};
