/* XPM */
static char *help_xpm[] = {
/* columns rows colors chars-per-pixel */
"16 16 139 2",
"!  c #F2F6FA",
"r. c #80A1C5",
"g  c #C3D5EA",
"W  c #6A97C4",
"Y  c #8FB0D9",
"@  c #DCE9F9",
"~  c #E1EAF3",
"e. c #658AB6",
"L  c #6894C2",
"K  c #A1BDD9",
";  c #D0DEEE",
"r  c #D5E2F1",
")  c #6D95C0",
"-  c #DFEAF7",
"^  c #6D95C2",
"d  c #81A8D1",
"p  c #77A0D0",
"X. c #638AB9",
",  c #86ACD7",
"H  c #EEF3F8",
"0. c #BFD2E5",
"e  c #BACEE6",
"M  c #6B98C4",
"F  c #6B98C5",
"[  c #95B5D9",
"z  c #75A0CF",
"4. c #6187B2",
"n  c #F6F8FB",
"}  c #6995C3",
"*. c #EAF0F6",
"V  c #789ECC",
"   c None",
"k. c #3A6BA7",
"y  c #D4E3F4",
"S  c #719DCC",
"T  c #D9E4F2",
"9  c #E3ECF6",
"v  c #B4CBE4",
"5. c #AAC0DA",
"y. c #BED0E3",
"#. c #B9CCE4",
"d. c #C8D8E8",
"B  c #D2E0EE",
"3. c #94B0CF",
"u  c #CDDCEF",
"8. c #5B87BB",
"/  c #658FBE",
"l  c #9EBBDF",
"A  c #7EA6D1",
"6  c #C6D8EC",
"u. c #4070AB",
"<  c #9CBBDD",
"x  c #729ECD",
"Z  c #DAE5F2",
"$  c #DAE5F3",
"f. c #9CB5D3",
"-. c #6389B5",
":. c #A6BDD9",
"<. c #BACDE3",
"8  c #9ABBDC",
"9. c #C4D5E7",
"]  c #D3E1EF",
"1. c #6B94C0",
" . c #6690BF",
"5  c #DDE9F6",
"`  c #618CBF",
"q  c #AEC8E4",
"l. c #3769A5",
"j. c #3C6DA8",
"7. c #4675AE",
"=. c #5F89B7",
"1  c #C7D6EB",
"I  c #D6E2F0",
"*  c #ACC8EB",
":  c #A7C1E3",
"N  c #91B4D6",
";. c #BBCEE2",
".  c #C0D8F7",
"a. c #CADAE9",
"$. c #C5D6EA",
"w  c #7BA7D2",
"{  c #6C98C7",
"2  c #D9E6F3",
"f  c #7BA4CF",
"w. c #678EB8",
"o. c #628AB8",
"U  c #6C95C5",
"%. c #7199C7",
"c  c #E3EBF5",
"q. c #85A6C9",
"C  c #99B9E0",
"j  c #A3C1E6",
"i  c #7EA8D5",
"%  c #DCE7F5",
"p. c #A3BBD7",
">. c #6A92C3",
"o  c #BCD5F4",
"a  c #F5F8FB",
"s  c #F5F8FC",
"_  c #D5E3EF",
"7  c #81ACD7",
".. c #638BBB",
"m  c #BFD3E5",
"b  c #BFD3E7",
"t. c #BACCE0",
"O. c #86A7CB",
"E  c #6B99C5",
",. c #C9D8EA",
"R  c #7AA5D1",
"3  c #9FBEE3",
"@. c #5783B8",
"0  c #E2ECF5",
"#  c #DDE8F6",
"4  c #B3CEEF",
"=  c #B8D2F2",
"+  c #BDD6F5",
"&. c #ECF1F7",
">  c #89AED8",
"+. c #CCDCEA",
"s. c #D1E0EC",
"'  c #84A7D3",
"h  c #C2D4EA",
"Q  c #6996C4",
"(  c #648FBE",
"&  c #D6E4F5",
"G  c #B6CCE2",
"g. c #3A6CA7",
"h. c #3F70AA",
"D  c #6C9AC7",
"6. c #C0D1E4",
"t  c #91B3DB",
"|  c #6793C1",
"i. c #4E7CB3",
"P  c #719BC5",
"2. c #628CBA",
"k  c #D9E5F3",
"O  c #B9D3F3",
"X  c #BED7F6",
"J  c #E8EEF6",
/* pixels */
"                                ",
"            . X o O             ",
"        + @ # $ $ % & *         ",
"      = - ; : > , < 1 2 3       ",
"    4 5 6 7 8 9 0 q w e r t     ",
"    y u i p a s s a d f g h     ",
"  j k l z x c v b n m M N B V   ",
"  C Z A S D F G H J K L P I U   ",
"  Y T R E W Q ! ~ ^ / ( ) _ `   ",
"  ' ] [ { } |  . ...X.o.O.+.@.  ",
"    #.$.%. . .&.*.=.=.-.;.:.    ",
"    >.,.<.1.2.3.3.=.4.5.6.7.    ",
"      8.9.0.q.w.e.r.t.y.u.      ",
"        i.p.a.s.s.d.f.g.        ",
"            h.j.k.l.            ",
"                                "
};
