/* XPM */
static char *homepagetree_xpm[] = {
/* columns rows colors chars-per-pixel */
"16 16 64 1",
". c Black",
"4 c #CACACA",
"6 c #E8E8E8",
"X c #A95849",
"< c #B4B4B4",
"z c #D2D2D2",
"V c #364530",
"m c #424A40",
"y c #FFFFFF",
"f c #BCBCBC",
"$ c #E9E9E9",
"7 c #2E2E2E",
"O c #5B5B5B",
"# c #979797",
"l c #B5B5B5",
"; c #C4C4C4",
"n c #D3D3D3",
"j c #E2E2E2",
"B c #465541",
"a c #A54937",
"e c #57261D",
"c c #612B20",
"b c #CCCCCC",
"& c #111111",
"  c None",
"k c #DBDBDB",
"3 c #EAEAEA",
"D c #354031",
"x c #B6B6B6",
"2 c #191919",
"A c #566252",
"F c #333D2F",
"N c #5B6657",
"g c #DCDCDC",
"8 c #3F3F3F",
"Z c #0B0E09",
"d c #E4E4E4",
"o c #656565",
"1 c #CECECE",
"= c #8B8B8B",
"* c #393939",
"% c #666666",
"S c #495545",
"M c #586455",
"5 c #CFCFCF",
"r c #3D1B14",
"0 c #141414",
"p c #53251B",
"s c #EDEDED",
"u c #323232",
": c #9B9B9B",
"+ c #763E2F",
", c #858585",
"C c #273122",
"q c #DFDFDF",
"v c #431D15",
"@ c #606060",
"- c #C9C9C9",
"> c #4A4A4A",
"w c #50231A",
"i c #E0E0E0",
"t c #EFEFEF",
"9 c #343434",
"h c #BBBBBB",
/* pixels */
"                ",
"   ... ..       ",
"   .X..oO.      ",
"   .+.@#$%.     ",
"   .&*=-$;:.    ",
"   .>:$;$-$,.   ",
"  .><-$-$-$1:.  ",
" .2.34356789.0. ",
"   .qwert*yu.   ",
"   .ipaps7*7.   ",
"   .qpapdfgh.   ",
"   .jpapklzx.   ",
"   .kcpvbhnx.   ",
"  mmMNBVCZASDFS ",
" m..SSSSS SSSS  ",
"                "
};
