/* XPM */
static char *homepage_xpm[] = {
/* columns rows colors chars-per-pixel */
"16 16 15 1",
"O c Black",
"& c #002020",
"+ c #400000",
". c #202020",
"@ c #004040",
"= c #600000",
"; c #303030",
"% c #204040",
"$ c #006060",
"* c #800000",
"X c #404040",
"# c #008080",
"- c #C0C0C0",
"  c None",
"o c #606060",
/* pixels */
"         .XXooXX",
"    OOOOO++O  X ",
"   O@####++#O   ",
"  O$#@###++#$O  ",
" O$###@##%%##$O ",
"O$#####@######$O",
"O@@@@@@&@@@@@@@O",
"O******+*******O",
"O******+*******O",
"O=++=+++=++*++=O",
"O+#@+-o++-o*o-+O",
"O+$@+o;++o;*;o+O",
"O+#@***+*******O",
"O+#@***+*******O",
"OOOOOOOOOOOOOOOO",
"                "
};
