/* XPM */
static char *mainicon_xpm[] = {
/* columns rows colors chars-per-pixel */
"32 32 198 2",
"v. c #D2BD72",
"@X c #787E81",
"]. c #B9A35E",
"z. c #E6D08A",
"s  c #C1AB50",
">  c #907E00",
"o. c #0E4689",
"7  c #BAA743",
"K. c #C3AB73",
"E  c #271943",
"P  c #C2B856",
"{. c #DFCC86",
" X c #5D6163",
"D. c #CDB684",
"Q  c #244A8E",
"*. c #7B0C08",
"$. c #AF8940",
"*X c #94999F",
"n. c #E4CD89",
"J. c #BCBCBC",
"N  c #AB9241",
"u. c #A9922F",
"5. c #6F6549",
"d  c #B8A14B",
"Q. c #E7DAB0",
"P. c #E7D192",
"_. c #979798",
"!. c #817E64",
"-  c #B8A151",
"-. c #8D1C1E",
"#  c #714400",
"$X c #727B82",
"&  c #BBA84F",
"T. c #313235",
"9  c #BBA850",
"q  c #D1C493",
"^. c #AC9C54",
"#. c #A7172A",
"*  c #C5B05B",
".. c #B6A45A",
"C  c #D8BC8A",
"1  c #98A629",
"). c #B6A155",
"!  c #952730",
"R. c #AF9A3C",
"x  c #635442",
"f  c #CAB775",
"D  c #1F5DA2",
"s. c #B1C1D6",
"3  c #810E18",
"t. c #ACBDD9",
"J  c #A8212C",
"G. c #A7A189",
"3. c #A6793A",
"0. c #938E7E",
"=  c #C3B063",
"R  c #A58C36",
"r. c #677A7B",
"%X c #B6B9BF",
"U. c #EDDCAC",
"p  c #A1555B",
",  c #9D9E21",
"k. c #D2BC6B",
"/  c #C1B054",
"`. c #2D2C2C",
"w. c #CAAE75",
"'. c #D0BC66",
"~  c #B0262E",
"S  c #271E49",
".  c #BCAC68",
"k  c #441D37",
"+X c #D5C073",
"[. c #BCA966",
"U  c #C8AB69",
"d. c #67592F",
"L. c #DAC47A",
"'  c #381836",
"l. c #A18621",
"a  c #B09843",
"E. c #C7B558",
"j. c #456BA2",
"F  c #25599C",
"8  c #C2AE4E",
"   c None",
"W. c #C9B265",
"|  c #B09544",
"4. c #B59C52",
"O. c #6E2834",
" . c #B09548",
",. c #9A8B45",
"_  c #DFC28B",
"@  c #7F6B08",
"y  c #862024",
"9. c #A4B4C6",
"u  c #921F23",
"$  c #70131C",
"G  c #5C614F",
"^  c #B81F30",
"q. c #DBC88A",
"Z. c #545353",
"&. c #C2AB6A",
"y. c #867E69",
"(  c #B6A04A",
"v  c #8F8726",
"b  c #9B142A",
"B  c #BCB451",
"/. c #9FA1A9",
"m. c #41628D",
"t  c #9C9626",
"-X c #D9C272",
"+. c #A11F15",
"r  c #AB9C19",
"a. c #466CA8",
"m  c #9C1E23",
"1. c #762124",
")  c #C0A860",
"(. c #CDBA64",
"M  c #A93946",
"%  c #AA9235",
"i. c #BBA462",
"j  c #446C9D",
"6  c #AA923B",
":  c #5C2325",
"Y. c #939089",
">. c #BFB854",
"@. c #9F2526",
"A  c #A58E3E",
"&X c #D7C278",
"p. c #CDAE4F",
"h  c #B9A159",
"oX c #CDBA7D",
"V  c #D7BF78",
"l  c #115AA8",
"8. c #BEA256",
"`  c #B7A151",
"|. c #353C42",
"2  c #834D22",
"O  c #6D3A00",
"5  c #874D4E",
"g. c #C4B04F",
"I. c #F5ECD4",
"c  c #AAA318",
";  c #A8B9CE",
":. c #AC803E",
"H. c #585858",
"T  c #DCBD7F",
"X  c #BAAB65",
".X c #C4B369",
"x. c #E9CC7B",
";. c #950E22",
"2. c #871224",
"H  c #8F6C20",
"A. c #C1C1C1",
"<. c #B39E3D",
"Z  c #D0B577",
"e. c #DABA70",
"w  c #09378B",
"Y  c #E1C191",
"0  c #C9B46E",
"n  c #9E292A",
"=. c #8A100A",
"+  c #7A6600",
"7. c #DABD85",
"b. c #4871A4",
"e  c #65583F",
"B. c #D5B989",
"}. c #929190",
"K  c #AA282E",
"X. c #782623",
"W  c #1562AD",
"f. c #A7902D",
"C. c #272E3D",
"{  c #AF2627",
"i  c #8D1717",
"4  c #8C3636",
"OX c #CAB55D",
"z  c #1255B3",
"#X c #B3B6B8",
"=X c #AEAFB0",
"~. c #B3B3B3",
"L  c #AA1C2A",
"F. c #DEC87E",
"o  c #CCB27D",
"XX c #BEAD5D",
"N. c #A5903A",
"V. c #E3CC84",
"[  c #B22115",
"c. c #AF9B4A",
"}  c #B61B2D",
"]  c #533C59",
"h. c #EDD181",
"6. c #9F7F4A",
"<  c #9A9828",
"S. c #A59042",
"M. c #616471",
"%. c #AF9844",
"I  c #B49C49",
"g  c #CFB679",
/* pixels */
"                                  . X o                         ",
"          O + @ # $             % & * = - . .           ; ;     ",
"      : > , < 1 2 3 4 4 5     6 7 & 8 9 = 0 0 - q       ; ;     ",
"      w e r t 1 y u i i p   a 7 s 9 9 d d 9 9 f g h X   j j     ",
"    k l z x c v b n m m M N & B 9 9 9 d d d d d - V C Z A j     ",
"    S D F z G H J K L L 6 P s s - & & 9 d d d d I a I U Y T R   ",
"    E D F W Q ! ~ ^ N N P / s 9 d s d - d d d ( I a a a a ) _ ` ",
"    ' W W ] [ { } | P P / 9 s 9 9 9 d d d I I ( ( I I a N  .Y ..",
"    X.o.O.+.@.#.$.B s s 9 9 9 - & d d d d ( ( I I a I %.N &.U a ",
"      *.=.-.;.:.>.* s s 9 s 9 d d - d d I I I I a I %.| h _ ,.<.",
"        1.2.3.B / 9 9 9 9 9 d & d d ( ( I I I I I | 6 4._ h 5.<.",
"          6.B * s 9 9 9 & & d - d ( d I I I I I a N | 7.8.9.0.q.",
"        <.<./ s 9 9 9 9 - d d d d d I I I I I | N | w.e.r.t.y.<.",
"      <.u.s s s 9 s 9 9 8 - d d I ( I I a a a | N i.C p.a.s.d.  ",
"    <.f.g.9 s & 9 - d d d d d d ( I I a I N N N 4.C - h.j.; k.  ",
"    l.s / s 9 s & 9 d d d d d I I I I I a N N  .C h z.x.j 9.    ",
"N N & / 9 9 9 & d d d d d ( ( I I I c.%.N N N o &.v.z.x.b.;     ",
"a a s / s 9 9 d 9 d ` ` ( ( I I I a | | N ) ) o ) z.n.h.m.M.    ",
"I I N.N & s & d 9 d d d ( ( I I I | N | 4.B.B.4.z.n.z.V.C.Z.A.  ",
"    <./ N S.d 9 d d d d I I I I a a N  .D.4.4.V.V.F.h.G.C.H.J.  ",
"      <.g.s ,.N & ( I I I I a a N N | K.h L.L.P.I.U.  Y.T.H.J.  ",
"        R.g.E.,.N ( I I I a I I | N i.&.W.V.V.Q.N.    !.T.H.~.  ",
"          R./ E.^.S.%.%.a I a N N 4.o - V.U.U.I       /.T.H.~.  ",
"            a / (.^.^.^.N ).4.| 4.K.c.V.U.I I         _.`.Z.A.  ",
"              7 (.'.].].X I 4.i.[.I {.P.X             }.|. X    ",
"                s (.k.k.X &..X` XXV.V.oX              }. XA.    ",
"                6 OXk.k.+Xv.v.L.{.L.q.                  @X#X    ",
"                  6 '.'.+X+X+XL.L.q.c.                  $X%X    ",
"                    d d +X+X&XL.{.N                     *X%X    ",
"                        OXL.L.V.a                       =XA.    ",
"                        N -X-X6                                 ",
"                          ..`                                   "
};
