/* XPM */
static char *mainicon_xpm[] = {
/* columns rows colors chars-per-pixel */
"32 32 19 1",
". c Black",
": c #FFFFFF",
"; c #444444",
"$ c #888888",
"> c #659898",
"< c #660000",
"- c #CBCBFF",
"* c #111111",
"@ c #555555",
"O c #CC3200",
"& c #9898CB",
"= c #222222",
"% c #AAAAAA",
"X c #FF9833",
"  c None",
"+ c #983200",
"# c #980000",
"o c #CC6500",
", c #BBBBBB",
/* pixels */
"                                ",
"                         ..     ",
"                       ...      ",
"                     ..X.       ",
"                   ..XX.        ",
"                 ..XXo.         ",
"               ..XXoo.          ",
"             ..XXooo.           ",
"           ..XXoooo.            ",
"          .XXooooo.             ",
"         .XoooooO.         .    ",
"        .XooooOO.        ..     ",
"       .XoooOOOO.      ..       ",
"      .XooOOO++.     @.         ",
"     .XoOOO+++#.   @@           ",
"    .XOOO+++#@$%.@@             ",
"   .XOO+++###$#@@&&..           ",
"  .XO+++#@$%#..&&&&&&..         ",
" .X+++###$#*.&&&&&&&&&&..       ",
" .X+#@$%#=*&&&&&&&-------..     ",
".X###$#;=&&&&----------::>>.    ",
".X##;$$--------------::>>&&..;  ",
".X##;::$,----------::>>&&;;XX..;",
" .X#;::::,,------::>>&&;;XX..;  ",
"  .XX@@::::,,--::>>&&;;XX..;   <",
"   ..XX@@::::,:>>&&;;XX..;   +< ",
"    @..XX@@:::>&&;;XX..oo...+.  ",
"      @..XX@@:&;;XX..ooXXXoo.   ",
"        @..XX@@XX..; ..XXo..;@  ",
"          @..XX..;    ;...;;    ",
"            @..;                ",
"                                "
};
