/* XPM */
static const char * main_setup_xpm[] = {
"48 48 693 2",
"  	c None",
". 	c #474E6A",
"+ 	c #49506B",
"@ 	c #464D6B",
"# 	c #3D426A",
"$ 	c #373C6A",
"% 	c #2E3268",
"& 	c #050566",
"* 	c #000066",
"= 	c #656D86",
"- 	c #B7C4D3",
"; 	c #BECAD9",
"> 	c #BAC6D4",
", 	c #B3BDCB",
"' 	c #5E647F",
") 	c #161964",
"! 	c #000067",
"~ 	c #454B66",
"{ 	c #9EA9BB",
"] 	c #DFEEF9",
"^ 	c #DFEEFA",
"/ 	c #E1F0FA",
"( 	c #E6F2FB",
"_ 	c #949DB0",
": 	c #212464",
"< 	c #49506C",
"[ 	c #B7C5D5",
"} 	c #D5E9F8",
"| 	c #D2E7F7",
"1 	c #D4E8F8",
"2 	c #DEEEF9",
"3 	c #B0BBCB",
"4 	c #333869",
"5 	c #434B66",
"6 	c #CCDDEC",
"7 	c #CEE6F7",
"8 	c #CDE5F7",
"9 	c #D0E6F7",
"0 	c #D8EBF8",
"a 	c #C6D2E0",
"b 	c #3F4569",
"c 	c #454D69",
"d 	c #474E69",
"e 	c #C8E2F5",
"f 	c #C9E3F6",
"g 	c #CCE4F6",
"h 	c #D2E8F8",
"i 	c #D8E7F3",
"j 	c #404663",
"k 	c #010166",
"l 	c #474D68",
"m 	c #474D69",
"n 	c #434B67",
"o 	c #99A9BE",
"p 	c #545D79",
"q 	c #2D3267",
"r 	c #030366",
"s 	c #657088",
"t 	c #D3E8F7",
"u 	c #C3E0F5",
"v 	c #C5E1F5",
"w 	c #C8E2F6",
"x 	c #474E6C",
"y 	c #0B0C65",
"z 	c #464B67",
"A 	c #8D94A7",
"B 	c #989EAF",
"C 	c #3F4467",
"D 	c #070865",
"E 	c #000065",
"F 	c #424A66",
"G 	c #B0C0D2",
"H 	c #DEEEFA",
"I 	c #D8E9F6",
"J 	c #7E8CA5",
"K 	c #3D4467",
"L 	c #0D0E65",
"M 	c #464F6A",
"N 	c #424865",
"O 	c #99ACC2",
"P 	c #BFDDF4",
"Q 	c #C1DFF4",
"R 	c #C4E0F5",
"S 	c #C6E1F5",
"T 	c #DAECF9",
"U 	c #8693AC",
"V 	c #414764",
"W 	c #323668",
"X 	c #111265",
"Y 	c #464D68",
"Z 	c #4C536D",
"` 	c #C2CBD7",
" .	c #EDF6FC",
"..	c #EFF7FC",
"+.	c #A1A7B7",
"@.	c #404567",
"#.	c #080965",
"$.	c #424A65",
"%.	c #B0C1D4",
"&.	c #DAEBF9",
"*.	c #D6E9F8",
"=.	c #AEC1D5",
"-.	c #444B69",
";.	c #202366",
">.	c #1D2065",
",.	c #41486A",
"'.	c #717990",
").	c #A0B2C7",
"!.	c #C0D9EE",
"~.	c #CDE5F6",
"{.	c #C2DFF5",
"].	c #BBDBF3",
"^.	c #BDDDF4",
"/.	c #C0DEF4",
"(.	c #CFE6F7",
"_.	c #CDDFEE",
":.	c #96A3B7",
"<.	c #4A5270",
"[.	c #3F4568",
"}.	c #757E97",
"|.	c #DEE9F2",
"1.	c #E6F2FA",
"2.	c #E2EFFA",
"3.	c #E5F2FA",
"4.	c #A9AFBE",
"5.	c #414768",
"6.	c #090965",
"7.	c #8797AD",
"8.	c #CBE3F6",
"9.	c #CAE4F6",
"0.	c #D1E7F7",
"a.	c #DDEDF9",
"b.	c #CDDFEF",
"c.	c #65718F",
"d.	c #8390A7",
"e.	c #CBD9E7",
"f.	c #DCECF8",
"g.	c #CCE5F7",
"h.	c #BADBF3",
"i.	c #B3D7F2",
"j.	c #B4D8F2",
"k.	c #B7D9F3",
"l.	c #B9DAF3",
"m.	c #BCDCF4",
"n.	c #BEDDF4",
"o.	c #C4E1F5",
"p.	c #CEE5F6",
"q.	c #D8EBF9",
"r.	c #DAEBF8",
"s.	c #B7C7D8",
"t.	c #748099",
"u.	c #AFBBCC",
"v.	c #E2F0FA",
"w.	c #DBECF9",
"x.	c #E0EFFA",
"y.	c #E3F0FA",
"z.	c #EEF6FC",
"A.	c #757B92",
"B.	c #222666",
"C.	c #454C67",
"D.	c #C8DAEA",
"E.	c #C8E3F6",
"F.	c #CAE3F6",
"G.	c #CBE4F6",
"H.	c #D9EBF9",
"I.	c #DFEFFA",
"J.	c #AFD4F1",
"K.	c #A8D2F0",
"L.	c #ABD3F1",
"M.	c #ADD4F1",
"N.	c #B0D6F1",
"O.	c #B5D8F2",
"P.	c #B8DAF3",
"Q.	c #BDDCF4",
"R.	c #BFDEF4",
"S.	c #C5E0F5",
"T.	c #CCE5F6",
"U.	c #DCEDF9",
"V.	c #D7EAF8",
"W.	c #BDC5D2",
"X.	c #040466",
"Y.	c #646D87",
"Z.	c #D6E8F6",
"`.	c #D1E7F8",
" +	c #A5D0F0",
".+	c #A4D0EF",
"++	c #A7D1F0",
"@+	c #A9D2F0",
"#+	c #ACD4F1",
"$+	c #AED5F1",
"%+	c #B1D6F2",
"&+	c #B6D9F3",
"*+	c #BBDCF3",
"=+	c #C1DEF4",
"-+	c #D2E8F7",
";+	c #D6E1EC",
">+	c #484E6B",
",+	c #0F1065",
"'+	c #424A67",
")+	c #98AAC0",
"!+	c #C7E2F6",
"~+	c #C3DFF4",
"{+	c #AED4F1",
"]+	c #A3CFEF",
"^+	c #A8D1F0",
"/+	c #AAD3F1",
"(+	c #B0D5F1",
"_+	c #B2D7F2",
":+	c #C7E2F5",
"<+	c #D4E9F8",
"[+	c #DFEDF8",
"}+	c #616882",
"|+	c #212565",
"1+	c #444B67",
"2+	c #C1D4E5",
"3+	c #9FCDEF",
"4+	c #A1CEEF",
"5+	c #A4CFEF",
"6+	c #A6D1F0",
"7+	c #ACD3F1",
"8+	c #B6D9F2",
"9+	c #C3DFF5",
"0+	c #8C97AD",
"a+	c #373C67",
"b+	c #000166",
"c+	c #65718B",
"d+	c #D6EAF8",
"e+	c #96C8ED",
"f+	c #98C9ED",
"g+	c #9BCAEE",
"h+	c #9DCCEE",
"i+	c #A0CDEF",
"j+	c #A2CFEF",
"k+	c #AAD3F0",
"l+	c #AFD5F1",
"m+	c #D2E5F4",
"n+	c #3F4561",
"o+	c #0A0B65",
"p+	c #414B67",
"q+	c #8FA6BF",
"r+	c #D3E8F8",
"s+	c #C1DFF5",
"t+	c #91C6EC",
"u+	c #94C7ED",
"v+	c #97C8ED",
"w+	c #9DCCEF",
"x+	c #BCDCF3",
"y+	c #C1DEF5",
"z+	c #AED5F2",
"A+	c #B0D6F2",
"B+	c #C5E1F6",
"C+	c #616B88",
"D+	c #1D2064",
"E+	c #49516C",
"F+	c #CAE2F3",
"G+	c #C6E2F5",
"H+	c #91C6ED",
"I+	c #90C5EC",
"J+	c #ACD3F0",
"K+	c #D4E9F7",
"L+	c #C5D9E9",
"M+	c #A8BBCE",
"N+	c #8390A8",
"O+	c #8A99B0",
"P+	c #ADBFD2",
"Q+	c #CADBEB",
"R+	c #B2C6D8",
"S+	c #3F4567",
"T+	c #414B69",
"U+	c #92ABC4",
"V+	c #C2DFF4",
"W+	c #99C9EE",
"X+	c #C8DDEE",
"Y+	c #65718C",
"Z+	c #3E4567",
"`+	c #363D68",
" @	c #444C68",
".@	c #748198",
"+@	c #D3E3F1",
"@@	c #C4E0F6",
"#@	c #555F7D",
"$@	c #171A64",
"%@	c #404764",
"&@	c #BDD8ED",
"*@	c #B9DBF3",
"=@	c #BBDBF4",
"-@	c #80BDE9",
";@	c #87C0EB",
">@	c #ADC4DA",
",@	c #454D6B",
"'@	c #1F2365",
")@	c #434865",
"!@	c #49516B",
"~@	c #BACCDD",
"{@	c #B9DBF4",
"]@	c #A7BACF",
"^@	c #3D4368",
"/@	c #576685",
"(@	c #B7DAF3",
"_@	c #82BDE9",
":@	c #7CBAE9",
"<@	c #9ECCEE",
"[@	c #C3DBEE",
"}@	c #454C6A",
"|@	c #0F1165",
"1@	c #4A516D",
"2@	c #D2E4F1",
"3@	c #D4E8F7",
"4@	c #4F5977",
"5@	c #3E456A",
"6@	c #303569",
"7@	c #1C1F64",
"8@	c #121364",
"9@	c #060867",
"0@	c #404766",
"a@	c #3A436A",
"b@	c #3C4567",
"c@	c #5D6783",
"d@	c #9FBDD7",
"e@	c #B5D9F3",
"f@	c #7DBBE9",
"g@	c #657694",
"h@	c #414A65",
"i@	c #727E97",
"j@	c #A6D0EF",
"k@	c #D6EAF7",
"l@	c #C7DFF1",
"m@	c #AEC4D8",
"n@	c #96A8BE",
"o@	c #76839D",
"p@	c #525B79",
"q@	c #1F2267",
"r@	c #404B68",
"s@	c #7185A0",
"t@	c #90ABC5",
"u@	c #A7C2DA",
"v@	c #BAD4E9",
"w@	c #C7E1F4",
"x@	c #B3D8F2",
"y@	c #95C7EC",
"z@	c #6EB3E6",
"A@	c #8DC4EB",
"B@	c #82BDEA",
"C@	c #8BC2EB",
"D@	c #BAD3E8",
"E@	c #3D4566",
"F@	c #010266",
"G@	c #424965",
"H@	c #CBDEED",
"I@	c #B4D7F2",
"J@	c #D2E7F6",
"K@	c #A1B0C3",
"L@	c #383E6A",
"M@	c #3F4966",
"N@	c #B8D5EC",
"O@	c #68B0E5",
"P@	c #6BB1E6",
"Q@	c #6DB3E6",
"R@	c #9ACAEE",
"S@	c #9EB8D1",
"T@	c #313869",
"U@	c #444D6A",
"V@	c #B0C4D7",
"W@	c #D0E7F7",
"X@	c #3E446A",
"Y@	c #3F4763",
"Z@	c #BCD9EF",
"`@	c #9BCBEE",
" #	c #A5D0EF",
".#	c #82BEE9",
"+#	c #65AFE5",
"@#	c #7EBBE9",
"##	c #70B4E6",
"$#	c #64AEE5",
"%#	c #67AFE5",
"&#	c #69B1E5",
"*#	c #7E95B1",
"=#	c #1F2264",
"-#	c #404562",
";#	c #91A4BA",
">#	c #AAD2F0",
",#	c #C2D6E7",
"'#	c #404767",
")#	c #3E4662",
"!#	c #B5D6EF",
"~#	c #9CCBEE",
"{#	c #49A0E0",
"]#	c #4CA1E0",
"^#	c #5EABE4",
"/#	c #56A7E2",
"(#	c #58A8E3",
"_#	c #62ADE4",
":#	c #5EAAE3",
"<#	c #60ACE4",
"[#	c #63ADE4",
"}#	c #8299B6",
"|#	c #222665",
"1#	c #93A6BD",
"2#	c #CCE4F7",
"3#	c #A0CEEF",
"4#	c #A6D0F0",
"5#	c #C4DAEC",
"6#	c #3F4865",
"7#	c #86BAE2",
"8#	c #84BFEA",
"9#	c #66AFE5",
"0#	c #5DAAE4",
"a#	c #5FABE4",
"b#	c #69B1E6",
"c#	c #51A4E1",
"d#	c #52A4E1",
"e#	c #54A6E2",
"f#	c #57A7E2",
"g#	c #5AA8E3",
"h#	c #5CAAE3",
"i#	c #61ACE4",
"j#	c #8FC5EC",
"k#	c #9DBAD4",
"l#	c #333B69",
"m#	c #434C68",
"n#	c #BFD1E2",
"o#	c #9DCBEE",
"p#	c #C8E1F4",
"q#	c #BBD2E5",
"r#	c #9EB1C6",
"s#	c #414767",
"t#	c #3F4A68",
"u#	c #4B5673",
"v#	c #587091",
"w#	c #6589AE",
"x#	c #729EC6",
"y#	c #80B2D9",
"z#	c #85BEE9",
"A#	c #7BBAE8",
"B#	c #57A7E3",
"C#	c #50A4E1",
"D#	c #53A5E2",
"E#	c #56A6E2",
"F#	c #58A8E2",
"G#	c #5BA9E3",
"H#	c #5DAAE3",
"I#	c #78B9E8",
"J#	c #B6D3EA",
"K#	c #3E4565",
"L#	c #414863",
"M#	c #DAE9F5",
"N#	c #93C7ED",
"O#	c #B3D1E8",
"P#	c #889CB5",
"Q#	c #6D7B97",
"R#	c #545D7A",
"S#	c #434964",
"T#	c #434A67",
"U#	c #47506C",
"V#	c #3F4765",
"W#	c #3F4B6B",
"X#	c #3F4967",
"Y#	c #464D69",
"Z#	c #6E9CC4",
"`#	c #4CA2E0",
" $	c #4FA3E1",
".$	c #59A8E3",
"+$	c #6E83A2",
"@$	c #282E67",
"#$	c #424A68",
"$$	c #7D8FA8",
"%$	c #E1EFFA",
"&$	c #8FC4EC",
"*$	c #92C6EC",
"=$	c #97C9ED",
"-$	c #7689A5",
";$	c #2F3464",
">$	c #516686",
",$	c #489FE0",
"'$	c #4BA1E0",
")$	c #4DA2E1",
"!$	c #50A3E1",
"~$	c #55A6E2",
"{$	c #58A7E2",
"]$	c #76B8E8",
"^$	c #495372",
"/$	c #151664",
"($	c #515A75",
"_$	c #CFE4F4",
":$	c #89C1EB",
"<$	c #8EC4EC",
"[$	c #95C7ED",
"}$	c #4B5575",
"|$	c #101165",
"1$	c #3F4663",
"2$	c #7BB6E2",
"3$	c #479FE0",
"4$	c #4EA3E1",
"5$	c #54A5E2",
"6$	c #98C9EE",
"7$	c #A7C6E1",
"8$	c #4A5574",
"9$	c #2A3167",
"0$	c #424B69",
"a$	c #5E6882",
"b$	c #C4D9EA",
"c$	c #88C1EB",
"d$	c #85BFEA",
"e$	c #8AC2EB",
"f$	c #8CC3EB",
"g$	c #A8CCE7",
"h$	c #3F4664",
"i$	c #020266",
"j$	c #3F4A69",
"k$	c #5F90BC",
"l$	c #6AB1E5",
"m$	c #439CDF",
"n$	c #459EDF",
"o$	c #4AA1E0",
"p$	c #52A5E1",
"q$	c #95C8ED",
"r$	c #BCDAF1",
"s$	c #738AA9",
"t$	c #3E4563",
"u$	c #384168",
"v$	c #2A3066",
"w$	c #394269",
"x$	c #7B93B0",
"y$	c #D7E9F7",
"z$	c #83BEEA",
"A$	c #86C0EA",
"B$	c #ABD3F0",
"C$	c #7993B2",
"D$	c #2F3567",
"E$	c #435371",
"F$	c #7CB9E7",
"G$	c #4BA0E0",
"H$	c #419CDF",
"I$	c #449DDF",
"J$	c #469EDF",
"K$	c #4EA2E1",
"L$	c #71B4E7",
"M$	c #B5D8F3",
"N$	c #BFDCF1",
"O$	c #A8C6E0",
"P$	c #8EABC6",
"Q$	c #8FACC7",
"R$	c #ABC8E1",
"S$	c #C4DFF3",
"T$	c #8DC4EC",
"U$	c #7AB9E8",
"V$	c #7CBBE9",
"W$	c #7FBCE9",
"X$	c #ABD1EE",
"Y$	c #434A69",
"Z$	c #0D0F65",
"`$	c #3F4968",
" %	c #5D8DB8",
".%	c #3E9ADE",
"+%	c #409BDE",
"@%	c #429CDF",
"#%	c #4AA0E0",
"$%	c #71B5E6",
"%%	c #6BB2E6",
"&%	c #76B7E8",
"*%	c #9FCDEE",
"=%	c #84A5C5",
"-%	c #373E68",
";%	c #415272",
">%	c #419BDE",
",%	c #439DDF",
"'%	c #65AEE5",
")%	c #72B5E7",
"!%	c #74B6E7",
"~%	c #77B8E8",
"{%	c #79B9E8",
"]%	c #94C6ED",
"^%	c #99C1E0",
"/%	c #3F4766",
"(%	c #5786B2",
"_%	c #3F9BDE",
":%	c #459DDF",
"<%	c #8BC3EB",
"[%	c #70B4E7",
"}%	c #73B6E7",
"|%	c #75B7E7",
"1%	c #79B8E8",
"2%	c #7B9CBC",
"3%	c #394068",
"4%	c #4A668A",
"5%	c #5AA9E3",
"6%	c #8DC3EB",
"7%	c #AFD5F2",
"8%	c #B1D7F2",
"9%	c #6BB1E5",
"0%	c #6CB2E6",
"a%	c #6FB4E6",
"b%	c #71B5E7",
"c%	c #57698A",
"d%	c #242967",
"e%	c #434F6C",
"f%	c #76B3E1",
"g%	c #479FDF",
"h%	c #7ABAE9",
"i%	c #87C1EA",
"j%	c #9AC4E5",
"k%	c #424B6A",
"l%	c #69A0CD",
"m%	c #6AB1E6",
"n%	c #9CCCEE",
"o%	c #94C3E5",
"p%	c #93C2E5",
"q%	c #84BEEA",
"r%	c #6AB2E5",
"s%	c #82A6C7",
"t%	c #3C4467",
"u%	c #020366",
"v%	c #587CA4",
"w%	c #77AFDA",
"x%	c #4F6C93",
"y%	c #608FBB",
"z%	c #3F9ADE",
"A%	c #8FC3EA",
"B%	c #6F92B6",
"C%	c #434C6A",
"D%	c #464E6B",
"E%	c #80A7C8",
"F%	c #88C1EA",
"G%	c #8FB0CF",
"H%	c #3F4666",
"I%	c #495370",
"J%	c #79ACD6",
"K%	c #78B8E8",
"L%	c #6892BA",
"M%	c #404968",
"N%	c #252965",
"O%	c #3C4668",
"P%	c #424F6E",
"Q%	c #5D8EB9",
"R%	c #75B3E2",
"S%	c #82B8E0",
"T%	c #6A90B7",
"U%	c #455172",
"V%	c #373F68",
"W%	c #404866",
"X%	c #6782A1",
"Y%	c #95C5E9",
"Z%	c #7BBBE8",
"`%	c #91B5D4",
" &	c #0E1065",
".&	c #48516D",
"+&	c #77ABD5",
"@&	c #7CB3DE",
"#&	c #546A8C",
"$&	c #363F67",
"%&	c #121366",
"&&	c #3E4A67",
"*&	c #485D7E",
"=&	c #5B88B0",
"-&	c #77B5E4",
";&	c #75AEDB",
">&	c #4D6186",
",&	c #3E4564",
"'&	c #303868",
")&	c #404966",
"!&	c #505C79",
"~&	c #8BB6DA",
"{&	c #91B8D8",
"]&	c #4D5571",
"^&	c #121365",
"/&	c #46506C",
"(&	c #6A8EB4",
"_&	c #48506D",
":&	c #353C65",
"<&	c #3F4965",
"[&	c #5E8EB9",
"}&	c #5B85AF",
"|&	c #2C3165",
"1&	c #4E5671",
"2&	c #567BA3",
"3&	c #4D6990",
"4&	c #191C64",
"5&	c #4E6587",
"6&	c #435073",
"7&	c #44506E",
"8&	c #7EBCE9",
"9&	c #7DB9E5",
"0&	c #7CB7E4",
"a&	c #74A8D3",
"b&	c #6DA0CA",
"c&	c #7AB4E1",
"d&	c #7CB5E1",
"e&	c #7DB4DD",
"f&	c #6990B5",
"g&	c #303968",
"h&	c #404B6A",
"i&	c #3F4662",
"j&	c #3E4866",
"                                          . + @ # $ % & *                                       ",
"                                          = - ; > , ' ) * !                                     ",
"                                        ~ { ] ^ / ( _ : * *                                     ",
"                                        < [ } | 1 2 3 4 * *                                     ",
"                                        5 6 7 8 9 0 a b * *                                     ",
"                  c     *               d 0 e f g h i j k *               l m   * *             ",
"                n o p q r *             s t u v w g 2 x y * !           z A B C D * E           ",
"              F G H I J K L * *     M N O 8 P Q R S T U V W X * !   Y Z `  ...+.@.#.* !         ",
"            $.%.&.7 *.2 =.-.;.>.,.'.).!.~.{.].^./.{.(.&._.:.<.[.: C }.|.1.2.3. .4.5.6.*         ",
"          $.7.T 8.9.g 0.a.b.c.d.e.f.g.h.i.j.k.l.m.n.Q o.p.q.r.s.t.u.v.a.w.a.x.y.z.A.B.*         ",
"            C.D.(.E.F.G.8 H.2 I.w.J.K.L.M.N.i.O.P.h.Q.R.{.S.T.*.a.U.t 1 V.H.U.3.W.5.X.          ",
"              Y.Z.f w f F.G.`.(.(. +.+++@+#+$+%+j.&+l.*+n.=+u S F.G.8 9 -+} a.;+>+,+!           ",
"              '+)+1 S !+w f G.g 8 ~+{+]+ +^+/+M.(+_+O.k.h.m.R.{.R :+f g (.<+[+}+|+*             ",
"                1+2+8 v S !+f F.G.G.i.3+4+5+6+@+7+$+%+i.8+P.].n./.9+v w g U.0+a+b+              ",
"                  c+d+v R v !+w _+e+f+g+h+i+j+ +++k+M.l+_+j.k.h.m.P Q R 9 m+n+o+*               ",
"                p+q+r+s+{.u v S h+t+u+v+w+$+x+9.G.y+P.z+{+A+i.O.P.].^./.B+0 C+D+* *             ",
"                E+F+G+P /.s+u R i.H+I+J+K+L+M+N+O+P+Q+w.x+#+l+%+j.k.l.x+n.(.R+S+k *             ",
"              T+U+(.m.Q.n.R.y+k.V+W+/.X+Y+Z+`+     @F .@+@~.z+M.N.i.O.P.h.@@} #@$@* *           ",
"              %@&@u *@=@m.^.++-@;@x+>@,@'@            )@!@~@~.@+#+$+%+j.{@w.a.]@^@* *           ",
"              /@8 l.(@l.h.]._@:@<@[@}@|@*                 1@2@l.^+/+M.(+_+3@a.t 4@5@6@7@8@9@*   ",
"    0@a@b@m c@d@!+j.e@k._+*@]+f@F.g@B.*                   h@i@H.j@A+#+7+P.<+H.k@l@m@n@o@p@V 0@q@",
"r@s@t@u@v@w@f v *@_+x@y@z@A@B@C@D@E@F@*                     G@H@I@(.8 =+K+d+V.*.v R G.9 } J@K@L@",
"M@N@Q.&+i.$+#+M.l+l+{+O@O@P@Q@R@S@T@* *                     U@V@k.=+W@0.r+| P l+A+i.O.P.x+S ~@X@",
"Y@Z@#+`@<@ #/+.#+#@##+##$#%#&#L.*#=#* !                     -#;#V+i.7 (.g 7+++>##+l+%+j.k.n.,#'#",
")#!#~#{#]#@#K.^#/#(#_#:#<#[#+# +}#|#* !                     %@1#v F.2#f j@3#]+4#K.L.M.N.O.n.5#0@",
"6#7#8#9#0#a#b#c#d#e#f#g#h#a#i#j#k#l#* *                     m#n#1 f !+4+R@o#3+5+N.P.n.v p#q#r#s#",
"t#u#v#w#x#y#z#A#B#C#D#E#F#G#H#I#J#K#r *                     L#M#8 !+7+N#e+f+`@#+O#P#Q#R#S#T#U#  ",
"      V#W#X#Y#Z#P@`# $c#e#f#.$<#h.+$@$* *                 #$$$%$v =+I+&$*$u+=$i.-$;$$@          ",
"              >$@#,$'$)$!$D#~${$]$Z@^$/$* *               ($_$F.s+]+:$C@<$I+[$l.}$|$*           ",
"              1$2$D#3${#]#4$c#5$/#6$7$8$9$X.*         0$a$b$S n.R.c$d$;@e$f$~#g$h$i$*           ",
"              j$k$l$m$n$,$o$)$!$p$.$q$r$s$t$u$v$v$w$%@x$y$| m.m.h.@#-@z$A$c$B$C$D$*             ",
"                E$F$G$H$I$J${#]#K$c#D#L$M$N$O$P$Q$R$S$m.T$v+&+h.M.U$V$W$B@<$X$Y$Z$*             ",
"                `$ %Q@.%+%@%n$3$#%)$ $d#e#+#@#q$v+z$$%9#&#%%$+P.i+&%I#A#@#*%=%-%* *             ",
"                  ;%:@K$.%.%>%,%J${#'$K$C#D#~$F#G#H#<#_#'%O@#+&+<@)%!%~%{%]%^%/%y * E           ",
"                M@(%{%,%.%.%.%_%@%:%3$#%`# $c#e#f#.$h#^#z@<%l+j.K.z@[%}%|%1%*%2%3%F@*           ",
"              V#4%V$)$.%.%.%.%.%.%+%,%J$,$'$)$!$D#~${$5%6%7%%+_+8%9%0%a%b%!%@#5+c%d%* *         ",
"              e%f%G#.%.%.%.%+%.%.%.%_%@%I$g%{#]#4$c#5$/#%%-@e+A+%+h%|%P@Q@[%)%i%j%k%,+* *       ",
"            6#l%P@.%.%.%.%F#f@l$#%.%.%.%+%m$n$,$o$)$!$p$~$f#m%K.n%o%p%q%r%0%z@b%u+s%t%u%*       ",
"          X#v%A#@%.%.%@%m%w%x%y%F$0% $_%.%z%H$I$J${#]#K$c#i#U$A%B%C%D%E%I+##m%Q@F%G%H%&         ",
"            I%J%a#.%)$K%L%M%N%O%P%Q%R%V$&#~$H$+%@%n$ $P@z$S%T%U%V%    W%X%Y%:@Z%`%x  &          ",
"              .&+&z@@&#&$&%&      &&1$*&=&-&g#.%.%>%+#;&>&,&'&          )&!&~&{&]&^&            ",
"                /&(&_&:&                <&[&[#.%.%.%0%}&|&r *               n 1&                ",
"                  t#                      2&0%.%.%.%|%3&4&*                                     ",
"                                          5&|%.%.%.%@#6&L *                                     ",
"                                          7&8&.%.%n$9&t$i$*                                     ",
"                                          )#0&)$J$D#a&u$* *                                     ",
"                                          `$b&c&d&e&f&g&*                                       ",
"                                          h&Y@i&1$j&`$                                          "};
