/* XPM */
static const char *misc_xpm[] = {
/* columns rows colors const chars-per-pixel */
"16 16 40 1",
". c Black",
", c #D5E5D5",
"5 c #A0ADBB",
"* c #FFFFFF",
"4 c #BCC5CF",
"7 c #F3BCAF",
"w c #798B9F",
"y c #619B61",
"3 c #D8DDE3",
"2 c #BED6BE",
"9 c #B2CEB2",
"X c #020203",
"  c None",
"0 c #71A571",
"p c #F2B7AA",
"8 c #E9846C",
"; c #F3C1B5",
"& c #6C6C6C",
"+ c #A5A1B6",
"r c #E7755B",
"t c #92BB92",
"O c #A8A5B9",
"% c #585375",
"$ c #625B81",
"@ c #888499",
"1 c #9AC09A",
"u c #98A6B5",
"> c #F5C6BB",
"= c #DEDEDE",
"< c #B8D2B8",
"e c #EFA08E",
"6 c #C1CAD2",
": c #F0A797",
"# c #A3A0B5",
"a c #ADCBAD",
"o c #ABA8BB",
"s c #B1BCC7",
"i c #697E93",
"q c #B6C0CB",
"- c #F8DBD4",
/* pixels */
"                ",
" .............. ",
"XoO+++++++++++@.",
".#$$$$$$$$$$$$%.",
".&..............",
".*************=.",
".*************=.",
".*-;:>,<123456=.",
".*;*78<*904*qw=.",
".*:7er19ty5qui=.",
".*>8rp20ya6wis=.",
".*************=.",
".*=============.",
" .............. ",
"                ",
"                "
};
