/* XPM */
static const char *mainicon_xpm[] = {
/* columns rows colors const chars-per-pixel */
"32 32 159 2",
"4  c #76BB2F",
"c. c #71B730",
"A  c #71B732",
".  c #71B733",
"<. c #76BB35",
"}  c #71B736",
"B. c #71B737",
"[  c #4CA135",
"c  c #51A536",
"5. c #39782F",
"-  c #60AE35",
"f. c #5BAA36",
"d. c #6FB730",
"l. c #6FB732",
"{  c #479A34",
"5  c #6FB733",
"@  c #6AB332",
"|  c #6AB333",
"H  c #264C28",
"d  c #4AA135",
"Z  c #79BC36",
"J  c #346E2D",
";  c #59AA36",
"^  c #54A636",
"s. c #68B332",
"t  c #63AF34",
"z  c #72B834",
"3. c #72B835",
"M. c #C9E598",
"w  c #4DA235",
"9  c #4DA236",
",. c #70B82F",
"W  c #5CAB35",
"1. c #5CAB36",
"0  c #244627",
"K  c #32682C",
"e. c #75B935",
">. c #55A735",
":  c #55A736",
"0. c #73B92E",
"B  c #64B035",
"U  c #73B92F",
"x  c #5FAC36",
"6  c #73B932",
"   c None",
"&. c #6EB534",
"1  c #78BA2E",
"o  c #73B937",
"E  c #4EA335",
"`  c #78BA35",
"T  c #4EA336",
" . c #30622B",
"v. c #8BC35C",
"Y  c #5DAC36",
"H. c #6CB530",
"V. c #6CB531",
"%. c #67B132",
"N. c #67B133",
"g  c #449533",
"_  c #76BA34",
"D  c #56A836",
"*. c #51A436",
"G. c #65B132",
"z. c #60AD35",
"p. c #6FB630",
"u. c #6FB631",
"3  c #74BA34",
"X. c #6FB634",
"J. c #ECF5DA",
"r. c #4FA436",
"R  c #4AA035",
"9. c #59A935",
"m  c #428F32",
",  c #59A936",
":. c #6DB632",
"(  c #68B232",
"=  c #68B233",
"o. c #68B234",
"k. c #74B744",
"&  c #77BB30",
"e  c #52A536",
"C. c #61AE34",
"b. c #70BA3A",
"!  c #70B732",
"2  c #75BB33",
"+  c #6BB332",
"N  c #70B736",
"g. c #6BB338",
"G  c #408931",
"D. c #6BB33A",
"y. c #70B73C",
"q  c #4BA135",
"h. c #5AAA35",
"i. c #5AAA36",
".. c #69B332",
"-. c #69B333",
"~  c #69B334",
"n  c #2D5D2B",
"w. c #69B335",
")  c #73B82F",
">  c #53A636",
"7. c #6EB43E",
"t. c #5DAB34",
"p  c #71B831",
"%  c #76BC32",
"$  c #71B833",
"S  c #6CB433",
"*  c #76B92F",
"s  c #4CA235",
"F  c #4CA236",
"b  c #2B572A",
"2. c #5BAB35",
"A. c #6AB430",
"P  c #56A736",
";. c #6AB431",
"I  c #6AB432",
"6. c #65B032",
"8. c #74B92F",
"u  c #74B931",
"Z. c #74B934",
"m. c #74B936",
"8  c #4FA336",
"i  c #96CB5B",
"j. c #72B92D",
"C  c #63B034",
"M  c #5EAC35",
"n. c #6DB52F",
"4. c #6DB530",
"q. c #6DB531",
"O  c #6DB532",
"L  c #295129",
"X  c #72B934",
"=. c #6DB535",
"/  c #37732E",
"k  c #77BA2F",
"Q  c #77BA30",
"S. c #79BA4B",
"l  c #94CB5B",
"a. c #9BCC68",
"v  c #3D8431",
"]  c #57A837",
"@. c #66B132",
"y  c #66B133",
"7  c #66B134",
"'  c #70B631",
"F. c #70B635",
"#  c #75BA36",
"#. c #70B636",
"+. c #70B637",
"h  c #50A436",
"x. c #5FAD34",
"j  c #5FAD35",
"a  c #5FAD36",
"V  c #3B7E30",
"f  c #49A035",
"r  c #58A936",
"O. c #67B232",
"<  c #67B233",
"$. c #67B234",
/* pixels */
"                        . . . . . . .                           ",
"                      X o . O + @ O . # $                       ",
"                % & * = - ; : > > : , - < 1 2 3                 ",
"              4 , , , , , , , , , , , , , , , , 5               ",
"          X 6 7 , , , , 8 9 0 0 0 q w 8 e r t r y u i           ",
"        X p a > , , s d f g 0 0 0 g f f d s h s > j k l         ",
"        z x c q 9 d f v b 0 0 0 0 0 n m f f d f q c M u         ",
"      N B e q f f f V 0 0 0 0 0 0 0 0 0 v f f f f q e C Z       ",
"    A S D F f f f G 0 0 H J 0 0 0 K 0 0 L f f f f f s P I U     ",
"    u Y T d f f f 0 0 0 G f 0 0 0 f J 0 0 G f f f f R E W Q     ",
"  ! ~ ^ q f f f f 0 0 b f f 0 0 0 f m 0 0 / f f f f f q > ( )   ",
"  _ a 8 f f f f f 0 0 n f f 0 0 0 f f 0 0 / f f f f f f T M ` . ",
"  ' ] [ f f f f f 0 0 0 { f 0 0 0 f f G G g f f f f f f q D ) . ",
"} | > d f f f f f  .0 0 b m 0 0 0 f f f f f f f f f f f d e ... ",
"X.o.c R f f f f f G 0 0 0 0 0 0 0 G f f f f f f f f f f R c O.. ",
"+.o.c R f f f f f f V 0 0 0 0 0 0 0 H K g f f f f f f f R c @.. ",
"#.$.c R f f f f f f f G  .0 0 0 0 0 0 0 H m f f f f f f R c %.. ",
"&.$.c R f f f f f f f f f { 0 0 0 H 0 0 0 L f f f f f f R *.@.. ",
"=.-.e d f f f f f f f f f f 0 0 0 f V H 0 0 G f f f f f d e ;.. ",
"  :.: q f f f f f f f f f f 0 0 0 f f / 0 0 / f f f f f q >.,.. ",
"  <.1.9 f f f f / 0 0 f f f 0 0 0 f f G 0 0 / f f f f f w 2.3.. ",
"  4.7 e q f f f 5.0 0 v f f 0 0 0 f f v 0 0 5.f f f f d c 6.7.  ",
"    8., 9 f f f m 0 0 n f f 0 0 0 f f n 0 0 m f f f f w 9.0.    ",
"    q.y > q f f f n 0 0 n m 0 0 0 m  .0 0 n f f f f q e 6.w.    ",
"      e.M h q f f { H 0 0 0 0 0 0 0 0 0 H m f f f d r.t.N       ",
"      y.u.i.8 q f f { n 0 0 0 0 0 0 0 n g f f f d T 9.p.a.      ",
"        s.d.f.h f f f f g 5.0 0 0 V g f f f f g.g.h.j.k.        ",
"          = l.z.[ R f f f f 0 0 0 f f f f g.g.g.x.c.v.          ",
"              b.^ T q R f f 0 0 0 f f f R g.g.n.m.M.            ",
"                N.B.V.C.9.> *.h h *.> g.g.g.Z.A.                ",
"                    S.D.F.V.@.G.G.@.H.g.D.%.                    ",
"                    J.  g.g.g.g.g.g.g.g.g.                      "
};
