/* XPM */
static const char *moneyaccount_xpm[] = {
/* columns rows colors const chars-per-pixel */
"16 16 113 2",
"*  c #99CC94",
"d  c #DDF3D9",
";. c #BBDEB7",
",. c #579C53",
"i  c #5CA058",
"4  c #77B473",
"F  c #7CB878",
"1  c #B7E1B1",
"r  c #9FD798",
"h  c #84C07E",
"`  c #C8E7C3",
")  c #B0DDAA",
"D  c #C8E7C4",
"x  c #95C990",
"U  c #B0DDAB",
"S  c #7FB97A",
"@  c #9ACD94",
"Q  c #84BD7F",
">  c #73B16E",
"N  c #5DA159",
"3  c #A2D89B",
"Y  c #7DB979",
"I  c #87C182",
"|  c #65AC60",
"Z  c #85C17F",
"R  c #C4E4C1",
"w  c #85C180",
"%. c #7BB676",
"m  c #B1DEAB",
"a  c #96CA91",
"t  c #A5D99F",
"<. c #65A660",
"   c None",
"8  c #85BE7F",
"O  c #85BE80",
"X  c #8AC284",
"1. c #6FAE6B",
"c  c #8AC285",
"[  c #599E56",
"g  c #A7D0A4",
"C  c #A8DAA2",
"5  c #B4DFAF",
"#. c #92C78D",
"A  c #83B880",
"{  c #97CB91",
"]  c #6EB869",
"%  c #7CB777",
"y  c #B2DFAC",
"9  c #97CB92",
"-. c #81BB7C",
"u  c #81BB7D",
"X. c #50974C",
",  c #86BF81",
"&. c #559B51",
".  c #8BC386",
"l  c #5A9F56",
"v  c #97C295",
"2  c #A9DBA3",
"T  c #67AE63",
"_  c #76BA72",
"H  c #93C88E",
"}  c #A2D79C",
"<  c #98CC93",
"o. c #4C9448",
"z  c #82BC7D",
"'  c #B5DAB2",
":. c #6CAC67",
">. c #51984E",
"&  c #87C082",
"e  c #A0D799",
"-  c #AADCA3",
"o  c #9BCD96",
"0  c #B6E1B1",
"P  c #83C07E",
"(  c #A3D89D",
"p  c #83BD7E",
"G  c #52994E",
"b  c #DFEEDD",
"+  c #88C183",
":  c #92C68C",
"j  c #B2DEAC",
"!  c #9CCE97",
"=  c #B7E2B2",
"#  c #B7E2B3",
"E  c #BEE0B9",
"2. c #5FA25B",
"O. c #7AB675",
"f  c #F8FCF7",
" . c #B2D8AE",
"M  c #7FBA7B",
"7  c #69AA65",
"W  c #539A4F",
"=. c #539A50",
"J  c #B5DFAF",
"@. c #73B26F",
"/  c #9DD596",
"n  c #87C282",
"~  c #B3DFAD",
"$  c #98CB93",
"K  c #A7DAA1",
"B  c #82BB7D",
"6  c #8CC387",
"*. c #7BB777",
"k  c #80BB7B",
".. c #91C48B",
"q  c #8AC385",
"^  c #74B36F",
";  c #B6E0B0",
"L  c #9ED697",
"s  c #B6E0B1",
"+. c #A0CD9C",
"V  c #94C88F",
"$. c #AFDCAA",
/* pixels */
"                  .             ",
"                X o O           ",
"              + @ # $ %         ",
"            & * = - ; : >       ",
"          , < 1 2 3 4 5 6 7     ",
"        8 9 0 q w e r t y u i   ",
"      p a s d f g h t j k l     ",
"    z x ; c f v b n m M i N     ",
"  B V ; C Z g b A m S l D F G   ",
"k H J K r L P I U Y T D R E W   ",
"Q Q ! ~ ^ / ( ) F _ ` ' ] [     ",
"  k % { m } ) % |  ...X.o.      ",
"  O.+.@.#.$.%.&.*.=.            ",
"    -.;.:.O.>.,.                ",
"    7 <.1.X.                    ",
"      2.                        "
};
