/* XPM */
static char *options_xpm[] = {
/* columns rows colors chars-per-pixel */
"16 16 77 1",
". c Black",
"s c #E8E8E8",
"1 c #4B4B49",
"8 c #4B4B4B",
"C c #8C8B89",
"I c #969696",
"f c #C8C7C2",
"# c #C3C3C3",
"> c #F0F0F0",
"k c #807D74",
"= c #ADADAD",
"P c #BCBCBC",
"6 c #010101",
"H c #DFDEDC",
"l c #E9E9E9",
"J c #65635C",
"e c #BAB9B6",
"U c #090909",
"S c #181816",
", c #E2E2E2",
"@ c #F1F1F1",
"x c #595854",
"V c #6D6B63",
"u c #727270",
"L c #BDBDBD",
"  c None",
"M c #43423F",
"i c #484641",
"R c #93918B",
"5 c #C5C5C5",
"q c #464646",
"b c #76746B",
"; c #5D5D5D",
"% c #A8A8A8",
"t c #0B0B0B",
"c c #605E57",
"d c #565656",
"a c #888781",
"E c #ABA9A3",
"0 c #040404",
"r c #ECECEC",
"$ c #FBFBFB",
": c #404040",
"9 c #0C0C0C",
"F c #E5E5E5",
"v c #898883",
"g c #B6B5AF",
"A c #0A0908",
"N c #282724",
"y c #8C8C8C",
"z c #B9B9B9",
"D c #E6E6E4",
"Z c #21201E",
"m c #E6E6E6",
"W c #5D5C55",
"7 c #585858",
"- c #767676",
"< c #858585",
"& c #314E6C",
"n c #3B5673",
"+ c #C1C1C1",
"w c #060606",
"T c #D5D4D1",
"4 c #EEEEEE",
"o c #FDFDFD",
"j c #97958E",
"Y c #B0AFA9",
"B c #363430",
"* c #595959",
"h c #908E86",
"p c #9F9D96",
"K c #C2C2C2",
"G c #161614",
"2 c #161616",
"O c #E0E0E0",
"3 c #EFEFEF",
"X c #FEFEFE",
/* pixels */
"  .........     ",
" .XXXXXXoO+.    ",
" .X@@@@@@#$%.   ",
" .X&&@**@=-;:.  ",
" .X&&@@@>,<12.  ",
" .X&&3****445.  ",
" .X&&34444466.  ",
" .o&&47890qwe. .",
" .o&&rrtyutipi.a",
" .o&&sd0fgppphjk",
" .o&&llztppxcvkb",
" .o&nm.6ipcMNBpV",
" .o&&m6CgpxZASDk",
" .omFF6wipvBGCHJ",
" .KLLLPIUYkgDTRJ",
"  ......gEpkkbbW"
};
