/* XPM */
static char *payees_xpm[] = {
/* columns rows colors chars-per-pixel */
"16 16 146 2",
"`  c #C99C66",
"{  c #6A6A2B",
"]  c #844240",
"G  c #6D712F",
"=  c #DDA053",
"m. c #5A3464",
"@  c #D8994A",
"b  c #E5AE5C",
"l  c #F9C780",
"A  c #E09B2D",
"g  c #C2893C",
"d  c #DF8E3A",
"x. c #4071AF",
"T  c #D9AC64",
"#. c #8DA7C8",
"B  c #C16404",
"M  c #B68134",
",  c #C16710",
"p. c #5E83B2",
"v  c #E3A23C",
"u. c #3466A4",
"h  c #AF8033",
"7. c #3466A5",
"P  c #E5A255",
"N  c #AF7D2E",
"p  c #EBBC74",
"7  c #C4680A",
"&  c #9F5203",
"/  c #905841",
"S  c #E1A23E",
"(  c #E3A256",
" . c #645370",
"i. c #3263A1",
"-. c #A6ACC4",
"v. c #4172AF",
"+. c #895443",
"[  c #687214",
"u  c #EBAA5B",
"-  c #C49A52",
"0  c #F3BE71",
"   c None",
">. c #596921",
"K  c #6D4A0A",
"8. c #30609D",
"z  c #ECBD74",
"9  c #F6CB8A",
")  c #DDAB5E",
",. c #616B09",
"w  c #815107",
"s. c #3364A2",
"~  c #6A692B",
"e. c #3364A3",
"E  c #B85410",
"e  c #C29142",
"1  c #CC5E01",
"X. c #CC5E04",
"O. c #965435",
"f  c #624F0D",
"j. c #5680B5",
"O  c #A35403",
".  c #864F06",
".. c #8B6B58",
"C  c #E5A746",
"2. c #366BAD",
"H  c #616519",
"Q  c #6E771D",
"z. c #4A78B2",
"$  c #CF9D51",
"L  c #685D14",
"y. c #5981B4",
"y  c #BF6C10",
"5  c #B99355",
"x  c #F0CE99",
"o  c #8E5105",
"6  c #C77D28",
"|  c #8BA6C9",
"<  c #CD5C00",
"%  c #C38F44",
"&. c #B0B6CB",
"4  c #BC8E43",
"f. c #32629E",
"d. c #6B8BB4",
"h. c #32629F",
"F  c #465440",
"k  c #D56402",
"o. c #BA5C11",
"l. c #4F649A",
"5. c #5A85B9",
"<. c #5C3B59",
"i  c #F3C680",
"3  c #CB9A51",
"w. c #5F86B7",
"8  c #E6A251",
"^  c #723C51",
"a. c #3E558E",
"6. c #829FC5",
"2  c #885106",
"}  c #5C3566",
"!  c #868F41",
"V  c #F1BD6F",
"*  c #9E5807",
"%. c #386DB1",
">  c #BC7625",
"=. c #A9A3B9",
"R  c #D08F4A",
"r  c #B88530",
"#  c #D1A55F",
"n. c #55315F",
"t. c #B4C1D3",
"n  c #6C3F3B",
"s  c #EFC075",
"@. c #6087B9",
"$. c #366AAC",
"9. c #3B6EAE",
"b. c #4576B2",
"U  c #E0992A",
";  c #C0934B",
"m  c #815330",
"k. c #547FB5",
"X  c #955104",
"Y  c #E3A340",
"1. c #3467A7",
"j  c #AA7722",
":  c #B98633",
"g. c #3D538B",
"q  c #E8AA5C",
"D  c #DCA552",
"c  c #E6AD54",
"a  c #E6AA4D",
"'  c #90563F",
":. c #3264A1",
"*. c #614D7E",
"t  c #B78940",
"W  c #767B35",
"_  c #DAAE6D",
"4. c #D6DBE3",
"J  c #7E6040",
";. c #3568A8",
"r. c #3568A9",
"0. c #797F37",
"c. c #485F99",
"Z  c #E2B369",
"I  c #ECB868",
"3. c #A0B6D1",
"q. c #6F7131",
"+  c #D16604",
/* pixels */
"        . X o O                 ",
"      + @ # $ % &               ",
"    * = - ; : > , < 1 <         ",
"    2 3 4 5 6 7 8 9 0 q <       ",
"    w e r t y u i p a s d <     ",
"    f g h j k l z x c v b <     ",
"    n m M N B V C Z A S D <     ",
"  F G H J K L P I U Y T R E     ",
"F W Q ! ! ~ ^ / ( ) _ ` ' ]     ",
"F W [ ! { } |  ...X.o.O.+.@.} } ",
"F W [ [ } #.$.%.&.*.=.-.;.:.@.} ",
"F W >.,.<.@.1.2.3.4.5.6.7.8.9.} ",
"F W 0.q.} w.e.1.r.t.y.u.i.i.9.} ",
"  F F F } p.e.a.s.d.i.f.g.h.9.} ",
"        } j.k.l.z.x.x.x.c.v.b.} ",
"        n.} } } } } } } } } } m."
};
