	/* XPM */
static const char * preferences_color_xpm[] = {
"64 64 401 2",
"  	c None",
". 	c #004343",
"+ 	c #006666",
"@ 	c #004949",
"# 	c #005151",
"$ 	c #008080",
"% 	c #005A5A",
"& 	c #8A0000",
"* 	c #0000F1",
"= 	c #0000A9",
"- 	c #CA0000",
"; 	c #FE0000",
"> 	c #9F0000",
", 	c #0000FF",
"' 	c #0000A7",
") 	c #CC0000",
"! 	c #FF0000",
"~ 	c #FD0000",
"{ 	c #9B0000",
"] 	c #0000A4",
"^ 	c #CD0000",
"/ 	c #FC0000",
"( 	c #990000",
"_ 	c #0000A2",
": 	c #D00000",
"< 	c #FA0000",
"[ 	c #960000",
"} 	c #0000F0",
"| 	c #00009F",
"1 	c #D20000",
"2 	c #F90000",
"3 	c #940000",
"4 	c #0000FE",
"5 	c #00009C",
"6 	c #D30000",
"7 	c #F70000",
"8 	c #930000",
"9 	c #00009B",
"0 	c #D60000",
"a 	c #F50000",
"b 	c #5B1E1E",
"c 	c #002B74",
"d 	c #000098",
"e 	c #D70000",
"f 	c #F10101",
"g 	c #404747",
"h 	c #004A84",
"i 	c #0002EC",
"j 	c #0000FD",
"k 	c #000097",
"l 	c #D80000",
"m 	c #EB0303",
"n 	c #3C4A4A",
"o 	c #004A83",
"p 	c #0004EC",
"q 	c #000094",
"r 	c #DA0000",
"s 	c #E80404",
"t 	c #394C4C",
"u 	c #0004EB",
"v 	c #0000FC",
"w 	c #000093",
"x 	c #DC0000",
"y 	c #E50505",
"z 	c #344F4F",
"A 	c #004B83",
"B 	c #000090",
"C 	c #DE0000",
"D 	c #E10606",
"E 	c #305252",
"F 	c #004B82",
"G 	c #0004EA",
"H 	c #0000E4",
"I 	c #DB0000",
"J 	c #DD0606",
"K 	c #2C5555",
"L 	c #0000E9",
"M 	c #DD0000",
"N 	c #D90808",
"O 	c #295858",
"P 	c #004C82",
"Q 	c #0005EA",
"R 	c #DF0000",
"S 	c #D40909",
"T 	c #265B5B",
"U 	c #E20000",
"V 	c #D10A08",
"W 	c #313C4D",
"X 	c #0005E9",
"Y 	c #0000EB",
"Z 	c #E40000",
"` 	c #DC1203",
" .	c #2D0F9B",
"..	c #E70000",
"+.	c #D81403",
"@.	c #2B0F9F",
"#.	c #0000EC",
"$.	c #E90000",
"%.	c #D61603",
"&.	c #270EA6",
"*.	c #914848",
"=.	c #BD5F5F",
"-.	c #BD5E5E",
";.	c #BC5F5F",
">.	c #BC5E5E",
",.	c #BC5D5D",
"'.	c #BB5E5E",
").	c #BB5D5D",
"!.	c #BA5E5E",
"~.	c #A23232",
"{.	c #EA0303",
"].	c #D31007",
"^.	c #69354A",
"/.	c #5E3A65",
"(.	c #5D3A65",
"_.	c #5C3A65",
":.	c #4C315D",
"<.	c #00089A",
"[.	c #0000AD",
"}.	c #0000AE",
"|.	c #0000AF",
"1.	c #0000B0",
"2.	c #0000B1",
"3.	c #0000B2",
"4.	c #0000B3",
"5.	c #0000B4",
"6.	c #0000A8",
"7.	c #00005C",
"8.	c #BF5F5F",
"9.	c #FF8080",
"0.	c #D04E4E",
"a.	c #ED0505",
"b.	c #DB1212",
"c.	c #E56969",
"d.	c #BC725E",
"e.	c #003A4B",
"f.	c #000080",
"g.	c #000067",
"h.	c #CE4B4B",
"i.	c #EF0404",
"j.	c #D91414",
"k.	c #E76C6C",
"l.	c #BB735E",
"m.	c #000066",
"n.	c #C16161",
"o.	c #CC4848",
"p.	c #F10303",
"q.	c #D71515",
"r.	c #E96E6E",
"s.	c #BA735D",
"t.	c #C16060",
"u.	c #CA4545",
"v.	c #F30202",
"w.	c #D51717",
"x.	c #AE6450",
"y.	c #C26161",
"z.	c #C74242",
"A.	c #F50202",
"B.	c #FF0100",
"C.	c #FF2600",
"D.	c #FF4200",
"E.	c #FF1600",
"F.	c #C81612",
"G.	c #143739",
"H.	c #C36262",
"I.	c #C53F3F",
"J.	c #F70101",
"K.	c #FF4F00",
"L.	c #FFE100",
"M.	c #FFFF00",
"N.	c #FFBA00",
"O.	c #FF2200",
"P.	c #BD2603",
"Q.	c #130A65",
"R.	c #000065",
"S.	c #C46363",
"T.	c #C33C3C",
"U.	c #F90101",
"V.	c #FF5000",
"W.	c #FFFF31",
"X.	c #FFFF9E",
"Y.	c #FFFFED",
"Z.	c #FFFFA4",
"`.	c #FFFF38",
" +	c #FFE500",
".+	c #FF1500",
"++	c #B82506",
"@+	c #100967",
"#+	c #C46262",
"$+	c #C13838",
"%+	c #FB0000",
"&+	c #FFE600",
"*+	c #FFFF07",
"=+	c #FFFFE9",
"-+	c #FFFFFF",
";+	c #FFFFF2",
">+	c #FFFF0E",
",+	c #FF9600",
"'+	c #B52806",
")+	c #0D096A",
"!+	c #C66363",
"~+	c #C03535",
"{+	c #FFFF5F",
"]+	c #FFFF6F",
"^+	c #FFD000",
"/+	c #822013",
"(+	c #C66464",
"_+	c #FE7F7F",
":+	c #C03232",
"<+	c #FF1F00",
"[+	c #FFFF52",
"}+	c #FFFF62",
"|+	c #FFCA00",
"1+	c #C51B0C",
"2+	c #15B5B9",
"3+	c #003083",
"4+	c #000064",
"5+	c #FD7F7F",
"6+	c #BF3030",
"7+	c #FFDE00",
"8+	c #FFFF03",
"9+	c #FFFFE1",
"0+	c #FFFFEC",
"a+	c #FFFF08",
"b+	c #FF8C00",
"c+	c #C21C0D",
"d+	c #13CFCF",
"e+	c #00FFFF",
"f+	c #00DDE4",
"g+	c #002C81",
"h+	c #C86464",
"i+	c #FC7E7E",
"j+	c #C02D2D",
"k+	c #FF4000",
"l+	c #FFFD00",
"m+	c #FFFF20",
"n+	c #FFFF86",
"o+	c #FFFFD6",
"p+	c #FFFF8C",
"q+	c #FFFF26",
"r+	c #FFDB00",
"s+	c #FF0D00",
"t+	c #C01B08",
"u+	c #12D0D0",
"v+	c #00D9E1",
"w+	c #002A81",
"x+	c #FB7E7E",
"y+	c #C02A2A",
"z+	c #FF3900",
"A+	c #FFCB00",
"B+	c #FFFE00",
"C+	c #FFF900",
"D+	c #FFA200",
"E+	c #CB120E",
"F+	c #10AC7C",
"G+	c #00D4DD",
"H+	c #002680",
"I+	c #C96464",
"J+	c #F97D7D",
"K+	c #C12828",
"L+	c #FF0F00",
"M+	c #FF2A00",
"N+	c #FF0500",
"O+	c #D51616",
"P+	c #A16549",
"Q+	c #00CF95",
"R+	c #00CFDA",
"S+	c #002380",
"T+	c #C96565",
"U+	c #F77B7B",
"V+	c #C32626",
"W+	c #D41616",
"X+	c #E76D6D",
"Y+	c #AC7956",
"Z+	c #00CBD6",
"`+	c #001F7F",
" @	c #CB6565",
".@	c #F57A7A",
"+@	c #C52424",
"@@	c #D21717",
"#@	c #E86E6E",
"$@	c #AA7A55",
"%@	c #00C7D4",
"&@	c #001C7E",
"*@	c #F37878",
"=@	c #C72222",
"-@	c #D11919",
";@	c #AA7B55",
">@	c #00C2D1",
",@	c #00197D",
"'@	c #000063",
")@	c #8A4545",
"!@	c #A85353",
"~@	c #A85555",
"{@	c #A95656",
"]@	c #AA5555",
"^@	c #A95454",
"/@	c #AB5454",
"(@	c #AB5656",
"_@	c #AC5757",
":@	c #A3574C",
"<@	c #B88236",
"[@	c #CD9A34",
"}@	c #CD9935",
"|@	c #CD9836",
"1@	c #CD9736",
"2@	c #CC9636",
"3@	c #CC9637",
"4@	c #CC9538",
"5@	c #CC9438",
"6@	c #CC9339",
"7@	c #CC923A",
"8@	c #CB923A",
"9@	c #CB913B",
"0@	c #CB903B",
"a@	c #CB8F3C",
"b@	c #CB8F3D",
"c@	c #CA8E3D",
"d@	c #C0833A",
"e@	c #BC230F",
"f@	c #BD180D",
"g@	c #7F753A",
"h@	c #858543",
"i@	c #878543",
"j@	c #888544",
"k@	c #638032",
"l@	c #00BFC9",
"m@	c #001866",
"n@	c #000062",
"o@	c #000061",
"p@	c #00004E",
"q@	c #CDCD00",
"r@	c #EFE900",
"s@	c #CA3B00",
"t@	c #B02700",
"u@	c #0ADC00",
"v@	c #00FF00",
"w@	c #00D5D5",
"x@	c #CCCC00",
"y@	c #EDE600",
"z@	c #CC3700",
"A@	c #AE2800",
"B@	c #09DE00",
"C@	c #00D2D2",
"D@	c #CBCB00",
"E@	c #EAE100",
"F@	c #CE3300",
"G@	c #AA2A00",
"H@	c #08DF00",
"I@	c #00CFCF",
"J@	c #67A700",
"K@	c #07E100",
"L@	c #00CCCC",
"M@	c #C9C900",
"N@	c #6CC100",
"O@	c #00FB00",
"P@	c #00C8C8",
"Q@	c #00C5C5",
"R@	c #999900",
"S@	c #6DC100",
"T@	c #00C1C1",
"U@	c #6EC200",
"V@	c #009C9C",
"W@	c #CECE00",
"X@	c #00CDCD",
"Y@	c #D0D000",
"Z@	c #D1D100",
"`@	c #70C300",
" #	c #00FA00",
".#	c #00CACA",
"+#	c #D4D400",
"@#	c #7AAC00",
"##	c #00C9C9",
"$#	c #D5D500",
"%#	c #A6A600",
"&#	c #00BA00",
"*#	c #00C6C6",
"=#	c #D7D700",
"-#	c #A8A800",
";#	c #00BF00",
">#	c #009A53",
",#	c #00C4C4",
"'#	c #D8D800",
")#	c #00ABAB",
"!#	c #00C3C3",
"~#	c #DADA00",
"{#	c #00AFAF",
"]#	c #DBDB00",
"^#	c #AAAA00",
"/#	c #00B3B3",
"(#	c #00C0C0",
"_#	c #DCDC00",
":#	c #00B7B7",
"<#	c #00BEBE",
"[#	c #DEDE00",
"}#	c #ABAB00",
"|#	c #00BBBB",
"1#	c #00BCBC",
"2#	c #00BABA",
"3#	c #009800",
"4#	c #00CB00",
"                                              . + + + + + + + + + + + + + + + + + @                                             ",
"                                              # $ $ $ $ $ $ $ $ $ $ $ $ $ $ $ $ $ %                                             ",
"                                &             # $ $ $ $ $ $ $ $ $ $ $ $ $ $ $ $ $ %               * =                           ",
"                              - ; >           # $ $ $ $ $ $ $ $ $ $ $ $ $ $ $ $ $ %             * , , '                         ",
"                            ) ! ! ~ {         # $ $ $ $ $ $ $ $ $ $ $ $ $ $ $ $ $ %           * , , , , ]                       ",
"                          ^ ! ! ! ! / (       # $ $ $ $ $ $ $ $ $ $ $ $ $ $ $ $ $ %         * , , , , , , _                     ",
"                        : ! ! ! ! ! ! < [     # $ $ $ $ $ $ $ $ $ $ $ $ $ $ $ $ $ %       } , , , , , , , , |                   ",
"                      1 ! ! ! ! ! ! ! ! 2 3   # $ $ $ $ $ $ $ $ $ $ $ $ $ $ $ $ $ %     } , , , , , , , , , 4 5                 ",
"                    6 ! ! ! ! ! ! ! ! ! ! 7 8 # $ $ $ $ $ $ $ $ $ $ $ $ $ $ $ $ $ %   } , , , , , , , , , , , 4 9               ",
"                  0 ! ! ! ! ! ! ! ! ! ! ! ! a b $ $ $ $ $ $ $ $ $ $ $ $ $ $ $ $ $ c } , , , , , , , , , , , , , 4 d             ",
"                e ! ! ! ! ! ! ! ! ! ! ! ! ! ! f g $ $ $ $ $ $ $ $ $ $ $ $ $ $ $ h i , , , , , , , , , , , , , , , j k           ",
"              l ! ! ! ! ! ! ! ! ! ! ! ! ! ! ! ! m n $ $ $ $ $ $ $ $ $ $ $ $ $ o p , , , , , , , , , , , , , , , , , j q         ",
"            r ! ! ! ! ! ! ! ! ! ! ! ! ! ! ! ! ! ! s t $ $ $ $ $ $ $ $ $ $ $ o u , , , , , , , , , , , , , , , , , , , v w       ",
"          x ! ! ! ! ! ! ! ! ! ! ! ! ! ! ! ! ! ! ! ! y z $ $ $ $ $ $ $ $ $ A u , , , , , , , , , , , , , , , , , , , , , v B     ",
"        C ! ! ! ! ! ! ! ! ! ! ! ! ! ! ! ! ! ! ! ! ! ! D E $ $ $ $ $ $ $ F G , , , , , , , , , , , , , , , , , , , , , , , H     ",
"        I ! ! ! ! ! ! ! ! ! ! ! ! ! ! ! ! ! ! ! ! ! ! ! J K $ $ $ $ $ F G , , , , , , , , , , , , , , , , , , , , , , , L       ",
"          M ! ! ! ! ! ! ! ! ! ! ! ! ! ! ! ! ! ! ! ! ! ! ! N O $ $ $ P Q , , , , , , , , , , , , , , , , , , , , , , , L         ",
"            R ! ! ! ! ! ! ! ! ! ! ! ! ! ! ! ! ! ! ! ! ! ! ! S T $ P Q , , , , , , , , , , , , , , , , , , , , , , , L           ",
"              U ! ! ! ! ! ! ! ! ! ! ! ! ! ! ! ! ! ! ! ! ! ! ! V W X , , , , , , , , , , , , , , , , , , , , , , , Y             ",
"                Z ! ! ! ! ! ! ! ! ! ! ! ! ! ! ! ! ! ! ! ! ! ! ! `  ., , , , , , , , , , , , , , , , , , , , , , Y               ",
"                  ..! ! ! ! ! ! ! ! ! ! ! ! ! ! ! ! ! ! ! ! ! ! ! +.@., , , , , , , , , , , , , , , , , , , , #.                ",
"                    $.! ! ! ! ! ! ! ! ! ! ! ! ! ! ! ! ! ! ! ! ! ! ! %.&., , , , , , , , , , , , , , , , , , #.                  ",
"*.=.-.;.>.,.'.).!.!.~.{.! ! ! ! ! ! ! ! ! ! ! ! ! ! ! ! ! ! ! ! ! ! ! ].^./.(._.:.<.[.[.}.|.1.1.2.3.3.4.5.6.7.                  ",
"8.9.9.9.9.9.9.9.9.9.9.0.a.! ! ! ! ! ! ! ! ! ! ! ! ! ! ! ! ! ! ! ! ! ! ! b.c.9.9.d.e.f.f.f.f.f.f.f.f.f.f.f.f.f.f.f.f.f.f.f.f.f.g.",
"8.9.9.9.9.9.9.9.9.9.9.9.h.i.! ! ! ! ! ! ! ! ! ! ! ! ! ! ! ! ! ! ! ! ! ! ! j.k.9.l.e.f.f.f.f.f.f.f.f.f.f.f.f.f.f.f.f.f.f.f.f.f.m.",
"n.9.9.9.9.9.9.9.9.9.9.9.9.o.p.! ! ! ! ! ! ! ! ! ! ! ! ! ! ! ! ! ! ! ! ! ! ! q.r.s.e.f.f.f.f.f.f.f.f.f.f.f.f.f.f.f.f.f.f.f.f.f.m.",
"t.9.9.9.9.9.9.9.9.9.9.9.9.9.u.v.! ! ! ! ! ! ! ! ! ! ! ! ! ! ! ! ! ! ! ! ! ! ! w.x.e.f.f.f.f.f.f.f.f.f.f.f.f.f.f.f.f.f.f.f.f.f.m.",
"y.9.9.9.9.9.9.9.9.9.9.9.9.9.9.z.A.! ! ! ! ! ! ! ! ! ! ! ! ! B.C.D.E.! ! ! ! ! ! F.G.f.f.f.f.f.f.f.f.f.f.f.f.f.f.f.f.f.f.f.f.f.m.",
"H.9.9.9.9.9.9.9.9.9.9.9.9.9.9.9.I.J.! ! ! ! ! ! ! ! ! ! ! K.L.M.M.M.N.O.! ! ! ! ! P.Q.f.f.f.f.f.f.f.f.f.f.f.f.f.f.f.f.f.f.f.f.R.",
"S.9.9.9.9.9.9.9.9.9.9.9.9.9.9.9.9.T.U.! ! ! ! ! ! ! ! ! V.M.W.X.Y.Z.`. +.+! ! ! ! ! ++@+f.f.f.f.f.f.f.f.f.f.f.f.f.f.f.f.f.f.f.R.",
"#+9.9.9.9.9.9.9.9.9.9.9.9.9.9.9.9.9.$+%+! ! ! ! ! ! ! ! &+*+=+-+-+-+;+>+,+! ! ! ! ! ! '+)+f.f.f.f.f.f.f.f.f.f.f.f.f.f.f.f.f.f.m.",
"!+9.9.9.9.9.9.9.9.9.9.9.9.9.9.9.9.9.9.~+/ ! ! ! ! ! ! C.M.{+-+-+-+-+-+]+^+! ! ! ! ! ! ! /+f.f.f.f.f.f.f.f.f.f.f.f.f.f.f.f.f.f.m.",
"(+9.9.9.9.9.9.9.9.9.9.9.9.9.9.9.9.9.9._+:+~ ! ! ! ! ! <+M.[+-+-+-+-+-+}+|+! ! ! ! ! ! 1+2+3+f.f.f.f.f.f.f.f.f.f.f.f.f.f.f.f.f.4+",
"!+9.9.9.9.9.9.9.9.9.9.9.9.9.9.9.9.9.9.9.5+6+; ! ! ! ! ! 7+8+9+-+-+-+0+a+b+! ! ! ! ! c+d+e+f+g+f.f.f.f.f.f.f.f.f.f.f.f.f.f.f.f.4+",
"h+9.9.9.9.9.9.9.9.9.9.9.9.9.9.9.9.9.9.9.9.i+j+! ! ! ! ! k+l+m+n+o+p+q+r+s+! ! ! ! t+u+e+e+e+v+w+f.f.f.f.f.f.f.f.f.f.f.f.f.f.f.R.",
"h+9.9.9.9.9.9.9.9.9.9.9.9.9.9.9.9.9.9.9.9.9.x+y+! ! ! ! ! z+A+B+M.C+D+.+! ! ! ! E+F+e+e+e+e+e+G+H+f.f.f.f.f.f.f.f.f.f.f.f.f.f.R.",
"I+9.9.9.9.9.9.9.9.9.9.9.9.9.9.9.9.9.9.9.9.9.9.J+K+! ! ! ! ! ! L+M+N+! ! ! ! ! O+P+Q+e+e+e+e+e+e+R+S+f.f.f.f.f.f.f.f.f.f.f.f.f.4+",
"T+9.9.9.9.9.9.9.9.9.9.9.9.9.9.9.9.9.9.9.9.9.9.9.U+V+! ! ! ! ! ! ! ! ! ! ! ! W+X+Y+Q+e+e+e+e+e+e+e+Z+`+f.f.f.f.f.f.f.f.f.f.f.f.4+",
" @9.9.9.9.9.9.9.9.9.9.9.9.9.9.9.9.9.9.9.9.9.9.9.9..@+@! ! ! ! ! ! ! ! ! ! @@#@9.$@Q+e+e+e+e+e+e+e+e+%@&@f.f.f.f.f.f.f.f.f.f.f.4+",
" @9.9.9.9.9.9.9.9.9.9.9.9.9.9.9.9.9.9.9.9.9.9.9.9.9.*@=@! ! ! ! ! ! ! ! -@#@9.9.;@Q+e+e+e+e+e+e+e+e+e+>@,@f.f.f.f.f.f.f.f.f.f.'@",
")@!@~@{@]@^@/@(@_@:@<@[@}@|@1@2@3@4@5@6@7@8@9@0@a@b@c@d@e@! ! ! ! ! ! f@g@h@i@j@k@Q+e+e+e+e+e+e+e+e+e+e+l@m@n@n@o@n@o@'@4+4+R.p@",
"                  q@M.M.M.M.M.M.M.M.M.M.M.M.M.M.M.M.M.M.r@s@! ! ! ! t@u@v@v@v@v@v@Q+e+e+e+e+e+e+e+e+e+e+e+w@                    ",
"                x@M.M.M.M.M.M.M.M.M.M.M.M.M.M.M.M.M.M.M.M.y@z@! ! A@B@v@v@v@v@v@v@Q+e+e+e+e+e+e+e+e+e+e+e+e+C@                  ",
"              D@M.M.M.M.M.M.M.M.M.M.M.M.M.M.M.M.M.M.M.M.M.M.E@F@G@H@v@v@v@v@v@v@v@Q+e+e+e+e+e+e+e+e+e+e+e+e+e+I@                ",
"            D@M.M.M.M.M.M.M.M.M.M.M.M.M.M.M.M.M.M.M.M.M.M.M.M.J@K@v@v@v@v@v@v@v@v@Q+e+e+e+e+e+e+e+e+e+e+e+e+e+e+L@              ",
"          M@M.M.M.M.M.M.M.M.M.M.M.M.M.M.M.M.M.M.M.M.M.M.M.M.N@O@v@v@v@v@v@v@v@v@v@Q+e+e+e+e+e+e+e+e+e+e+e+e+e+e+e+P@            ",
"        M@M.M.M.M.M.M.M.M.M.M.M.M.M.M.M.M.M.M.M.M.M.M.M.M.N@O@v@v@v@v@v@v@v@v@v@v@Q+e+e+e+e+e+e+e+e+e+e+e+e+e+e+e+e+Q@          ",
"      R@M.M.M.M.M.M.M.M.M.M.M.M.M.M.M.M.M.M.M.M.M.M.M.M.S@O@v@v@v@v@v@v@v@v@v@v@v@Q+e+e+e+e+e+e+e+e+e+e+e+e+e+e+e+e+e+T@        ",
"        x@M.M.M.M.M.M.M.M.M.M.M.M.M.M.M.M.M.M.M.M.M.M.U@O@v@v@v@v@v@v@v@v@v@v@v@v@Q+e+e+e+e+e+e+e+e+e+e+e+e+e+e+e+e+e+e+V@      ",
"          W@M.M.M.M.M.M.M.M.M.M.M.M.M.M.M.M.M.M.M.M.U@O@v@v@v@v@v@v@v@v@v@v@v@v@v@Q+e+e+e+e+e+e+e+e+e+e+e+e+e+e+e+e+e+X@        ",
"            Y@M.M.M.M.M.M.M.M.M.M.M.M.M.M.M.M.M.M.U@O@v@v@v@v@v@v@v@v@v@v@v@v@v@v@Q+e+e+e+e+e+e+e+e+e+e+e+e+e+e+e+e+L@          ",
"              Z@M.M.M.M.M.M.M.M.M.M.M.M.M.M.M.M.`@ #v@v@v@v@v@v@v@v@v@v@v@v@v@v@v@Q+e+e+e+e+e+e+e+e+e+e+e+e+e+e+e+.#            ",
"                +#M.M.M.M.M.M.M.M.M.M.M.M.M.M.@# #v@v@v@v@v@v@v@v@v@v@v@v@v@v@v@v@Q+e+e+e+e+e+e+e+e+e+e+e+e+e+e+##              ",
"                  $#M.M.M.M.M.M.M.M.M.M.M.M.%#&#v@v@v@v@v@v@v@v@v@v@v@v@v@v@v@v@v@Q+e+e+e+e+e+e+e+e+e+e+e+e+e+*#                ",
"                    =#M.M.M.M.M.M.M.M.M.M.-#  ;#v@v@v@v@v@v@v@v@v@v@v@v@v@v@v@v@v@>#e+e+e+e+e+e+e+e+e+e+e+e+,#                  ",
"                      '#M.M.M.M.M.M.M.M.-#    ;#v@v@v@v@v@v@v@v@v@v@v@v@v@v@v@v@v@  )#e+e+e+e+e+e+e+e+e+e+!#                    ",
"                        ~#M.M.M.M.M.M.-#      ;#v@v@v@v@v@v@v@v@v@v@v@v@v@v@v@v@v@    {#e+e+e+e+e+e+e+e+T@                      ",
"                          ]#M.M.M.M.^#        ;#v@v@v@v@v@v@v@v@v@v@v@v@v@v@v@v@v@      /#e+e+e+e+e+e+(#                        ",
"                            _#M.M.^#          ;#v@v@v@v@v@v@v@v@v@v@v@v@v@v@v@v@v@        :#e+e+e+e+<#                          ",
"                              [#}#            ;#v@v@v@v@v@v@v@v@v@v@v@v@v@v@v@v@v@          |#e+e+1#                            ",
"                                              ;#v@v@v@v@v@v@v@v@v@v@v@v@v@v@v@v@v@            (#2#                              ",
"                                              ;#v@v@v@v@v@v@v@v@v@v@v@v@v@v@v@v@v@                                              ",
"                                              ;#v@v@v@v@v@v@v@v@v@v@v@v@v@v@v@v@v@                                              ",
"                                              3#4#4#4#4#4#4#4#4#4#4#4#4#4#4#4#4#4#                                              "};
