/* XPM */
static const char * preferences_other_xpm[] = {
"48 48 635 2",
"  	c None",
". 	c #8D908A",
"+ 	c #8E918C",
"@ 	c #8F908B",
"# 	c #8F928C",
"$ 	c #ADB0A9",
"% 	c #999B95",
"& 	c #ACAEA9",
"* 	c #D08839",
"= 	c #D59249",
"- 	c #D48F45",
"; 	c #CF8538",
"> 	c #B6BAB3",
", 	c #DADBD7",
"' 	c #989B96",
") 	c #EEEEEC",
"! 	c #969893",
"~ 	c #D28A3C",
"{ 	c #E2B576",
"] 	c #EBBD63",
"^ 	c #D09A43",
"/ 	c #DF9943",
"( 	c #CF8132",
"_ 	c #91948E",
": 	c #DBDDD9",
"< 	c #DDDFDB",
"[ 	c #979994",
"} 	c #FDFDFD",
"| 	c #C8CBC6",
"1 	c #DFAE68",
"2 	c #EECC7B",
"3 	c #D7A03F",
"4 	c #B57B2B",
"5 	c #E28D2F",
"6 	c #D17F2F",
"7 	c #91948F",
"8 	c #D9DBD7",
"9 	c #DCDEDA",
"0 	c #8E928D",
"a 	c #969892",
"b 	c #F6F6F5",
"c 	c #EDEEED",
"d 	c #8C908B",
"e 	c #D38E42",
"f 	c #F0D595",
"g 	c #E9B54D",
"h 	c #B07D2E",
"i 	c #DA8C2D",
"j 	c #D77F27",
"k 	c #BF7226",
"l 	c #9A9C97",
"m 	c #D9DAD6",
"n 	c #DDDEDB",
"o 	c #B1B2AF",
"p 	c #F5F5F4",
"q 	c #F7F8F7",
"r 	c #91938E",
"s 	c #E5BF81",
"t 	c #EEC974",
"u 	c #D0993B",
"v 	c #BC7E2C",
"w 	c #E18828",
"x 	c #C17426",
"y 	c #C87426",
"z 	c #8C8E88",
"A 	c #90928E",
"B 	c #D2D3CF",
"C 	c #DFE1DE",
"D 	c #BDBFBB",
"E 	c #9D9F9A",
"F 	c #AAADA8",
"G 	c #D4D5D2",
"H 	c #F6F7F6",
"I 	c #F4F5F3",
"J 	c #F4F5F4",
"K 	c #8D8F89",
"L 	c #D5954D",
"M 	c #F2DA9F",
"N 	c #E6B14A",
"O 	c #AA772B",
"P 	c #DE8E2D",
"Q 	c #D27B24",
"R 	c #C67629",
"S 	c #C77121",
"T 	c #939590",
"U 	c #C4C5C3",
"V 	c #DBDCDA",
"W 	c #8C8F89",
"X 	c #C9CCC7",
"Y 	c #D6D8D3",
"Z 	c #D5D6D2",
"` 	c #E4E5E2",
" .	c #EFF0EE",
"..	c #F1F2F1",
"+.	c #F1F1F0",
"@.	c #F3F3F2",
"#.	c #FCFCFC",
"$.	c #C6C7C3",
"%.	c #D08736",
"&.	c #EDCE98",
"*.	c #EDC56D",
"=.	c #C89238",
"-.	c #C3822C",
";.	c #E08727",
">.	c #C2772D",
",.	c #C57123",
"'.	c #9A9B97",
").	c #FFFFFF",
"!.	c #FDFDFC",
"~.	c #C6C7C5",
"{.	c #929590",
"].	c #DADCD8",
"^.	c #E7E8E5",
"/.	c #DEDFDC",
"(.	c #E5E6E4",
"_.	c #ECEDEB",
":.	c #F4F4F3",
"<.	c #FAFAFA",
"[.	c #F1F2F0",
"}.	c #8F908A",
"|.	c #D89C59",
"1.	c #F3DCA1",
"2.	c #E3AD47",
"3.	c #AB772B",
"4.	c #E28E2C",
"5.	c #CD7A27",
"6.	c #C7782C",
"7.	c #949793",
"8.	c #FBFBFB",
"9.	c #FAFAF9",
"0.	c #F7F7F6",
"a.	c #9EA09C",
"b.	c #8E908B",
"c.	c #BABCB9",
"d.	c #E9EBE9",
"e.	c #EEF0ED",
"f.	c #D4D7D1",
"g.	c #E1E1DF",
"h.	c #D08635",
"i.	c #F0D8A7",
"j.	c #EBBF63",
"k.	c #C18B35",
"l.	c #CB852D",
"m.	c #DD8325",
"n.	c #C37A32",
"o.	c #C56C1F",
"p.	c #EBEBEA",
"q.	c #F2F3F2",
"r.	c #E7E8E7",
"s.	c #9B9D97",
"t.	c #E7E9E5",
"u.	c #CDD0C9",
"v.	c #C9CDC5",
"w.	c #C8CCC4",
"x.	c #E3E5E1",
"y.	c #8F918B",
"z.	c #A1A1A1",
"A.	c #D2D2D2",
"B.	c #D4D4D4",
"C.	c #CFCFCF",
"D.	c #9D9D9D",
"E.	c #D9A261",
"F.	c #F2D897",
"G.	c #DFA743",
"H.	c #AE782B",
"I.	c #E28C2B",
"J.	c #C97A2A",
"K.	c #C77629",
"L.	c #C7C7C4",
"M.	c #F2F2F1",
"N.	c #EDEEEC",
"O.	c #C0C1BD",
"P.	c #D7DAD4",
"Q.	c #BABEB6",
"R.	c #B7BAB3",
"S.	c #E1E2DF",
"T.	c #969795",
"U.	c #C4C4C4",
"V.	c #F3F3F3",
"W.	c #AAAAAA",
"X.	c #9C9C9C",
"Y.	c #CD8236",
"Z.	c #F0D6A0",
"`.	c #EABB5A",
" +	c #B98531",
".+	c #D1892E",
"++	c #BC864C",
"@+	c #988D7D",
"#+	c #B86C2B",
"$+	c #979894",
"%+	c #F0F1F0",
"&+	c #F9F9F9",
"*+	c #DCDCDA",
"=+	c #8E8F8A",
"-+	c #90928D",
";+	c #E1E3DF",
">+	c #AAACA6",
",+	c #9FA29B",
"'+	c #A6A6A5",
")+	c #C4C4C3",
"!+	c #E1E1E1",
"~+	c #9F9F9F",
"{+	c #9A9A9A",
"]+	c #D1D1D1",
"^+	c #F1F1F1",
"/+	c #BABABA",
"(+	c #A7A7A7",
"_+	c #E4E4E4",
":+	c #B4B4B4",
"<+	c #9B9B9B",
"[+	c #DBA666",
"}+	c #F0D288",
"|+	c #DAA23F",
"1+	c #AB7D3E",
"2+	c #9D9585",
"3+	c #C0C1BA",
"4+	c #9E9D94",
"5+	c #92948F",
"6+	c #E3E4E1",
"7+	c #8D8F8B",
"8+	c #C1C4BE",
"9+	c #A4A6A2",
"0+	c #C6C6C6",
"a+	c #F0F0F0",
"b+	c #E9E9E9",
"c+	c #E6E6E6",
"d+	c #D7D7D7",
"e+	c #DBDBDB",
"f+	c #ECECEC",
"g+	c #E2E2E2",
"h+	c #EDEDED",
"i+	c #989898",
"j+	c #CC8135",
"k+	c #EFD495",
"l+	c #E9B752",
"m+	c #AE823E",
"n+	c #A39F94",
"o+	c #E5E6E3",
"p+	c #9D8369",
"q+	c #A8A9A5",
"r+	c #B8BBB5",
"s+	c #929490",
"t+	c #A2A2A1",
"u+	c #BEBFBE",
"v+	c #EEEEEE",
"w+	c #CECECE",
"x+	c #A9A9A9",
"y+	c #AEAEAE",
"z+	c #BCBCBC",
"A+	c #ACACAC",
"B+	c #D9D9D9",
"C+	c #ADADAD",
"D+	c #D08B46",
"E+	c #ECC66C",
"F+	c #E1A846",
"G+	c #A19E91",
"H+	c #F8F8F7",
"I+	c #A39F95",
"J+	c #91938D",
"K+	c #949693",
"L+	c #DCDEDB",
"M+	c #8F918C",
"N+	c #81847F",
"O+	c #A4A4A3",
"P+	c #CCCCCC",
"Q+	c #B7B7B7",
"R+	c #BEBEBE",
"S+	c #DDDDDD",
"T+	c #E0E0E0",
"U+	c #DADADA",
"V+	c #B6B6B6",
"W+	c #C1C1C1",
"X+	c #EBEBEB",
"Y+	c #B9B9B9",
"Z+	c #D2924E",
"`+	c #A68E5C",
" @	c #877C63",
".@	c #E9EAE7",
"+@	c #E2E3DF",
"@@	c #A07E5C",
"#@	c #A7AAA4",
"$@	c #B3B5B1",
"%@	c #AFB2AC",
"&@	c #8D8F88",
"*@	c #848682",
"=@	c #B7B9B6",
"-@	c #DCDCDC",
";@	c #DFDFDF",
">@	c #CBCBCB",
",@	c #959595",
"'@	c #A9723D",
")@	c #BAB9B3",
"!@	c #9EA09B",
"~@	c #F9FAF9",
"{@	c #D1D0CB",
"]@	c #E3E5E2",
"^@	c #959793",
"/@	c #959692",
"(@	c #F0F0EF",
"_@	c #A69784",
":@	c #9B9B99",
"<@	c #C3C3C3",
"[@	c #CACACA",
"}@	c #BDBDBD",
"|@	c #98938D",
"1@	c #A19688",
"2@	c #8B8882",
"3@	c #EAEAE9",
"4@	c #8E8F88",
"5@	c #FAFBFA",
"6@	c #999B96",
"7@	c #C8CAC6",
"8@	c #C1C0BC",
"9@	c #A9ABA4",
"0@	c #9F9685",
"a@	c #A99881",
"b@	c #989795",
"c@	c #E8E8E8",
"d@	c #C7C6C6",
"e@	c #959491",
"f@	c #989288",
"g@	c #97938B",
"h@	c #999795",
"i@	c #D5D5D5",
"j@	c #C7C7C7",
"k@	c #969696",
"l@	c #C1C2BE",
"m@	c #888983",
"n@	c #F3F4F3",
"o@	c #F0F1EF",
"p@	c #AEAFAA",
"q@	c #91928D",
"r@	c #989C96",
"s@	c #E0E1DE",
"t@	c #9F9D94",
"u@	c #C9CBC6",
"v@	c #878780",
"w@	c #8D7E6B",
"x@	c #BBBBBB",
"y@	c #E5E5E5",
"z@	c #C5C5C5",
"A@	c #949390",
"B@	c #7C6C54",
"C@	c #7A684E",
"D@	c #7E715E",
"E@	c #A5A4A2",
"F@	c #C9C9C9",
"G@	c #81817D",
"H@	c #BBBCB9",
"I@	c #D3D6D0",
"J@	c #EFF1EF",
"K@	c #E8E9E7",
"L@	c #EAEBE9",
"M@	c #CED0CB",
"N@	c #CED0CC",
"O@	c #B7996E",
"P@	c #C6BAA8",
"Q@	c #C8C8C4",
"R@	c #DFDFDD",
"S@	c #95968F",
"T@	c #877E70",
"U@	c #BAB9B9",
"V@	c #D8D8D8",
"W@	c #8C877F",
"X@	c #7C6A4F",
"Y@	c #7B684E",
"Z@	c #7A684D",
"`@	c #8D8B88",
" #	c #CDCDCD",
".#	c #A0A0A0",
"+#	c #D0D1CF",
"@#	c #BCC0B8",
"##	c #D4D6D1",
"$#	c #ECEDEC",
"%#	c #CDCFCA",
"&#	c #D7D9D4",
"*#	c #C1A783",
"=#	c #D8C4A6",
"-#	c #95948C",
";#	c #E0E0DF",
">#	c #A7A9A4",
",#	c #797872",
"'#	c #B9B8B8",
")#	c #E3E3E3",
"!#	c #806E54",
"~#	c #7D6B52",
"{#	c #7A6950",
"]#	c #7D6C55",
"^#	c #908F8D",
"/#	c #D3D3D3",
"(#	c #9C9C9B",
"_#	c #AFB1AF",
":#	c #C0C3BC",
"<#	c #CCCFC9",
"[#	c #ECEDEA",
"}#	c #EAEBE8",
"|#	c #D0D2CE",
"1#	c #AD8C60",
"2#	c #D5C1A6",
"3#	c #BCA380",
"4#	c #897C68",
"5#	c #BABAB7",
"6#	c #B3B5B3",
"7#	c #747472",
"8#	c #ACACAB",
"9#	c #D6D6D6",
"0#	c #A09F9D",
"a#	c #8B8174",
"b#	c #8A785E",
"c#	c #897860",
"d#	c #8B847C",
"e#	c #B6B5B5",
"f#	c #90918E",
"g#	c #979A93",
"h#	c #ABAFA8",
"i#	c #C9CBC5",
"j#	c #B7B8B2",
"k#	c #92938B",
"l#	c #B2926A",
"m#	c #D4C0A4",
"n#	c #9B8262",
"o#	c #887053",
"p#	c #81807A",
"q#	c #7F807D",
"r#	c #838381",
"s#	c #8E8C8A",
"t#	c #959492",
"u#	c #DEDEDE",
"v#	c #B5B5B4",
"w#	c #908F8C",
"x#	c #959391",
"y#	c #8E8E8D",
"z#	c #8E8E8E",
"A#	c #878886",
"B#	c #81837E",
"C#	c #C6C8C4",
"D#	c #8C8C84",
"E#	c #BFB29F",
"F#	c #AA885C",
"G#	c #A78558",
"H#	c #C8B090",
"I#	c #CAB18F",
"J#	c #978063",
"K#	c #937D60",
"L#	c #8C816D",
"M#	c #AAA69B",
"N#	c #A4A097",
"O#	c #7E7A6E",
"P#	c #9C8C73",
"Q#	c #9A9183",
"R#	c #B8B3AC",
"S#	c #C8C2BB",
"T#	c #CBC6BF",
"U#	c #C1BCB5",
"V#	c #C1BBB4",
"W#	c #C1BDB6",
"X#	c #C2BDB5",
"Y#	c #C2BDB6",
"Z#	c #C3BEB6",
"`#	c #C5C1BA",
" $	c #CFCBC3",
".$	c #CBC7BE",
"+$	c #ADA9A1",
"@$	c #A9A49C",
"#$	c #A4A197",
"$$	c #948F86",
"%$	c #959186",
"&$	c #B7B3A8",
"*$	c #B9B6AA",
"=$	c #958D7E",
"-$	c #988466",
";$	c #C8B190",
">$	c #C0A480",
",$	c #BDA076",
"'$	c #DBC7A8",
")$	c #DBC299",
"!$	c #DCC49C",
"~$	c #DDC69F",
"{$	c #DEC7A2",
"]$	c #DFC9A5",
"^$	c #E0CBA8",
"/$	c #E1CDAB",
"($	c #E2CFAE",
"_$	c #E1CDAC",
":$	c #E0CCA9",
"<$	c #DFCAA6",
"[$	c #DEC8A3",
"}$	c #DDC7A0",
"|$	c #DCC59E",
"1$	c #DBC39B",
"2$	c #DAC199",
"3$	c #D7C19F",
"4$	c #BC9D73",
"5$	c #E3D0B2",
"6$	c #DAC197",
"7$	c #DAC096",
"8$	c #D9C096",
"9$	c #DBC49C",
"0$	c #DCC7A6",
"a$	c #B99B70",
"b$	c #E0CDAE",
"c$	c #D7BE94",
"d$	c #D7BE93",
"e$	c #D7BD93",
"f$	c #D6BD93",
"g$	c #D9C29B",
"h$	c #D9C4A2",
"i$	c #B6986E",
"j$	c #DDCAA9",
"k$	c #D4BB90",
"l$	c #D4BA90",
"m$	c #D3BA90",
"n$	c #D6BF97",
"o$	c #D6C19F",
"p$	c #B3956B",
"q$	c #DAC6A5",
"r$	c #D1B78D",
"s$	c #D0B78D",
"t$	c #D0B78C",
"u$	c #D3BB93",
"v$	c #D3BE9B",
"w$	c #B0926A",
"x$	c #D7C2A1",
"y$	c #CEB48A",
"z$	c #CDB48A",
"A$	c #CDB489",
"B$	c #CDB389",
"C$	c #D0B790",
"D$	c #D0BA97",
"E$	c #AE9168",
"F$	c #D4BF9D",
"G$	c #CBB187",
"H$	c #CAB187",
"I$	c #CAB186",
"J$	c #CAB086",
"K$	c #CDB48D",
"L$	c #CDB793",
"M$	c #AA8E65",
"N$	c #D0BB99",
"O$	c #C8AE84",
"P$	c #C8AE83",
"Q$	c #C7AE83",
"R$	c #C7AD83",
"S$	c #CAB189",
"T$	c #CAB38F",
"U$	c #A98B62",
"V$	c #CDB794",
"W$	c #C5AB81",
"X$	c #C5AB80",
"Y$	c #C4AB80",
"Z$	c #C4AA80",
"`$	c #C7AE86",
" %	c #C6B08B",
".%	c #A68861",
"+%	c #CAB48F",
"@%	c #C2A87D",
"#%	c #C1A87D",
"$%	c #C1A77D",
"%%	c #C1A77C",
"&%	c #C4AB82",
"*%	c #C4AC87",
"=%	c #A3865F",
"-%	c #BFA57A",
";%	c #BFA47A",
">%	c #BEA47A",
",%	c #BEA479",
"'%	c #C1A87E",
")%	c #C0A883",
"!%	c #A0835C",
"~%	c #C2AC86",
"{%	c #BCA177",
"]%	c #BBA177",
"^%	c #BBA176",
"/%	c #BDA47B",
"(%	c #BDA47E",
"_%	c #9D825B",
":%	c #BFA782",
"<%	c #B99E74",
"[%	c #B89E74",
"}%	c #B89E73",
"|%	c #BAA177",
"1%	c #B9A07B",
"2%	c #9B7D58",
"3%	c #BBA37D",
"4%	c #B69B71",
"5%	c #B69B70",
"6%	c #B59B70",
"7%	c #B59A70",
"8%	c #B79D74",
"9%	c #B69C76",
"0%	c #987C55",
"a%	c #B79E78",
"b%	c #B3986D",
"c%	c #B2986D",
"d%	c #B2976D",
"e%	c #B49970",
"f%	c #B29971",
"g%	c #937852",
"h%	c #B39A73",
"i%	c #B0956A",
"j%	c #AF956A",
"k%	c #AF946A",
"l%	c #AF9469",
"m%	c #B0966C",
"n%	c #AE946D",
"o%	c #8A6F4D",
"p%	c #AF956D",
"q%	c #AD9267",
"r%	c #AC9267",
"s%	c #AC9167",
"t%	c #AC9166",
"u%	c #AD9368",
"v%	c #AA9068",
"w%	c #826A48",
"x%	c #AB9268",
"y%	c #AA8F64",
"z%	c #A98F64",
"A%	c #A98E64",
"B%	c #A98E63",
"C%	c #AA8F65",
"D%	c #A78D63",
"E%	c #7E6443",
"F%	c #A88D63",
"G%	c #A78C61",
"H%	c #A68B60",
"I%	c #A38960",
"J%	c #644F36",
"K%	c #765F3F",
"L%	c #A0855C",
"M%	c #A58A60",
"N%	c #9A8157",
"O%	c #776040",
"P%	c #786140",
"Q%	c #796140",
"R%	c #776140",
"                .           + @                                                                 ",
"              # $           % &                                                 * = - ;         ",
"              > ,           ' ) !                                             ~ { ] ^ / (       ",
"            _ : < +         [ } |                                             1 2 3 4 5 6       ",
"            7 8 9 0         a b c d                                         e f g h i j k       ",
"            l m n +         o p q r                                         s t u v w x y       ",
"        z   A : B C D E F G H I J K                                       L M N O P Q R S       ",
"    T U V W   X Y Z `  ...+.@.#.$.                                      %.&.*.=.-.;.>.,.        ",
"    '.).!.~.  {.].^./.(._.:.<.[.}.                                      |.1.2.3.4.5.6.          ",
"    7.8.9.0.a.  b.c.[.d.e.e.f.g.@                                     h.i.j.k.l.m.n.o.          ",
"      p.#.q.r..     s.t.u.v.w.x.y.      z.A.B.B.C.D.                  E.F.G.H.I.J.K.            ",
"      L.).M.N..       O.P.Q.R.S.T.D.    U.V.V.V.V.W.    X.          Y.Z.`. +.+++@+#+            ",
"      $+%+&+*+=+      -+;+>+,+'+)+!+~+{+]+^+^+^+^+/+{+(+_+:+<+      [+}+|+1+2+3+4+              ",
"        5+r.6+T       7+8+9+T.0+a+a+b+c+a+b+d+e+f+a+g+h+a+a+:+i+  j+k+l+m+n+) o+p+              ",
"          q+J r+.       s+t+u+v+v+v+v+w+x+y+z+/+A+A+B+v+v+v+v+C+  D+E+F+G+:.H+I+          # J+  ",
"          K+p.L+M+      N+O+P+f+f+c+Q+R+S+T+T+T+T+U+V+W+X+f+f+Y+  Z+`+ @.@q.+@@@          #@T   ",
"            $@+.%@&@    *@=@i+-@X+R+w+;@;@;@;@;@;@;@;@U.>@X+>@,@  '@)@!@~@J {@          A ]@^@  ",
"            /@(@Y }.    _@:@<+e+B.<@S+S+S+T+[@C.T+S+S+-@}@;@0+|@1@2@3@4@5@I J 6@        7@_.[   ",
"              8@N.9@0@a@b@U.P+c@W+U+-@-@d@e@f@g@h@B.-@-@i@P+c+j@W+k@l@m@n@b o@n@p@q@y.r@s@< -+  ",
"              t@^+u@v@w@x@c+c+y@z@U+U+S+A@B@C@C@D@E@e+U+B+F@c+c+c+(+G@H@I@J@c K@N.L@S.S.M@N@    ",
"            O@P@Q@R@S@T@U@_+_+;@C.V@V@P+W@X@Y@Z@C@`@V@V@V@ #_+_+_+.#@ +#@###$#L@s@Y %#B &#J+    ",
"            *#=#-#;#>#,#'#)#)#!+A.d+d+i@`@!#~#{#]#^#U+d+d+/#)#)#)#(#_#>+%@:#<#[#+.}#6+|#y.      ",
"          1#2#3#4#5#6#7#8#!+!+!+d+9#9#d+0#a#b#c#d#e#9#9#9#e+!+!+!+i+f#g#h#i#< j#k#q@J+          ",
"          l#m#n#o#p#/+q#r#s#t#S+u#d+i@i@/#v#w#x#}@i@i@i@-@T+/#y#z#A#B#! C#N@D#E#F#              ",
"        G#H#I#J#K#L#M#N#O#P#Q#R#S#T#U#V#V#V#U#W#X#Y#Z#`# $.$+$@$#$$$%$&$*$=$-$;$>$              ",
"        ,$'$)$!$~${$]$^$/$($($($($($($($($($($($($($($($($($($($_$:$<$[$}$|$1$2$3$              ",
"        4$5$6$6$6$6$6$6$6$6$6$6$6$6$6$7$7$7$8$8$8$8$8$8$8$8$8$8$8$8$8$8$8$8$8$9$0$              ",
"        a$b$c$c$c$d$d$d$e$e$e$e$e$e$e$e$e$f$f$f$f$f$f$f$f$f$f$f$f$f$f$f$f$f$f$g$h$              ",
"        i$j$k$k$k$l$l$l$l$l$l$l$l$l$l$l$l$m$m$m$m$m$m$m$m$m$m$m$m$m$m$m$m$m$m$n$o$              ",
"        p$q$r$r$r$r$r$r$r$r$r$r$r$r$s$s$s$s$s$s$s$s$s$s$s$s$s$s$s$s$s$t$t$t$t$u$v$              ",
"        w$x$y$y$y$y$y$y$y$y$y$y$y$z$z$z$z$z$z$z$z$z$A$A$A$A$A$A$A$A$A$A$A$A$B$C$D$              ",
"        E$F$G$G$G$G$G$G$G$G$G$G$G$H$H$H$I$I$I$I$I$I$I$I$I$I$I$I$J$J$J$J$J$J$J$K$L$              ",
"        M$N$O$O$O$O$O$O$O$P$P$P$Q$Q$Q$Q$Q$Q$Q$Q$Q$Q$Q$Q$R$R$R$R$R$R$R$R$R$R$R$S$T$              ",
"        U$V$W$X$X$X$X$X$X$X$X$X$Y$Y$Y$Y$Y$Y$Z$Z$Z$Z$Z$Z$Z$Z$Z$Z$Z$Z$Z$Z$Z$Z$Z$`$ %              ",
"        .%+%@%@%@%@%@%@%@%@%@%@%#%#%#%$%$%$%$%$%$%$%$%$%$%$%$%$%$%$%$%$%%%%%%%&%*%              ",
"        =% %-%-%-%-%-%-%;%;%;%>%>%>%>%>%>%>%>%>%>%>%>%>%>%>%,%,%,%,%,%,%,%,%,%'%)%              ",
"        !%~%{%{%{%{%{%{%{%{%{%]%]%]%]%]%]%]%]%]%^%^%^%^%^%^%^%^%^%^%^%^%^%^%^%/%(%              ",
"        _%:%<%<%<%<%<%<%<%<%[%[%[%}%}%}%}%}%}%}%}%}%}%}%}%}%}%}%}%}%}%}%}%}%}%|%1%              ",
"        2%3%4%4%5%5%5%5%5%5%6%6%6%6%6%6%6%6%6%6%6%6%6%6%6%6%6%6%6%6%6%6%6%6%7%8%9%              ",
"        0%a%b%b%b%b%b%b%b%b%c%c%c%c%c%c%c%c%c%c%c%c%c%c%c%c%c%d%d%d%d%d%d%d%d%e%f%              ",
"        g%h%i%i%i%i%i%i%i%j%j%j%j%j%j%j%j%j%j%j%j%j%j%j%k%k%k%k%k%k%l%l%l%l%l%m%n%              ",
"        o%p%q%q%q%q%q%q%q%r%r%r%r%r%r%r%r%r%s%s%s%s%s%s%t%t%t%t%t%t%t%t%t%t%t%u%v%              ",
"        w%x%y%y%y%y%y%y%z%z%z%A%A%A%B%B%B%B%B%B%B%B%B%B%B%B%B%B%B%B%B%B%B%B%B%C%D%              ",
"        E%F%G%G%G%G%G%G%H%H%H%H%H%H%H%H%H%H%H%H%H%H%H%H%H%H%H%H%H%H%H%H%H%H%H%G%I%J%            ",
"        K%L%M%M%M%M%M%M%M%M%M%M%M%M%M%M%M%M%M%M%M%M%M%M%M%M%M%M%M%M%M%M%M%M%M%M%N%              ",
"          O%P%Q%Q%Q%Q%Q%Q%Q%Q%Q%Q%Q%Q%Q%Q%Q%Q%Q%Q%Q%Q%Q%Q%Q%Q%Q%Q%Q%Q%Q%Q%Q%Q%R%K%              ",
"                                                                                                ",
"                                                                                                "};
