/* XPM */
static const char * preferences_color_xpm[] = {
"48 48 285 2",
"  	c None",
". 	c #006A6A",
"+ 	c #008080",
"@ 	c #0000AA",
"# 	c #B50000",
"$ 	c #E00000",
"% 	c #0000EA",
"& 	c #0000FF",
"* 	c #0000B1",
"= 	c #FF0000",
"- 	c #DE0000",
"; 	c #0000E9",
"> 	c #B60000",
", 	c #DD0000",
"' 	c #0000B0",
") 	c #B70000",
"! 	c #DA0000",
"~ 	c #0000AF",
"{ 	c #D70000",
"] 	c #243939",
"^ 	c #0000E8",
"/ 	c #0000FE",
"( 	c #B80000",
"_ 	c #C40707",
": 	c #0F6F6F",
"< 	c #005F85",
"[ 	c #0002E5",
"} 	c #0000AD",
"| 	c #B90000",
"1 	c #AB1818",
"2 	c #0C7171",
"3 	c #005F84",
"4 	c #000BE0",
"5 	c #BA0000",
"6 	c #A51919",
"7 	c #0A7373",
"8 	c #000BDF",
"9 	c #0000AC",
"0 	c #BB0000",
"a 	c #A01C1C",
"b 	c #097474",
"c 	c #0000A4",
"d 	c #ED0000",
"e 	c #9B1D1D",
"f 	c #077676",
"g 	c #006084",
"h 	c #000BDE",
"i 	c #0000E4",
"j 	c #EE0000",
"k 	c #941F1F",
"l 	c #057878",
"m 	c #000BDD",
"n 	c #EF0000",
"o 	c #8E2121",
"p 	c #045A7B",
"q 	c #0000E5",
"r 	c #F00000",
"s 	c #A72513",
"t 	c #0300F2",
"u 	c #F30000",
"v 	c #A22617",
"w 	c #0200F4",
"x 	c #971818",
"y 	c #F30101",
"z 	c #9C2215",
"A 	c #1309BB",
"B 	c #1008C3",
"C 	c #0E08C5",
"D 	c #0A05D0",
"E 	c #0000F2",
"F 	c #0000F3",
"G 	c #0000F5",
"H 	c #0000F6",
"I 	c #0000F7",
"J 	c #0000F9",
"K 	c #0000FA",
"L 	c #0000FB",
"M 	c #0000FC",
"N 	c #D16969",
"O 	c #FF8080",
"P 	c #D64B4B",
"Q 	c #F50303",
"R 	c #CC2B2B",
"S 	c #FC7E7E",
"T 	c #997A51",
"U 	c #000073",
"V 	c #000075",
"W 	c #000076",
"X 	c #000074",
"Y 	c #000072",
"Z 	c #00006E",
"` 	c #00006D",
" .	c #00006C",
"..	c #00006B",
"+.	c #000057",
"@.	c #D26969",
"#.	c #D44747",
"$.	c #F60202",
"%.	c #CB2D2D",
"&.	c #FD7F7F",
"*.	c #98884D",
"=.	c #00007C",
"-.	c #000080",
";.	c #D24444",
">.	c #F80101",
",.	c #CA3030",
"'.	c #95884C",
").	c #D26A6A",
"!.	c #D04141",
"~.	c #F90101",
"{.	c #FF1C00",
"].	c #FF3100",
"^.	c #FF0800",
"/.	c #FE0000",
"(.	c #AA331E",
"_.	c #CE3D3D",
":.	c #FB0000",
"<.	c #FF1A00",
"[.	c #FFBD00",
"}.	c #FFFF03",
"|.	c #FFFF26",
"1.	c #FFF200",
"2.	c #FF6500",
"3.	c #FD0000",
"4.	c #872D17",
"5.	c #00006A",
"6.	c #D46A6A",
"7.	c #CC3A3A",
"8.	c #FC0000",
"9.	c #FFBC00",
"0.	c #FFFF3F",
"a.	c #FFFFE5",
"b.	c #FFFFFF",
"c.	c #FFFFD4",
"d.	c #FFFE1A",
"e.	c #FF3D00",
"f.	c #832F1A",
"g.	c #D46B6B",
"h.	c #CA3737",
"i.	c #FF1500",
"j.	c #FFFF00",
"k.	c #FFFFB6",
"l.	c #FFFF84",
"m.	c #FF9400",
"n.	c #FA0000",
"o.	c #5D222B",
"p.	c #C93333",
"q.	c #FF1200",
"r.	c #FFFE00",
"s.	c #FFFFAE",
"t.	c #FFFF7C",
"u.	c #FF9100",
"v.	c #BC2613",
"w.	c #0DB2BE",
"x.	c #001B82",
"y.	c #D56A6A",
"z.	c #FE7F7F",
"A.	c #C93030",
"B.	c #FFB100",
"C.	c #FFFF34",
"D.	c #FFFFD3",
"E.	c #FFFFBE",
"F.	c #FFFB14",
"G.	c #FF3500",
"H.	c #BA2814",
"I.	c #0CE0E0",
"J.	c #00FFFF",
"K.	c #00C7D8",
"L.	c #001981",
"M.	c #000069",
"N.	c #D56B6B",
"O.	c #C82D2D",
"P.	c #FF1100",
"Q.	c #FFA600",
"R.	c #FFFB00",
"S.	c #FFFF16",
"T.	c #FFE200",
"U.	c #FF5000",
"V.	c #C61B0F",
"W.	c #0ADBDB",
"X.	c #00C3D5",
"Y.	c #001580",
"Z.	c #C82A2A",
"`.	c #FF1900",
" +	c #D71C1C",
".+	c #887D40",
"++	c #00F7F7",
"@+	c #00BED2",
"#+	c #001380",
"$+	c #FB7D7D",
"%+	c #C92828",
"&+	c #D61D1D",
"*+	c #F07474",
"=+	c #8A8B47",
"-+	c #00BACF",
";+	c #00107F",
">+	c #D66B6B",
",+	c #F97C7C",
"'+	c #CA2525",
")+	c #D51E1E",
"!+	c #F17575",
"~+	c #888A46",
"{+	c #00B5CC",
"]+	c #000E7F",
"^+	c #B07E33",
"/+	c #D7AE2A",
"(+	c #D7AD2A",
"_+	c #D7AD2B",
":+	c #D7AC2B",
"<+	c #D7AB2C",
"[+	c #D8AC2D",
"}+	c #D8AB2D",
"|+	c #D8AA2E",
"1+	c #D8AA2F",
"2+	c #D8A92F",
"3+	c #D8A930",
"4+	c #D1A12E",
"5+	c #C12D0E",
"6+	c #BB220D",
"7+	c #669731",
"8+	c #6AA335",
"9+	c #6BA335",
"0+	c #41A124",
"a+	c #00BACA",
"b+	c #000F6A",
"c+	c #000068",
"d+	c #000056",
"e+	c #B7B700",
"f+	c #F5F100",
"g+	c #CC4100",
"h+	c #AE3400",
"i+	c #06EB00",
"j+	c #00FF00",
"k+	c #00DF06",
"l+	c #00DADA",
"m+	c #F4EE00",
"n+	c #CD3C00",
"o+	c #AC3600",
"p+	c #05EC00",
"q+	c #00D8D8",
"r+	c #6CBB00",
"s+	c #04EE00",
"t+	c #00D6D6",
"u+	c #B6B600",
"v+	c #6FCB00",
"w+	c #00FC00",
"x+	c #00D3D3",
"y+	c #A5A500",
"z+	c #00D2D2",
"A+	c #DBDB00",
"B+	c #70CB00",
"C+	c #DADA00",
"D+	c #72CB00",
"E+	c #00B9B9",
"F+	c #D9D900",
"G+	c #73CB00",
"H+	c #00B8B8",
"I+	c #88B400",
"J+	c #00B7B7",
"K+	c #B2B200",
"L+	c #00B700",
"M+	c #00DE02",
"N+	c #00EDED",
"O+	c #00FEFE",
"P+	c #00B5B5",
"Q+	c #D8D800",
"R+	c #00BA00",
"S+	c #00DE00",
"T+	c #009B9B",
"U+	c #00B4B4",
"V+	c #00A5A5",
"W+	c #00F8F8",
"X+	c #00B2B2",
"Y+	c #D7D700",
"Z+	c #B3B300",
"`+	c #00FAFA",
" @	c #00FDFD",
".@	c #00B0B0",
"+@	c #00A6A6",
"@@	c #00FBFB",
"#@	c #00AEAE",
"$@	c #00A8A8",
"%@	c #00ACAC",
"&@	c #009E00",
"*@	c #00D500",
"                                    . . . . . . . . . . . . .                                   ",
"                                    + + + + + + + + + + + + +             @                     ",
"                      # $           + + + + + + + + + + + + +           % & *                   ",
"                    # = = -         + + + + + + + + + + + + +         ; & & & *                 ",
"                  > = = = = ,       + + + + + + + + + + + + +       ; & & & & & '               ",
"                ) = = = = = = !     + + + + + + + + + + + + +     ; & & & & & & & ~             ",
"              ) = = = = = = = = { ] + + + + + + + + + + + + +   ^ & & & & & & & & / ~           ",
"            ( = = = = = = = = = = _ : + + + + + + + + + + + < [ & & & & & & & & & & / }         ",
"          | = = = = = = = = = = = = 1 2 + + + + + + + + + 3 4 & & & & & & & & & & & & / }       ",
"        5 = = = = = = = = = = = = = = 6 7 + + + + + + + 3 8 & & & & & & & & & & & & & & / 9     ",
"      0 = = = = = = = = = = = = = = = = a b + + + + + 3 8 & & & & & & & & & & & & & & & & / c   ",
"      d = = = = = = = = = = = = = = = = = e f + + + g h & & & & & & & & & & & & & & & & & i     ",
"        j = = = = = = = = = = = = = = = = = k l + g m & & & & & & & & & & & & & & & & & i       ",
"          n = = = = = = = = = = = = = = = = = o p m & & & & & & & & & & & & & & & & & q         ",
"            r = = = = = = = = = = = = = = = = = s t & & & & & & & & & & & & & & & & q           ",
"              u = = = = = = = = = = = = = = = = = v w & & & & & & & & & & & & & & q             ",
"              x y = = = = = = = = = = = = = = = = = z A B C D E F G H I J K L M i               ",
"N O O O O O O O P Q = = = = = = = = = = = = = = = = = R S O T U V V W V X V X Y Z `  .........+.",
"@.O O O O O O O O #.$.= = = = = = = = = = = = = = = = = %.&.*.=.-.-.-.-.-.-.-.-.-.-.-.-.-.-.-...",
"@.O O O O O O O O O ;.>.= = = = = = = = = = = = = = = = = ,.'.=.-.-.-.-.-.-.-.-.-.-.-.-.-.-.-...",
").O O O O O O O O O O !.~.= = = = = = = = = = {.].^.= = = /.(.=.-.-.-.-.-.-.-.-.-.-.-.-.-.-.-...",
"@.O O O O O O O O O O O _.:.= = = = = = = <.[.}.|.1.2.= = = 3.4.-.-.-.-.-.-.-.-.-.-.-.-.-.-.-.5.",
"6.O O O O O O O O O O O O 7.8.= = = = = = 9.0.a.b.c.d.e.= = = 8.f.-.-.-.-.-.-.-.-.-.-.-.-.-.-.5.",
"g.O O O O O O O O O O O O O h.3.= = = = i.j.k.b.b.b.l.m.= = = = n.o.-.-.-.-.-.-.-.-.-.-.-.-.-...",
"6.O O O O O O O O O O O O O O p./.= = = q.r.s.b.b.b.t.u.= = = = v.w.x.-.-.-.-.-.-.-.-.-.-.-.-.5.",
"y.O O O O O O O O O O O O O O z.A./.= = = B.C.D.b.E.F.G.= = = H.I.J.K.L.-.-.-.-.-.-.-.-.-.-.-.M.",
"N.O O O O O O O O O O O O O O O &.O.= = = P.Q.R.S.T.U.= = = V.W.J.J.J.X.Y.-.-.-.-.-.-.-.-.-.-.M.",
"N.O O O O O O O O O O O O O O O O S Z.= = = = ^.`.= = = =  +.+++J.J.J.J.@+#+-.-.-.-.-.-.-.-.-.5.",
"N.O O O O O O O O O O O O O O O O O $+%+= = = = = = = = &+*+=+++J.J.J.J.J.-+;+-.-.-.-.-.-.-.-.M.",
">+O O O O O O O O O O O O O O O O O O ,+'+= = = = = = )+!+O ~+++J.J.J.J.J.J.{+]+-.-.-.-.-.-.-.M.",
"              ^+/+(+_+:+<+[+}+|+1+2+2+3+4+5+= = = = 6+7+8+9+0+++J.J.J.J.J.J.J.a+b+M.c+c+M.M.M.d+",
"            e+j.j.j.j.j.j.j.j.j.j.j.j.j.j.f+g+= = h+i+j+j+j+k+++J.J.J.J.J.J.J.J.l+              ",
"          e+j.j.j.j.j.j.j.j.j.j.j.j.j.j.j.j.m+n+o+p+j+j+j+j+k+++J.J.J.J.J.J.J.J.J.q+            ",
"        e+j.j.j.j.j.j.j.j.j.j.j.j.j.j.j.j.j.j.r+s+j+j+j+j+j+k+++J.J.J.J.J.J.J.J.J.J.t+          ",
"      u+j.j.j.j.j.j.j.j.j.j.j.j.j.j.j.j.j.j.v+w+j+j+j+j+j+j+k+++J.J.J.J.J.J.J.J.J.J.J.x+        ",
"    y+j.j.j.j.j.j.j.j.j.j.j.j.j.j.j.j.j.j.v+w+j+j+j+j+j+j+j+k+++J.J.J.J.J.J.J.J.J.J.J.J.z+      ",
"      A+j.j.j.j.j.j.j.j.j.j.j.j.j.j.j.j.B+w+j+j+j+j+j+j+j+j+k+++J.J.J.J.J.J.J.J.J.J.J.J.J.      ",
"        C+j.j.j.j.j.j.j.j.j.j.j.j.j.j.D+w+j+j+j+j+j+j+j+j+j+k+++J.J.J.J.J.J.J.J.J.J.J.J.E+      ",
"          F+j.j.j.j.j.j.j.j.j.j.j.j.G+w+j+j+j+j+j+j+j+j+j+j+k+++J.J.J.J.J.J.J.J.J.J.J.H+        ",
"            F+j.j.j.j.j.j.j.j.j.j.I+w+j+j+j+j+j+j+j+j+j+j+j+k+++J.J.J.J.J.J.J.J.J.J.J+          ",
"              F+j.j.j.j.j.j.j.j.K+L+j+j+j+j+j+j+j+j+j+j+j+j+M+N+J.J.J.J.J.J.J.J.O+P+            ",
"                Q+j.j.j.j.j.j.K+  R+j+j+j+j+j+j+j+j+j+j+j+j+S+T+++J.J.J.J.J.J.O+U+              ",
"                  Q+j.j.j.j.K+    R+j+j+j+j+j+j+j+j+j+j+j+j+S+  V+W+J.J.J.J.O+X+                ",
"                    Y+j.j.Z+      R+j+j+j+j+j+j+j+j+j+j+j+j+S+    V+`+J.J. @.@                  ",
"                      Q+Z+        R+j+j+j+j+j+j+j+j+j+j+j+j+S+      +@@@ @#@                    ",
"                                  R+j+j+j+j+j+j+j+j+j+j+j+j+S+        $@%@                      ",
"                                  R+j+j+j+j+j+j+j+j+j+j+j+j+S+                                  ",
"                                  &@*@*@*@*@*@*@*@*@*@*@*@*@L+                                  "};
