/* XPM */
static const char *reporttree_xpm[] = {
/* columns rows colors const chars-per-pixel */
"16 16 33 1",
". c Black",
"< c #795C63",
"= c #4A6780",
"% c #606B7D",
"1 c #F1DF9D",
"o c #9A9E81",
"3 c #EBBC6F",
"6 c #EFD988",
"r c #37140D",
": c #EFD98A",
"  c None",
"9 c #DAA168",
"w c #DB4D2D",
"8 c #DD411E",
"2 c #EED784",
"0 c #DB411D",
"7 c #EAAB64",
"5 c #CD3C1B",
"> c #486077",
"e c #D7411F",
"$ c #536F88",
"- c #251716",
"; c #F0DCA9",
"* c #EED680",
"X c #EED9A4",
"& c #F1E0A0",
"@ c #F1E0A1",
"# c #EFDA8D",
"O c #4B6983",
", c #AF8161",
"+ c #C9AB84",
"q c #C93B1A",
"4 c #DF421E",
/* pixels */
"           ..  .",
"           .. . ",
"             .  ",
"            . ..",
"     ...   .  ..",
"   ..XoO..      ",
"  .+@#oO$%.     ",
"  .&**oOO=.-    ",
" .;:**oOOO>.    ",
" .@***,<<<<.    ",
" .12*344445.    ",
"  .6744448.     ",
"  .944440q.     ",
"   ..w4e..      ",
"    r...        ",
"                "
};
