/* XPM */
static const char * rt_exec_user_xpm[] = {
"16 16 104 2",
"  	c None",
". 	c #000000",
"+ 	c #30D052",
"@ 	c #D83A1A",
"# 	c #D53718",
"$ 	c #D03116",
"% 	c #CA2B13",
"& 	c #D23317",
"* 	c #E16A52",
"= 	c #EFA695",
"- 	c #F0BBB0",
"; 	c #EAB6AC",
"> 	c #E0978B",
", 	c #D1594A",
"' 	c #BE1F0D",
") 	c #C92A12",
"! 	c #DB6854",
"~ 	c #EDA99C",
"{ 	c #ECA89B",
"] 	c #ECDF17",
"^ 	c #BD857D",
"/ 	c #D3958C",
"( 	c #CC594D",
"_ 	c #B7180A",
": 	c #C42710",
"< 	c #E08677",
"[ 	c #E58E80",
"} 	c #E08C7D",
"| 	c #71453F",
"1 	c #B16C64",
"2 	c #D2796F",
"3 	c #B41609",
"4 	c #B71D0C",
"5 	c #BD230E",
"6 	c #D66C5C",
"7 	c #D97363",
"8 	c #D4705F",
"9 	c #4A2621",
"0 	c #9B4E46",
"a 	c #C65E54",
"b 	c #B11408",
"c 	c #AB0E05",
"d 	c #AE190A",
"e 	c #B41D0C",
"f 	c #C13727",
"g 	c #CC5545",
"h 	c #C75242",
"i 	c #401915",
"j 	c #90382F",
"k 	c #B32B20",
"l 	c #AD1106",
"m 	c #A70C04",
"n 	c #A51408",
"o 	c #AB180A",
"p 	c #B01B0B",
"q 	c #B52415",
"r 	c #B52F1F",
"s 	c #3F0F0B",
"t 	c #83160C",
"u 	c #A41006",
"v 	c #A50D05",
"w 	c #A00903",
"x 	c #9A0F06",
"y 	c #9E1207",
"z 	c #A31409",
"A 	c #A71609",
"B 	c #A51608",
"C 	c #861107",
"D 	c #510A04",
"E 	c #510903",
"F 	c #820C04",
"G 	c #9C0C04",
"H 	c #9C0A03",
"I 	c #990602",
"J 	c #920C05",
"K 	c #960E06",
"L 	c #9B0F07",
"M 	c #980F06",
"N 	c #610803",
"O 	c #820903",
"P 	c #940802",
"Q 	c #930602",
"R 	c #860803",
"S 	c #8A0904",
"T 	c #8D0A04",
"U 	c #8C0903",
"V 	c #480401",
"W 	c #710401",
"X 	c #860400",
"Y 	c #880200",
"Z 	c #800502",
"` 	c #810602",
" .	c #7F0501",
"..	c #6A0401",
"+.	c #450201",
"@.	c #450200",
"#.	c #670200",
"$.	c #7C0000",
"%.	c #7A0200",
"&.	c #780100",
"*.	c #6E0100",
"=.	c #610000",
"-.	c #5F0000",
";.	c #680000",
". + + . + + + + + + + + + + + + ",
". + + . + + + + + + + + + + + + ",
". + + . + + + + @ # $ % + + + + ",
". + + . + + & * = - ; > , ' + + ",
"+ . . + + ) ! ~ { ] ] ^ / ( _ + ",
"+ + + + + : < [ } ] ] | 1 2 3 + ",
"+ + + + 4 5 6 7 8 ] ] 9 0 a b c ",
". + + + d e f g h ] ] i j k l m ",
". . + + n o p q r ] ] s t u v w ",
". . . + x y z A B C D E F G H I ",
". . + + + J K L M ] ] N O P Q + ",
". + + + + R S T U ] ] V W X Y + ",
"+ + + + + + Z `  ...+.@.#.$.+ + ",
"+ + + + + + + %.&.*.=.-.;.+ + + ",
"+ + + + + + + + + %.%.+ + + + + ",
"+ + + + + + + + + + + + + + + + "};
