/* XPM */
static const char * rt_exec_auto_xpm[] = {
"16 16 100 2",
"  	c None",
". 	c #30D052",
"+ 	c #000000",
"@ 	c #D83A1A",
"# 	c #D53718",
"$ 	c #D03116",
"% 	c #CA2B13",
"& 	c #D23317",
"* 	c #E16A52",
"= 	c #EFA695",
"- 	c #F0BBB0",
"; 	c #EAB6AC",
"> 	c #E0978B",
", 	c #D1594A",
"' 	c #BE1F0D",
") 	c #C92A12",
"! 	c #DB6854",
"~ 	c #EDA99C",
"{ 	c #ECA89B",
"] 	c #ECDF17",
"^ 	c #BD857D",
"/ 	c #D3958C",
"( 	c #CC594D",
"_ 	c #B7180A",
": 	c #C42710",
"< 	c #E08677",
"[ 	c #E58E80",
"} 	c #E08C7D",
"| 	c #71453F",
"1 	c #B16C64",
"2 	c #D2796F",
"3 	c #B41609",
"4 	c #AE190A",
"5 	c #BD230E",
"6 	c #D66C5C",
"7 	c #D97363",
"8 	c #D4705F",
"9 	c #4A2621",
"0 	c #9B4E46",
"a 	c #C65E54",
"b 	c #B11408",
"c 	c #A70C04",
"d 	c #B41D0C",
"e 	c #C13727",
"f 	c #CC5545",
"g 	c #C75242",
"h 	c #401915",
"i 	c #90382F",
"j 	c #B32B20",
"k 	c #AD1106",
"l 	c #A51408",
"m 	c #AB180A",
"n 	c #B01B0B",
"o 	c #B52415",
"p 	c #B52F1F",
"q 	c #3F0F0B",
"r 	c #83160C",
"s 	c #A41006",
"t 	c #A50D05",
"u 	c #A00903",
"v 	c #9E1207",
"w 	c #A31409",
"x 	c #A71609",
"y 	c #A51608",
"z 	c #861107",
"A 	c #510A04",
"B 	c #510903",
"C 	c #820C04",
"D 	c #9C0C04",
"E 	c #9C0A03",
"F 	c #920C05",
"G 	c #960E06",
"H 	c #9B0F07",
"I 	c #980F06",
"J 	c #610803",
"K 	c #820903",
"L 	c #940802",
"M 	c #930602",
"N 	c #860803",
"O 	c #8A0904",
"P 	c #8D0A04",
"Q 	c #8C0903",
"R 	c #480401",
"S 	c #710401",
"T 	c #860400",
"U 	c #880200",
"V 	c #800502",
"W 	c #810602",
"X 	c #7F0501",
"Y 	c #6A0401",
"Z 	c #450201",
"` 	c #450200",
" .	c #670200",
"..	c #7C0000",
"+.	c #7A0200",
"@.	c #780100",
"#.	c #6E0100",
"$.	c #610000",
"%.	c #5F0000",
"&.	c #680000",
". + + . . . . . . . . . . . . . ",
"+ . . + . . . . . . . . . . . . ",
"+ + + + . . . . @ # $ % . . . . ",
"+ . . + . . & * = - ; > , ' . . ",
"+ . . + . ) ! ~ { ] ] ^ / ( _ . ",
". . . . . : < [ } ] ] | 1 2 3 . ",
". . . . 4 5 6 7 8 ] ] 9 0 a b c ",
"+ . . . 4 d e f g ] ] h i j k c ",
"+ + . . l m n o p ] ] q r s t u ",
"+ + + . c v w x y z A B C D E c ",
"+ + . . . F G H I ] ] J K L M . ",
"+ . . . . N O P Q ] ] R S T U . ",
". . . . . . V W X Y Z `  .... . ",
". . . . . . . +.@.#.$.%.&.. . . ",
". . . . . . . . . +.+.. . . . . ",
". . . . . . . . . . . . . . . . "};
