/* XPM */
static const char *saveas_xpm[] = {
/* columns rows colors const chars-per-pixel */
"16 16 106 2",
".. c Black",
"5  c #0F0F0F",
"3  c #2D2D2D",
"X  c #171700",
";  c #878787",
"=. c #080805",
"u  c #262620",
"/  c #737300",
"v  c #262626",
"J  c #2E2E15",
"[  c #1F1F09",
"%  c #101000",
"=  c #808080",
"q  c #1F1F19",
"&. c #010100",
"A  c #555500",
"]  c #181801",
"+  c #2E2E2E",
"8  c #181804",
"U  c #27271B",
"%. c #5D5D00",
"o  c #090906",
"<  c #090907",
"1  c #272724",
"|  c #656500",
"T  c #656503",
"-  c #909090",
"b  c #202017",
"W  c #565600",
"Q  c #191900",
">  c #202020",
"z  c #A7A7A7",
"M  c #B6B6B6",
"7  c #0A0A09",
"P  c #5E5E05",
"l  c #282824",
"#  c #0A0A0A",
"O  c #282828",
"Y  c #303018",
"+. c #121200",
"O. c #212113",
"e  c #828282",
"!  c #7D7D00",
"r  c #21211B",
"f  c #1A1A09",
"&  c #484800",
"c  c #999999",
"   c None",
"@. c #1A1A1A",
"2  c #292928",
"a  c #292929",
"0  c #131300",
"o. c #747474",
"_  c #040400",
"x  c #B0B0B0",
"k  c #585800",
"y  c #1B1B00",
"$  c #222222",
":  c #6D6D6D",
"I  c #2A2A1A",
"V  c #1B1B0D",
"g  c #0C0C02",
"h  c #606000",
"{  c #232301",
"G  c #A9A9A9",
"4  c #2A2A2A",
",  c #141400",
"D  c #323223",
"w  c #848484",
"F  c #A2A2A1",
".  c #050500",
"N  c #C0C0C0",
"j  c #1C1C00",
"s  c #141414",
"6  c #232323",
"R  c #707000",
"#. c #8C8C8C",
"^  c #616100",
"~  c #787800",
"B  c #1C1C1A",
"@  c #2B2B2B",
"-. c #151500",
"`  c #696900",
"Z  c #242418",
" . c #060600",
"}  c #5A5A00",
"*. c #060606",
"E  c #1D1D00",
"i  c #242423",
"d  c #242424",
"(  c #717100",
"K  c #626200",
"*  c #1D1D14",
"L  c #797900",
"m  c #2C2C28",
"p  c #2C2C2C",
"'  c #161600",
"$. c #252517",
"H  c #959593",
"9  c #070701",
"t  c #5B5B00",
"n  c #1E1E00",
"X. c #161616",
")  c #0F0F00",
"C  c #0F0F02",
"S  c #636300",
/* pixels */
"        . X o O + + + @ # $ #   ",
"        % & * = - - - ; $ : >   ",
"    . , < 1 2 3 + 4 5 6 7 8 9   ",
"    0 & q w - - - e $ : r t y   ",
". % < u i p 3 a s d < f g h j   ",
"j k l z x x x c v : b k j h j   ",
"n h m M N N N z B V C h n h j   ",
"n h m M N N N z Z A j h n h j   ",
"n S D F G G G H J K n h n h j   ",
"n L P I U U U Y T R n h E W Q   ",
"n ! ~ ^ h h h K / ( n h Q ) _   ",
"n ! ` y ' ' ] [ { S E } '       ",
"n ! |  .....X.o.O.h ' +._       ",
"E L ^ . ....@.#.$.%.0           ",
"  j ' &.....*.> =.-._           ",
"                                "
};
