/* XPM */
static const char * savings_acc_favorite_xpm[] = {
"16 16 114 2",
"  	c None",
". 	c #FD0629",
"+ 	c #8BC386",
"@ 	c #8AC284",
"# 	c #9BCD96",
"$ 	c #85BE80",
"% 	c #88C183",
"& 	c #9ACD94",
"* 	c #B7E2B3",
"= 	c #98CB93",
"- 	c #7CB777",
"; 	c #87C082",
"> 	c #99CC94",
", 	c #B7E2B2",
"' 	c #AADCA3",
") 	c #B6E0B0",
"! 	c #92C68C",
"~ 	c #73B16E",
"{ 	c #86BF81",
"] 	c #98CC93",
"^ 	c #B7E1B1",
"/ 	c #A9DBA3",
"( 	c #A2D89B",
"_ 	c #77B473",
": 	c #B4DFAF",
"< 	c #8CC387",
"[ 	c #69AA65",
"} 	c #85BE7F",
"| 	c #97CB92",
"1 	c #B6E1B1",
"2 	c #8AC385",
"3 	c #85C180",
"4 	c #A0D799",
"5 	c #9FD798",
"6 	c #A5D99F",
"7 	c #B2DFAC",
"8 	c #81BB7D",
"9 	c #5CA058",
"0 	c #83BD7E",
"a 	c #96CA91",
"b 	c #B6E0B1",
"c 	c #DDF3D9",
"d 	c #F8FCF7",
"e 	c #A7D0A4",
"f 	c #84C07E",
"g 	c #B2DEAC",
"h 	c #80BB7B",
"i 	c #5A9F56",
"j 	c #82BC7D",
"k 	c #95C990",
"l 	c #8AC285",
"m 	c #97C295",
"n 	c #DFEEDD",
"o 	c #87C282",
"p 	c #B1DEAB",
"q 	c #7FBA7B",
"r 	c #5DA159",
"s 	c #82BB7D",
"t 	c #94C88F",
"u 	c #A8DAA2",
"v 	c #85C17F",
"w 	c #83B880",
"x 	c #7FB97A",
"y 	c #C8E7C4",
"z 	c #7CB878",
"A 	c #52994E",
"B 	c #93C88E",
"C 	c #B5DFAF",
"D 	c #A7DAA1",
"E 	c #9ED697",
"F 	c #83C07E",
"G 	c #87C182",
"H 	c #B0DDAB",
"I 	c #7DB979",
"J 	c #67AE63",
"K 	c #C4E4C1",
"L 	c #BEE0B9",
"M 	c #539A4F",
"N 	c #84BD7F",
"O 	c #9CCE97",
"P 	c #B3DFAD",
"Q 	c #74B36F",
"R 	c #9DD596",
"S 	c #A3D89D",
"T 	c #B0DDAA",
"U 	c #76BA72",
"V 	c #C8E7C3",
"W 	c #B5DAB2",
"X 	c #6EB869",
"Y 	c #599E56",
"Z 	c #97CB91",
"` 	c #A2D79C",
" .	c #65AC60",
"..	c #B2D8AE",
"+.	c #91C48B",
"@.	c #50974C",
"#.	c #4C9448",
"$.	c #7AB675",
"%.	c #A0CD9C",
"&.	c #73B26F",
"*.	c #92C78D",
"=.	c #AFDCAA",
"-.	c #7BB676",
";.	c #559B51",
">.	c #7BB777",
",.	c #539A50",
"'.	c #81BB7C",
").	c #BBDEB7",
"!.	c #6CAC67",
"~.	c #51984E",
"{.	c #579C53",
"].	c #65A660",
"^.	c #6FAE6B",
"/.	c #5FA25B",
"              .   +             ",
"            . . @ # $           ",
"          . . % & * = -         ",
".       . . ; > , ' ) ! ~       ",
". .   . . { ] ^ / ( _ : < [     ",
". . . . } | 1 2 3 4 5 6 7 8 9   ",
"  . . 0 a b c d e f 6 g h i     ",
"    j k ) l d m n o p q 9 r     ",
"  s t ) u v e n w p x i y z A   ",
"h B C D 5 E F G H I J y K L M   ",
"N N O P Q R S T z U V W X Y     ",
"  h - Z p ` T -  ...+.@.#.      ",
"  $.%.&.*.=.-.;.>.,.            ",
"    '.).!.$.~.{.                ",
"    [ ].^.@.                    ",
"      /.                        "};
