/* XPM */
static const char *stock_xpm[] = {
/* columns rows colors const chars-per-pixel */
"16 16 18 1",
"O c Black",
"= c #E8E8E8",
"- c #FFFFFF",
", c #101010",
"@ c #DADADA",
"; c #A6A6A6",
": c #909090",
"> c None",
"o c #7B7B7B",
". c #FBB900",
"$ c #EDEDED",
"% c #E6E6E6",
"  c #FFFC84",
"X c #D0D0D0",
"+ c #8D8D8D",
"# c #A4A4A4",
"* c #B3B3B3",
"& c #EFEFEF",
/* pixels */
" . . . . . . . .",
".XoO+@OO+@oO#@@ ",
" @O$O$O$O$O$O$$.",
".%OOO&OO*&O&&&& ",
" =O-O-O-O-O-O--.",
".=O-O-OO;-:O;-- ",
" . . . . . . . .",
">>>>>>>>>>>>>>>>",
"OO>>>>>>>>>>>>>>",
">O>>>>>>>>>>>>>>",
">O>>>>>>>>>>>>>>",
"OO>>>>>>>>>>>>>>",
">O>>>>>>>>>>>>>>",
">,>>>>>>>>>>>>>>",
"OOOOOOOOOOOOOOOO",
">O>>O>>O>>O>>O>>"
};
