/* XPM */
static const char * term_acc_closed_xpm[] = {
"16 16 107 2",
"  	c None",
". 	c #FD0629",
"+ 	c #8BC386",
"@ 	c #8AC284",
"# 	c #9BCD96",
"$ 	c #85BE80",
"% 	c #88C183",
"& 	c #9ACD94",
"* 	c #B7E2B3",
"= 	c #98CB93",
"- 	c #7CB777",
"; 	c #87C082",
"> 	c #99CC94",
", 	c #B7E2B2",
"' 	c #AADCA3",
") 	c #B6E0B0",
"! 	c #92C68C",
"~ 	c #73B16E",
"{ 	c #98CC93",
"] 	c #B7E1B1",
"^ 	c #A9DBA3",
"/ 	c #A2D89B",
"( 	c #77B473",
"_ 	c #B4DFAF",
": 	c #8CC387",
"< 	c #69AA65",
"[ 	c #85BE7F",
"} 	c #8AC385",
"| 	c #85C180",
"1 	c #A0D799",
"2 	c #9FD798",
"3 	c #A5D99F",
"4 	c #B2DFAC",
"5 	c #81BB7D",
"6 	c #5CA058",
"7 	c #83BD7E",
"8 	c #96CA91",
"9 	c #B6E0B1",
"0 	c #A7D0A4",
"a 	c #84C07E",
"b 	c #B2DEAC",
"c 	c #80BB7B",
"d 	c #5A9F56",
"e 	c #82BC7D",
"f 	c #95C990",
"g 	c #8AC285",
"h 	c #F8FCF7",
"i 	c #97C295",
"j 	c #DFEEDD",
"k 	c #87C282",
"l 	c #B1DEAB",
"m 	c #7FBA7B",
"n 	c #5DA159",
"o 	c #82BB7D",
"p 	c #94C88F",
"q 	c #A8DAA2",
"r 	c #85C17F",
"s 	c #83B880",
"t 	c #7FB97A",
"u 	c #C8E7C4",
"v 	c #7CB878",
"w 	c #52994E",
"x 	c #93C88E",
"y 	c #B5DFAF",
"z 	c #A7DAA1",
"A 	c #9ED697",
"B 	c #83C07E",
"C 	c #87C182",
"D 	c #B0DDAB",
"E 	c #7DB979",
"F 	c #67AE63",
"G 	c #1C2DAC",
"H 	c #84BD7F",
"I 	c #9CCE97",
"J 	c #B3DFAD",
"K 	c #74B36F",
"L 	c #9DD596",
"M 	c #A3D89D",
"N 	c #B0DDAA",
"O 	c #76BA72",
"P 	c #C8E7C3",
"Q 	c #6EB869",
"R 	c #599E56",
"S 	c #97CB91",
"T 	c #A2D79C",
"U 	c #65AC60",
"V 	c #B2D8AE",
"W 	c #91C48B",
"X 	c #50974C",
"Y 	c #7AB675",
"Z 	c #A0CD9C",
"` 	c #73B26F",
" .	c #92C78D",
"..	c #AFDCAA",
"+.	c #7BB676",
"@.	c #559B51",
"#.	c #7BB777",
"$.	c #539A50",
"%.	c #81BB7C",
"&.	c #BBDEB7",
"*.	c #6CAC67",
"=.	c #51984E",
"-.	c #579C53",
";.	c #FFFFFF",
">.	c #65A660",
",.	c #6FAE6B",
"'.	c #5FA25B",
". .         . .   +             ",
"  . .     . .   @ # $           ",
"    . . . .   % & * = -         ",
"      . .   ; > , ' ) ! ~       ",
"    .   . . { ] ^ / ( _ : <     ",
"  . .   [ . . } | 1 2 3 4 5 6   ",
". .   7 8 9 . . 0 a 3 b c d     ",
".   e f ) g h i j k l m 6 n     ",
"  o p ) q r 0 j s l t d u v w   ",
"c x y z 2 A B C D E F G G G G G ",
"H H I J K L M N v O P G Q R   G ",
"  c - S l T N - U V W X G   G   ",
"  Y Z `  ...+.@.#.$.      G     ",
"    %.&.*.Y =.-.        G ;.G   ",
"    < >.,.X           G ;.;.;.G ",
"      '.              G G G G G "};
