/* XPM */
static char * termaccount_xpm[] = {
"16 16 110 2",
"  	c None",
". 	c #8BC386",
"+ 	c #8AC284",
"@ 	c #9BCD96",
"# 	c #85BE80",
"$ 	c #88C183",
"% 	c #9ACD94",
"& 	c #B7E2B3",
"* 	c #98CB93",
"= 	c #7CB777",
"- 	c #87C082",
"; 	c #99CC94",
"> 	c #B7E2B2",
", 	c #AADCA3",
"' 	c #B6E0B0",
") 	c #92C68C",
"! 	c #73B16E",
"~ 	c #86BF81",
"{ 	c #98CC93",
"] 	c #B7E1B1",
"^ 	c #A9DBA3",
"/ 	c #A2D89B",
"( 	c #77B473",
"_ 	c #B4DFAF",
": 	c #8CC387",
"< 	c #69AA65",
"[ 	c #85BE7F",
"} 	c #97CB92",
"| 	c #B6E1B1",
"1 	c #8AC385",
"2 	c #85C180",
"3 	c #A0D799",
"4 	c #9FD798",
"5 	c #A5D99F",
"6 	c #B2DFAC",
"7 	c #81BB7D",
"8 	c #5CA058",
"9 	c #83BD7E",
"0 	c #96CA91",
"a 	c #B6E0B1",
"b 	c #DDF3D9",
"c 	c #F8FCF7",
"d 	c #A7D0A4",
"e 	c #84C07E",
"f 	c #B2DEAC",
"g 	c #80BB7B",
"h 	c #5A9F56",
"i 	c #82BC7D",
"j 	c #95C990",
"k 	c #8AC285",
"l 	c #97C295",
"m 	c #DFEEDD",
"n 	c #87C282",
"o 	c #B1DEAB",
"p 	c #7FBA7B",
"q 	c #5DA159",
"r 	c #82BB7D",
"s 	c #94C88F",
"t 	c #A8DAA2",
"u 	c #85C17F",
"v 	c #83B880",
"w 	c #7FB97A",
"x 	c #C8E7C4",
"y 	c #7CB878",
"z 	c #52994E",
"A 	c #93C88E",
"B 	c #B5DFAF",
"C 	c #A7DAA1",
"D 	c #9ED697",
"E 	c #83C07E",
"F 	c #87C182",
"G 	c #B0DDAB",
"H 	c #7DB979",
"I 	c #67AE63",
"J 	c #F6F904",
"K 	c #84BD7F",
"L 	c #9CCE97",
"M 	c #B3DFAD",
"N 	c #74B36F",
"O 	c #9DD596",
"P 	c #A3D89D",
"Q 	c #B0DDAA",
"R 	c #76BA72",
"S 	c #C8E7C3",
"T 	c #6EB869",
"U 	c #599E56",
"V 	c #97CB91",
"W 	c #A2D79C",
"X 	c #65AC60",
"Y 	c #B2D8AE",
"Z 	c #91C48B",
"` 	c #50974C",
" .	c #7AB675",
"..	c #A0CD9C",
"+.	c #73B26F",
"@.	c #92C78D",
"#.	c #AFDCAA",
"$.	c #7BB676",
"%.	c #559B51",
"&.	c #7BB777",
"*.	c #539A50",
"=.	c #81BB7C",
"-.	c #BBDEB7",
";.	c #6CAC67",
">.	c #51984E",
",.	c #579C53",
"'.	c #FFFFFF",
").	c #65A660",
"!.	c #6FAE6B",
"~.	c #5FA25B",
"                  .             ",
"                + @ #           ",
"              $ % & * =         ",
"            - ; > , ' ) !       ",
"          ~ { ] ^ / ( _ : <     ",
"        [ } | 1 2 3 4 5 6 7 8   ",
"      9 0 a b c d e 5 f g h     ",
"    i j ' k c l m n o p 8 q     ",
"  r s ' t u d m v o w h x y z   ",
"g A B C 4 D E F G H I J J J J J ",
"K K L M N O P Q y R S J T U   J ",
"  g = V o W Q = X Y Z ` J   J   ",
"   ...+.@.#.$.%.&.*.      J     ",
"    =.-.;. .>.,.        J '.J   ",
"    < ).!.`           J '.'.'.J ",
"      ~.              J J J J J "};
