/* XPM */
static const char * trans_transfer_xpm[] = {
"16 16 73 1",
" 	c None",
".	c #000000",
"+	c #D1CD58",
"@	c #A19D44",
"#	c #CCC856",
"$	c #C3BF52",
"%	c #93903E",
"&	c #8A873A",
"*	c #060600",
"=	c #C8C555",
"-	c #BFBB51",
";	c #B5B24D",
">	c #ACA848",
",	c #A29F45",
"'	c #999641",
")	c #908D3D",
"!	c #868339",
"~	c #7C7935",
"{	c #737030",
"]	c #C5C153",
"^	c #BBB850",
"/	c #B2AE4B",
"(	c #A8A547",
"_	c #9F9C43",
":	c #95923F",
"<	c #8B883B",
"[	c #827F37",
"}	c #787533",
"|	c #6E6C2F",
"1	c #65632B",
"2	c #5C5926",
"3	c #C1BD52",
"4	c #B7B44D",
"5	c #AEAA49",
"6	c #A4A145",
"7	c #9A9842",
"8	c #918E3D",
"9	c #888439",
"0	c #7E7C35",
"a	c #747231",
"b	c #6B682D",
"c	c #615F29",
"d	c #575625",
"e	c #4E4D21",
"f	c #44421C",
"g	c #AAA647",
"h	c #A09C44",
"i	c #979440",
"j	c #8D8A3C",
"k	c #848137",
"l	c #7A7733",
"m	c #706E2F",
"n	c #66652B",
"o	c #5D5B27",
"p	c #535224",
"q	c #4A4820",
"r	c #403F1C",
"s	c #92903E",
"t	c #89863A",
"u	c #807D36",
"v	c #767332",
"w	c #6C6A2E",
"x	c #63602A",
"y	c #595726",
"z	c #4F4E22",
"A	c #46451D",
"B	c #3D3B1A",
"C	c #7B7934",
"D	c #726F30",
"E	c #42411C",
"F	c #383718",
"G	c #64622B",
"H	c #343316",
"                ",
"      .  .      ",
"     ..  ..     ",
"    .+.  .@.    ",
"   .#$....%&.   ",
"  *=-;>,')!~{*  ",
" .]^/(_:<[}|12. ",
".34567890abcdef.",
" .ghijklmnopqr. ",
"  .stuvwxyzAB.  ",
"   .CD....EF.   ",
"    .G.  .H.    ",
"     ..  ..     ",
"      .  .      ",
"                ",
"                "};
