/* XPM */
static const char * trans_deposit_xpm[] = {
"16 16 51 1",
" 	c None",
".	c #B9B9B9",
"+	c #A7A7A7",
"@	c #949495",
"#	c #FEFED3",
"$	c #959595",
"%	c #828382",
"&	c #FDFEBA",
"*	c #FDFEBB",
"=	c #838483",
"-	c #848484",
";	c #858485",
">	c #858584",
",	c #858585",
"'	c #858685",
")	c #868685",
"!	c #868686",
"~	c #707071",
"{	c #FDFEA1",
"]	c #FDFEA2",
"^	c #FCFEA1",
"/	c #757474",
"(	c #5E5E5E",
"_	c #FDFE89",
":	c #FCFE89",
"<	c #FDFE88",
"[	c #FCFD89",
"}	c #FDFD88",
"|	c #FCFD88",
"1	c #636363",
"2	c #4C4C4C",
"3	c #FCFF00",
"4	c #FBFF00",
"5	c #515051",
"6	c #3A3A3B",
"7	c #3F3F3E",
"8	c #292929",
"9	c #2D2D2D",
"0	c #171717",
"a	c #181818",
"b	c #181918",
"c	c #191918",
"d	c #191919",
"e	c #1A1A1A",
"f	c #1A1A19",
"g	c #1B1A1A",
"h	c #1B1A1B",
"i	c #1B1B1B",
"j	c #060606",
"k	c #070606",
"l	c #000000",
"                ",
"      .         ",
"     ++         ",
"    @#$         ",
"   %&*=-;>,,')!!",
"  ~{]]]]{]]]]^]/",
" (_::::<[}::[|[1",
"2333333333333345",
" 633333333333337",
"  83333333333339",
"   033abcdefgehi",
"    j3k         ",
"     ll         ",
"      l         ",
"                ",
"                "};
