/* XPM */
static const char * trans_deposit_xpm[] = {
"16 16 2 1",
" 	c None",
".	c #97BCF4",
"                ",
"       ..       ",
"       ..       ",
"       ..       ",
"       ..       ",
"       ..       ",
"       ..       ",
"   ..  ..  ..   ",
"    .. .. ..    ",
"     ......     ",
" ..   ....   .. ",
" ..    ..    .. ",
" ..          .. ",
" .............. ",
" .............. ",
"                "};
