/* XPM */
static const char * trans_withdrawal_xpm[] = {
"16 16 2 1",
" 	c None",
".	c #97BCF4",
"                ",
"       ..       ",
"      ....      ",
"     ......     ",
"    .. .. ..    ",
"   ..  ..  ..   ",
"       ..       ",
"       ..       ",
"       ..       ",
"       ..       ",
" ..    ..    .. ",
" ..    ..    .. ",
" ..          .. ",
" .............. ",
" .............. ",
"                "};
