/* XPM */
static const char * trans_deposit_xpm[] = {
"16 16 49 1",
" 	c None",
".	c #000000",
"+	c #00C400",
"@	c #00B100",
"#	c #00A900",
"$	c #006C00",
"%	c #006700",
"&	c #00C000",
"*	c #00B600",
"=	c #00B300",
"-	c #005E00",
";	c #005200",
">	c #00C500",
",	c #00B200",
"'	c #00AF00",
")	c #008000",
"!	c #00B800",
"~	c #003D00",
"{	c #007800",
"]	c #00AE00",
"^	c #000B00",
"/	c #008300",
"(	c #00AC00",
"_	c #007100",
":	c #4A7CAF",
"<	c #4676A6",
"[	c #22384F",
"}	c #1E3246",
"|	c #4C7FB4",
"1	c #4879AB",
"2	c #243B54",
"3	c #20354C",
"4	c #4F84BA",
"5	c #4B7DB1",
"6	c #263F5A",
"7	c #223950",
"8	c #5187BF",
"9	c #4D81B7",
"0	c #4A7BAD",
"a	c #4675A4",
"b	c #426E9C",
"c	c #3E6993",
"d	c #3A638B",
"e	c #375C82",
"f	c #335579",
"g	c #304F70",
"h	c #2C4A67",
"i	c #29445F",
"j	c #243E56",
"    .......     ",
"    .+@#$%.     ",
"    .&*=-;.     ",
"    .>,'-;.     ",
"    .>@@-;.     ",
" ....>',-;....  ",
"  .)=!*,---~.   ",
"   .{,,,--~.    ",
"    .{]*-~.     ",
"     ^/(~.      ",
"      ._.       ",
".:<    .    [}. ",
".|1         23. ",
".45         67. ",
".890abcdefghij. ",
"............... "};
