/* XPM */
static const char * trans_withdrawal_xpm[] = {
"16 16 51 1",
" 	c None",
".	c #B9B9B9",
"+	c #A7A7A7",
"@	c #959595",
"#	c #FEFED3",
"$	c #949495",
"%	c #868686",
"&	c #868685",
"*	c #858685",
"=	c #858585",
"-	c #858584",
";	c #858485",
">	c #848484",
",	c #838483",
"'	c #FDFEBB",
")	c #FDFEBA",
"!	c #828382",
"~	c #757474",
"{	c #FDFEA2",
"]	c #FCFEA1",
"^	c #FDFEA1",
"/	c #707071",
"(	c #636363",
"_	c #FCFD89",
":	c #FCFD88",
"<	c #FCFE89",
"[	c #FDFD88",
"}	c #FDFE88",
"|	c #FDFE89",
"1	c #5E5E5E",
"2	c #515051",
"3	c #FBFF00",
"4	c #FCFF00",
"5	c #4C4C4C",
"6	c #3F3F3E",
"7	c #3A3A3B",
"8	c #2D2D2D",
"9	c #292929",
"0	c #1B1B1B",
"a	c #1B1A1B",
"b	c #1A1A1A",
"c	c #1B1A1A",
"d	c #1A1A19",
"e	c #191919",
"f	c #191918",
"g	c #181918",
"h	c #181818",
"i	c #171717",
"j	c #070606",
"k	c #060606",
"l	c #000000",
"                ",
"         .      ",
"         ++     ",
"         @#$    ",
"%%&*==-;>,')!   ",
"~{]{{{{^{{{{^/  ",
"(_:_<<[_}<<<<|1 ",
"2344444444444445",
"644444444444447 ",
"84444444444449  ",
"0abcdbefgh44i   ",
"         j4k    ",
"         ll     ",
"         l      ",
"                ",
"                "};
