/* XPM */
static const char * trans_withdrawal_xpm[] = {
"16 16 49 1",
" 	c None",
".	c #101010",
"+	c #751010",
"@	c #191010",
"#	c #861010",
"$	c #AC1010",
"%	c #461010",
"&	c #7C1010",
"*	c #AD1010",
"=	c #B51010",
"-	c #651010",
";	c #B11010",
">	c #831010",
",	c #B21010",
"'	c #B61010",
")	c #C21010",
"!	c #AF1010",
"~	c #591010",
"{	c #B01010",
"]	c #BE1010",
"^	c #000000",
"/	c #4A7CAF",
"(	c #4676A6",
"_	c #A81010",
":	c #721010",
"<	c #6D1010",
"[	c #22384F",
"}	c #1E3246",
"|	c #4C7FB4",
"1	c #4879AB",
"2	c #243B54",
"3	c #20354C",
"4	c #4F84BA",
"5	c #4B7DB1",
"6	c #263F5A",
"7	c #223950",
"8	c #5187BF",
"9	c #4D81B7",
"0	c #4A7BAD",
"a	c #4675A4",
"b	c #426E9C",
"c	c #3E6993",
"d	c #3A638B",
"e	c #375C82",
"f	c #335579",
"g	c #304F70",
"h	c #2C4A67",
"i	c #29445F",
"j	c #243E56",
"                ",
"       .        ",
"      .+.       ",
"     @#$%.      ",
"    .&*=-%.     ",
"   .&;;;--%.    ",
"  .>,'=;---%.   ",
" ....)!;-~....  ",
"    .){{-~.     ",
"    .);!-~.     ",
"    .]=,-~.     ",
"^/( .){_:<. [}^ ",
"^|1 ....... 23^ ",
"^45         67^ ",
"^890abcdefghij^ ",
"^^^^^^^^^^^^^^^ "};
