/* XPM */
static const char * view_xpm[] = {
"48 48 761 2",
"  	c None",
". 	c #9CA59C",
"+ 	c #888E83",
"@ 	c #474F3C",
"# 	c #2A3124",
"$ 	c #535B45",
"% 	c #282E22",
"& 	c #BEC2C2",
"* 	c #898E82",
"= 	c #606651",
"- 	c #4B5B3F",
"; 	c #35462A",
"> 	c #4C5D3E",
", 	c #6D735C",
"' 	c #A5AEAA",
") 	c #8E948A",
"! 	c #5A654B",
"~ 	c #4E5E43",
"{ 	c #53604A",
"] 	c #425636",
"^ 	c #394D2D",
"/ 	c #324128",
"( 	c #303E27",
"_ 	c #405134",
": 	c #868B7A",
"< 	c #969D96",
"[ 	c #505843",
"} 	c #2D3826",
"| 	c #262E20",
"1 	c #21261D",
"2 	c #1B1F1A",
"3 	c #191B18",
"4 	c #1B1D19",
"5 	c #21281E",
"6 	c #2E3628",
"7 	c #5A5E4C",
"8 	c #C2C1C2",
"9 	c #BCBABC",
"0 	c #484D3D",
"a 	c #22281F",
"b 	c #273021",
"c 	c #283022",
"d 	c #262F20",
"e 	c #1C201A",
"f 	c #303729",
"g 	c #C0C0C1",
"h 	c #E4CBD2",
"i 	c #E4CDD3",
"j 	c #E5CED5",
"k 	c #E3CDD4",
"l 	c #E3CDD2",
"m 	c #E5CDD2",
"n 	c #E3CCD1",
"o 	c #E5CDD3",
"p 	c #E2CAD2",
"q 	c #E3CCD2",
"r 	c #E4CAD0",
"s 	c #E4CCD1",
"t 	c #E1CBD0",
"u 	c #E3CBD1",
"v 	c #454D3A",
"w 	c #3E4C36",
"x 	c #61665B",
"y 	c #646860",
"z 	c #656861",
"A 	c #696A5F",
"B 	c #63675B",
"C 	c #5F6651",
"D 	c #404A37",
"E 	c #38432F",
"F 	c #ACADAA",
"G 	c #E1CAD1",
"H 	c #E2CBD1",
"I 	c #E2CBD0",
"J 	c #E2C9CF",
"K 	c #E1CCD1",
"L 	c #E4CFD3",
"M 	c #E5CED4",
"N 	c #E6D0D5",
"O 	c #E4CDD2",
"P 	c #E4CDD4",
"Q 	c #E4CFD5",
"R 	c #E3CED5",
"S 	c #E3CFD4",
"T 	c #E4CFD4",
"U 	c #E4D0D3",
"V 	c #E3CED3",
"W 	c #E3D0D3",
"X 	c #E2CDD2",
"Y 	c #E1CBD1",
"Z 	c #E3CDD3",
"` 	c #E2CAD1",
" .	c #E2CAD0",
"..	c #787D6F",
"+.	c #384230",
"@.	c #1B1E19",
"#.	c #384331",
"$.	c #71715F",
"%.	c #798169",
"&.	c #777A63",
"*.	c #8C9283",
"=.	c #7B7E66",
"-.	c #98A3A3",
";.	c #8E958B",
">.	c #AAACAA",
",.	c #E3CBD2",
"'.	c #E2CBD3",
").	c #E2CBD2",
"!.	c #E0CACF",
"~.	c #E2CCD1",
"{.	c #E2CCD3",
"].	c #A8ACAB",
"^.	c #2A3225",
"/.	c #242C20",
"(.	c #1F241C",
"_.	c #4B5742",
":.	c #2E3928",
"<.	c #414C39",
"[.	c #36412E",
"}.	c #323C2B",
"|.	c #80866D",
"1.	c #7F866D",
"2.	c #81876F",
"3.	c #99A5A7",
"4.	c #7E846A",
"5.	c #A3B1B6",
"6.	c #E4CED4",
"7.	c #E1CAD0",
"8.	c #E3CBD0",
"9.	c #E2CCD2",
"0.	c #E4CCD2",
"a.	c #525947",
"b.	c #31392B",
"c.	c #7C8270",
"d.	c #717160",
"e.	c #97A1A1",
"f.	c #7E806C",
"g.	c #44523A",
"h.	c #838773",
"i.	c #838971",
"j.	c #848B73",
"k.	c #757661",
"l.	c #97A19F",
"m.	c #AFB9BE",
"n.	c #E3CCD3",
"o.	c #E4CCD3",
"p.	c #E1CBD2",
"q.	c #E1CDD3",
"r.	c #6D725D",
"s.	c #5F634F",
"t.	c #5D604E",
"u.	c #545947",
"v.	c #686C57",
"w.	c #96A09E",
"x.	c #797965",
"y.	c #445737",
"z.	c #787963",
"A.	c #8D9384",
"B.	c #868C76",
"C.	c #757762",
"D.	c #6B6B5F",
"E.	c #8A917F",
"F.	c #C3C3C8",
"G.	c #E1CBCF",
"H.	c #E0CAD1",
"I.	c #E0CBD1",
"J.	c #E0CBD0",
"K.	c #E0CAD0",
"L.	c #E1CCD2",
"M.	c #E1CCD3",
"N.	c #939991",
"O.	c #686A5A",
"P.	c #6A6B5D",
"Q.	c #565F48",
"R.	c #6D705A",
"S.	c #797A65",
"T.	c #7D7D6A",
"U.	c #808270",
"V.	c #868878",
"W.	c #89907F",
"X.	c #8D9586",
"Y.	c #7D7E69",
"Z.	c #7B7C68",
"`.	c #939D96",
" +	c #DBCDD1",
".+	c #E0CBD2",
"++	c #E0CCD3",
"@+	c #BCC0C6",
"#+	c #828473",
"$+	c #8D9587",
"%+	c #909993",
"&+	c #909994",
"*+	c #E1CAD2",
"=+	c #E1CDD2",
"-+	c #DFCBD2",
";+	c #DFC9D0",
">+	c #E0CCD2",
",+	c #DFCAD1",
"'+	c #CDC8CD",
")+	c #95A09C",
"!+	c #919A92",
"~+	c #929A92",
"{+	c #8C9386",
"]+	c #868A7A",
"^+	c #828372",
"/+	c #818370",
"(+	c #81836E",
"_+	c #797A64",
":+	c #888C7C",
"<+	c #97A4A4",
"[+	c #BAC0C6",
"}+	c #DBCCD2",
"|+	c #DECAD0",
"1+	c #DFCCD2",
"2+	c #DDCACF",
"3+	c #DFCBD1",
"4+	c #D3C9CF",
"5+	c #C5C8CC",
"6+	c #C4C8CD",
"7+	c #AEBAC1",
"8+	c #949E9B",
"9+	c #888D7D",
"0+	c #868A78",
"a+	c #8D9585",
"b+	c #89907D",
"c+	c #939C95",
"d+	c #888D79",
"e+	c #818371",
"f+	c #8B9285",
"g+	c #98A4A4",
"h+	c #BBC1C7",
"i+	c #A0AEB4",
"j+	c #B8C1C7",
"k+	c #BCC5CB",
"l+	c #C1C8CE",
"m+	c #E0CDD2",
"n+	c #DECAD1",
"o+	c #E0CBD3",
"p+	c #DFCAD2",
"q+	c #E0CCD1",
"r+	c #DFCBD0",
"s+	c #B9C0C4",
"t+	c #A2B1B7",
"u+	c #BDC1C6",
"v+	c #DBCDD2",
"w+	c #CCC8D1",
"x+	c #8F968C",
"y+	c #767663",
"z+	c #7A7C65",
"A+	c #7A7D66",
"B+	c #7B8067",
"C+	c #6F6F5F",
"D+	c #767662",
"E+	c #787A64",
"F+	c #747461",
"G+	c #666861",
"H+	c #71705F",
"I+	c #D2D0D2",
"J+	c #A1B1B7",
"K+	c #D3CED1",
"L+	c #DFCDD3",
"M+	c #DACBD1",
"N+	c #B9C2C6",
"O+	c #C3C7CB",
"P+	c #E0CCD4",
"Q+	c #DFCCD4",
"R+	c #DECDD1",
"S+	c #DFCCD1",
"T+	c #DECBD1",
"U+	c #DECBD2",
"V+	c #DECBD0",
"W+	c #DECCD0",
"X+	c #DECCD1",
"Y+	c #DFCCD3",
"Z+	c #BDC4CA",
"`+	c #BABFC4",
" @	c #A5B5BA",
".@	c #B5C0C6",
"+@	c #C6CBD0",
"@@	c #C8CCD0",
"#@	c #C2C9CF",
"$@	c #98A3A2",
"%@	c #898D7C",
"&@	c #929B92",
"*@	c #747460",
"=@	c #6C6C5F",
"-@	c #757561",
";@	c #7E806B",
">@	c #848876",
",@	c #787964",
"'@	c #63675E",
")@	c #99A5A5",
"!@	c #DBCBD2",
"~@	c #A3B2B7",
"{@	c #D2CFD1",
"]@	c #D4D1D3",
"^@	c #D2CFD3",
"/@	c #B6C1C7",
"(@	c #AFBBC0",
"_@	c #DDCCD1",
":@	c #DDCCD2",
"<@	c #DECDD2",
"[@	c #DECED4",
"}@	c #DAC9D0",
"|@	c #DECCD2",
"1@	c #DDCBD1",
"2@	c #DDCDD2",
"3@	c #DDCBD2",
"4@	c #DDC9D1",
"5@	c #DCCBD2",
"6@	c #DCCBD0",
"7@	c #AFBBBF",
"8@	c #9DAAAD",
"9@	c #A0B1B7",
"0@	c #BCC1C7",
"a@	c #DCCCD1",
"b@	c #DDCDD1",
"c@	c #C2C7CC",
"d@	c #8A8F80",
"e@	c #6E6E5F",
"f@	c #686A5C",
"g@	c #64675F",
"h@	c #676960",
"i@	c #6A6B5F",
"j@	c #66685F",
"k@	c #61665C",
"l@	c #696A60",
"m@	c #898E80",
"n@	c #C5CBD0",
"o@	c #A3B3B8",
"p@	c #B5BFC4",
"q@	c #AEBBC0",
"r@	c #A9B9BE",
"s@	c #ABBABF",
"t@	c #AAB9BE",
"u@	c #DDCCD3",
"v@	c #DCCDD4",
"w@	c #DBCCD1",
"x@	c #D9CCCF",
"y@	c #DBCAD1",
"z@	c #DCCDD2",
"A@	c #DCCCD2",
"B@	c #DCCBD1",
"C@	c #DBCDD3",
"D@	c #DBCCD0",
"E@	c #DDCDD3",
"F@	c #B2BAC1",
"G@	c #B0BBBF",
"H@	c #9EADB0",
"I@	c #9DACB0",
"J@	c #A6B6BC",
"K@	c #A3B4BB",
"L@	c #A1B2B9",
"M@	c #7C7E68",
"N@	c #666960",
"O@	c #686A60",
"P@	c #5D6456",
"Q@	c #8E9689",
"R@	c #A5B4BA",
"S@	c #9DACB1",
"T@	c #A6B3B9",
"U@	c #9FAEB3",
"V@	c #B4C1C9",
"W@	c #AEBEC6",
"X@	c #ABBAC0",
"Y@	c #D8CCD2",
"Z@	c #D5CCD1",
"`@	c #D8CCD0",
" #	c #DACDD2",
".#	c #D9CAD2",
"+#	c #DBCED2",
"@#	c #DACED2",
"##	c #D9CDD2",
"$#	c #D9CBD1",
"%#	c #DACCD2",
"&#	c #D9CCD1",
"*#	c #D7CBCF",
"=#	c #D9CCD2",
"-#	c #D8CDD3",
";#	c #D8CED4",
">#	c #B3BDC2",
",#	c #9EAEB4",
"'#	c #A1B3BA",
")#	c #AEBCC0",
"!#	c #D4CED1",
"~#	c #BFC4C9",
"{#	c #A1B0B5",
"]#	c #7D7C6A",
"^#	c #686960",
"/#	c #5E6558",
"(#	c #3E4B35",
"_#	c #60665A",
":#	c #757461",
"<#	c #B9C2C8",
"[#	c #A2B1B5",
"}#	c #B3C2CB",
"|#	c #A0B2B8",
"1#	c #C6CCCF",
"2#	c #C8CBCE",
"3#	c #A5B5BC",
"4#	c #D5CBD0",
"5#	c #D8CCD1",
"6#	c #D6CDD2",
"7#	c #D7CDD2",
"8#	c #D5CBD2",
"9#	c #D6CED3",
"0#	c #D5CDD2",
"a#	c #D5CCD0",
"b#	c #D6CDD1",
"c#	c #D2CBD1",
"d#	c #D4CBD0",
"e#	c #D5CFD3",
"f#	c #B2BCC3",
"g#	c #AEBBC1",
"h#	c #A9B7BB",
"i#	c #A8B6BB",
"j#	c #A4B6BE",
"k#	c #858979",
"l#	c #727161",
"m#	c #616558",
"n#	c #4C5545",
"o#	c #3A4732",
"p#	c #2E3A27",
"q#	c #283122",
"r#	c #2B3425",
"s#	c #30382A",
"t#	c #333C2D",
"u#	c #374031",
"v#	c #3C4535",
"w#	c #404A39",
"x#	c #444F3D",
"y#	c #4B5544",
"z#	c #595F4B",
"A#	c #676A56",
"B#	c #787866",
"C#	c #919892",
"D#	c #A8B7BE",
"E#	c #B4C2C9",
"F#	c #A7B8C0",
"G#	c #D3CCD1",
"H#	c #D4CDD4",
"I#	c #D2CBD2",
"J#	c #D2CCD0",
"K#	c #D5CED3",
"L#	c #D1CED1",
"M#	c #D1CCCF",
"N#	c #D5CDD1",
"O#	c #D4CCD4",
"P#	c #D0CAD2",
"Q#	c #D0CCD2",
"R#	c #CFCBCF",
"S#	c #D1CDCF",
"T#	c #9FB0B5",
"U#	c #7A7B69",
"V#	c #585D4B",
"W#	c #505A45",
"X#	c #43513A",
"Y#	c #23291F",
"Z#	c #1A1C19",
"`#	c #373F30",
" $	c #646955",
".$	c #838679",
"+$	c #A2B3B9",
"@$	c #CDCBCF",
"#$	c #B1BDC2",
"$$	c #59604B",
"%$	c #273022",
"&$	c #20251C",
"*$	c #1D221B",
"=$	c #1F251C",
"-$	c #1D211B",
";$	c #334129",
">$	c #414F37",
",$	c #3F4E34",
"'$	c #2A3523",
")$	c #1C1F1A",
"!$	c #394532",
"~$	c #323D2A",
"{$	c #2A3324",
"]$	c #333C2C",
"^$	c #58614E",
"/$	c #97A29F",
"($	c #5F684E",
"_$	c #485A3A",
":$	c #313F28",
"<$	c #20261D",
"[$	c #242B20",
"}$	c #4E5A46",
"|$	c #34442A",
"1$	c #2F3C26",
"2$	c #2B3724",
"3$	c #34412C",
"4$	c #505C47",
"5$	c #66685E",
"6$	c #727260",
"7$	c #5C6453",
"8$	c #4D5944",
"9$	c #6F705E",
"0$	c #686B59",
"a$	c #415733",
"b$	c #46523C",
"c$	c #46503E",
"d$	c #46523B",
"e$	c #626851",
"f$	c #A5ADAD",
"g$	c #8F9283",
"h$	c #686D58",
"i$	c #5C654D",
"j$	c #646954",
"k$	c #737360",
"l$	c #62675D",
"m$	c #747661",
"n$	c #8C9181",
"o$	c #98A3A5",
"p$	c #949E9A",
"q$	c #81866F",
"r$	c #767862",
"s$	c #898E7D",
"t$	c #757B66",
"u$	c #838B7D",
"v$	c #9CA8A8",
"w$	c #B0BFC6",
"x$	c #C1C7CD",
"y$	c #AFBEC5",
"z$	c #727360",
"A$	c #5F6657",
"B$	c #5E6553",
"C$	c #6D6E5C",
"D$	c #939C93",
"E$	c #949E98",
"F$	c #9EB4BE",
"G$	c #ADC0C9",
"H$	c #C5CBD1",
"I$	c #B7C4C9",
"J$	c #949D97",
"K$	c #8A917E",
"L$	c #949E99",
"M$	c #9EB1BA",
"N$	c #C4CCD0",
"O$	c #C5CDD1",
"P$	c #C3CBCF",
"Q$	c #C3CBD1",
"R$	c #C5CDD3",
"S$	c #C3CAD0",
"T$	c #C5CCD0",
"U$	c #BFC8CC",
"V$	c #737260",
"W$	c #70705F",
"X$	c #828570",
"Y$	c #A0AFB5",
"Z$	c #C4CCD2",
"`$	c #C4CDD1",
" %	c #C4CBCF",
".%	c #C4CCCF",
"+%	c #C4CCD1",
"@%	c #C2CACF",
"#%	c #929C97",
"$%	c #85887A",
"%%	c #818271",
"&%	c #848776",
"*%	c #8E9487",
"=%	c #97A2A1",
"-%	c #A0AFB4",
";%	c #C3CCD0",
">%	c #C5CCD2",
",%	c #C4CBD0",
"'%	c #C4CBD1",
")%	c #C3CDD0",
"!%	c #C5CCD1",
"~%	c #8F9890",
"{%	c #86897A",
"]%	c #80826D",
"^%	c #91988F",
"/%	c #A0ADB3",
"(%	c #C5CDD0",
"_%	c #C4CDD0",
":%	c #9AA6A8",
"<%	c #9FAFB3",
"[%	c #C3CCD1",
"}%	c #C3CBD0",
"|%	c #9AA7AA",
"1%	c #848976",
"2%	c #7F806C",
"3%	c #8C9184",
"4%	c #9EAEB3",
"5%	c #C4CDD2",
"6%	c #C3CCCF",
"7%	c #C4CBD2",
"8%	c #99A7AA",
"9%	c #9FADB2",
"0%	c #C4CACF",
"a%	c #A0AEB2",
"b%	c #858877",
"c%	c #818472",
"d%	c #929B95",
"e%	c #9FACB1",
"f%	c #C5CDD2",
"g%	c #A6B5BA",
"h%	c #A2AFB5",
"i%	c #C0C7CC",
"j%	c #ADBBC2",
"k%	c #8F978E",
"l%	c #929991",
"m%	c #949E9C",
"n%	c #BBC5C9",
"o%	c #B3C2C8",
"p%	c #99A5A8",
"q%	c #A3B4BA",
"r%	c #B9C0C3",
"s%	c #B8C7CC",
"t%	c #99A5A6",
"u%	c #7C7D69",
"v%	c #787865",
"w%	c #838673",
"x%	c #888E7D",
"y%	c #878C7E",
"z%	c #85897A",
"A%	c #878C7D",
"B%	c #8E9588",
"C%	c #A2B5BD",
"D%	c #B2BCC0",
"E%	c #C7D4D9",
"F%	c #AEC1C9",
"G%	c #A7BAC2",
"H%	c #A4B6BF",
"I%	c #B0C2CB",
"J%	c #B1C3CB",
"K%	c #AFC1CA",
"L%	c #AABFC9",
"M%	c #AFBAC0",
"N%	c #CED8DD",
"O%	c #ADBDC4",
"P%	c #B6C5CC",
"Q%	c #9DA8A6",
"R%	c #838A75",
"S%	c #A8B8BE",
"T%	c #AFC1C9",
"U%	c #B3C4CB",
"V%	c #B1C4CC",
"W%	c #ADC0CA",
"X%	c #AFBBBE",
"Y%	c #B3C4C9",
"Z%	c #99A6A9",
"`%	c #B0C1C8",
" &	c #ACBFC6",
".&	c #617246",
"+&	c #546C3C",
"@&	c #99A199",
"#&	c #97A09C",
"$&	c #858570",
"%&	c #ADBFC5",
"&&	c #B0C3CB",
"*&	c #AFBABF",
"=&	c #C9D3DA",
"-&	c #9FB2BB",
";&	c #A2B3BA",
">&	c #A7BBC3",
",&	c #909484",
"'&	c #74754B",
")&	c #847A58",
"!&	c #6E7151",
"~&	c #5F6D46",
"{&	c #A9BBC2",
"]&	c #A6B8BF",
"^&	c #A7B7BC",
"/&	c #868A76",
"(&	c #98A5A7",
"_&	c #9DAFB5",
":&	c #9FB1B8",
"<&	c #8A8D7B",
"[&	c #868466",
"}&	c #576C3D",
"|&	c #717552",
"1&	c #476B30",
"2&	c #7A7453",
"3&	c #8A8A70",
"4&	c #576D3F",
"5&	c #8D8E76",
"6&	c #ADB1A2",
"7&	c #A2AEAE",
"8&	c #8B9283",
"9&	c #697254",
"0&	c #496536",
"a&	c #44662F",
"b&	c #466630",
"c&	c #4E663A",
"d&	c #526C3B",
"e&	c #4C6C36",
"f&	c #486C30",
"g&	c #466C2E",
"h&	c #427027",
"i&	c #417424",
"j&	c #417523",
"k&	c #556C3B",
"l&	c #58703D",
"m&	c #8C8367",
"n&	c #94937B",
"o&	c #A2A59C",
"p&	c #909794",
"q&	c #A5B2B7",
"r&	c #97A097",
"s&	c #73755A",
"t&	c #3E6A25",
"u&	c #407423",
"v&	c #407323",
"w&	c #3E6C23",
"x&	c #46782A",
"y&	c #63874E",
"z&	c #819874",
"A&	c #98A491",
"B&	c #A6ACA5",
"C&	c #AAAEAF",
"D&	c #A3AAAB",
"E&	c #8F9896",
"F&	c #838D8B",
"G&	c #5B5B59",
"H&	c #8A8F8F",
"I&	c #ACBDC6",
"J&	c #939989",
"K&	c #848368",
"L&	c #6F725A",
"M&	c #3E6428",
"N&	c #4B6A35",
"O&	c #7E7F62",
"P&	c #7B755A",
"Q&	c #456530",
"R&	c #537A3D",
"S&	c #849977",
"T&	c #ADB0AC",
"U&	c #ADB0B0",
"V&	c #A3AAAC",
"W&	c #9CA7A8",
"X&	c #97A2A4",
"Y&	c #8A928F",
"Z&	c #747B75",
"`&	c #839191",
" *	c #7D847F",
".*	c #6A6C67",
"+*	c #7C817E",
"@*	c #ADC1C9",
"#*	c #9BA9AC",
"$*	c #949580",
"%*	c #93937C",
"&*	c #7D7F60",
"**	c #8E8A69",
"=*	c #8B8869",
"-*	c #80836F",
";*	c #9DA099",
">*	c #B1B2B2",
",*	c #A8ADAE",
"'*	c #9DA7A8",
")*	c #929FA1",
"!*	c #8B989A",
"~*	c #869293",
"{*	c #828F8E",
"]*	c #849293",
"^*	c #818C8B",
"/*	c #7B8079",
"(*	c #7A7D75",
"_*	c #797C74",
":*	c #84898A",
"                                                        . +                                     ",
"                                                        @ #                                     ",
"                                                        $ % &                                   ",
"                                                    * = - ; > , '                               ",
"                                                ) ! ~ { ] ^ / ( _ ! :                           ",
"                                            < [ } | 1 2 3 3 3 3 3 4 5 6 7 8                     ",
"                                        9 0 a 3 3 3 3 3 3 5 b b c b d e 3 f g h i j k l m n o p ",
"                            q r i s t u v 3 3 3 3 3 3 3 3 w x y z A B C D E F G H I H H I u J K ",
"L M o N O P Q R S T U S V W X Y Z `  .H ..+.@.3 3 3 3 3 3 #.$.%.&.*.=.-.;.>.s O O i l q h o o Z ",
",. .H O u i i q H '.,.q G ).G G !.` H ~.{.].^./.(._.:.<.[.}.|.1.2.3.4.3.5.i q Z 6.6.V P i Z i q ",
"t 7.t H 8.u q n u ` H H 7. .7.7.t 9.q 0.u K v a.b.c.d.e.f.g.h.i.1.j.k.l.m.Z n.o.o.O i o.0.O o q ",
"H ).G ` ` ).,.,.p.G ).9.q.Z 9.9.K X q t p.).r.s.t.u.v.w.x.y.z.A.B.C.D.E.F.9.H H 9.p.).~.H I G.K ",
").t p.H.G H.H.I.J.t !.Y K.Y Y Y K L.p.M.M.p.N.O.P.Q.R.S.T.U.V.W.X.Y.Z.`. +q q X l ~.Y t t ).Y I.",
"p G L.L..+.+++++M.H.H.I.Y Y Y Y Y Y Y H u u @+#+e.3.3.3.3.3.3.3.-.$+%+&+K *+*+p.p..+L.=+t L.K -+",
";+p.H.H.H.Y K K I.I.I.I.I.I.L.L.L.>+.+.+,+,+'+3.3.)+!+~+{+]+^+/+(+_+:+<+[+}+q 9.Z L.>+|+Y =+1+2+",
"I.,+H.H.H.p.p..+L.L.I.L.>+3+>+>+.+.+.+4+5+6+7+8+9+0+$+a+b+c+d+~+e+D.f+g+h+i+j+k+l+,+M.I.1+>+m+n+",
"o+p+o+.+M.q+1+m+>+>+M.q.|+r+r+,+.+s+t+u+v+q+w+x+y+z+A+B+C+D+E+z+F+G+H+)+I+J+K+L+M+N+O+1+P+Q+-+R+",
"-+S+T+U+T+S+S+S+V+S+W+X+U+Y+Y+U+Z+`+ @.@+@@@#@$@%@&@0+*@=@-@;@>@,@'@D+)@!@~@{@]@^@/@(@_@:@<@[@}@",
"|@U+1@2@<@X+|@1+3@3@3@1@4@5@5@6@7@8@9@0@a@b@c@d@e@f@g@G+h@i@g@j@i@k@l@m@n@o@p@q@r@s@t@u@v@w@M+x@",
"y@<@z@A@2@y@B@M+u@C@!@A@A@D@ +E@F@G@H@I@J@K@L@&@M@l@z h@N@l@z z O@P@H+Q@R@S@T@U@V@W@X@Y@Z@`@    ",
" #.#C@+#@###$#%#&#`@C@$#*#=#-#;#>#,#'#)#!#~#{#]#^#z y /#x z z z z (#_#:#<#[#}#|#1#2#3#          ",
"4#5#6#7#8#9#-#7#0#a#Z@b#c#d#Z@e#f#g#h#i#j#k#l#m#n#o#p#q#r#s#t#u#v#w#x#y#z#A#B#C#D#E#F#          ",
"G#G#H#I#J#K#L#M#N#O#P#Q#Q#R#S#  .@T#U#V#W#X#Y#Z#3 3 3 3 3 3 3 3 3 3 3 3 3 3 (.`# $.$+$          ",
"@$                              #$$$%$&$*$4 3 @.3 =$3 3 -$;$>$,$'$)$!$~$@.(.{$]$#.^$/$          ",
"                                  ($_$:$d <$[$}$|$1$2$3$4$5$6$H+7$8$9$0$a$b$c$d$e$f$            ",
"                                      g$h$i$j$k$l$'@z z m$n$o$p$q$r$d+s$t$u$v$w$                ",
"                                          x$y$X.z$A$B$C$D$3.3.3.3.E$-.o$F$G$                    ",
"                                          H$I$3.J$X.K$L$3.3.3.3.3.3.3.3.M$N$O$P$P$P$P$P$P$Q$R$  ",
"                        H$O$O$P$O$N$N$N$S$T$U$3.)@V$W$X$3.3.3.3.3.3.3.3.Y$N$N$N$N$N$N$N$Z$Z$Z$`$",
"                    H$Q$Z$N$T$Q$ %.%+%N$Z$T$@%3.#%$%%%&%*%=%)+=%-.l.3.3.-%;%;%;%T$T$>%,%,%,%>%;%",
"                  Q$H$N$T$O$'%+%Z$T$)%'%.%S$!%~%{%Z.]%^%3.3.3.3.3.3.3.3./%N$N$Z$Z$,%,%,%,%,%>%;%",
"                    P$Z$S$O$.%N$T$(%`$+%!%T$_%:%3.3.3.3.3.3.3.3.3.3.3.3.<%.%+%+%!%,%,%N$N$N$+%[%",
"                      H$N$S$O$.%N$}%'%+%!%,%'%|%3.1%2%3%3.3.3.3.3.3.3.3.4%5%}%n@n@6%[%[%[%!%!%_%",
"                          H$N$S$O$+%}%)%.%T$7%8%3.3.3.3.3.3.3.3.3.3.3.3.9%[%!%.%+%+%,%N$+%+%+%0%",
"                                Q$N$Q$.%Z$}%.%a%3.b%c%d%3.3.3.3.3.3.3.3.e%[%.%+%,%+%}%n@f%}%}%N$",
"                                    P$N$S$O$+%g%3.3.3.3.3.3.3.3.3.3.3.3.h%i%[%.%+%N$}%n@}%}%(%}%",
"                                            O$j%3.k%l%m%3.3.3.3.3.3.3.3.~@n%_%n@[%.%+%+%}%f%}%+%",
"                                              o%3.3.3.3.p%3.3.3.3.3.3.3.q%r%!%+%+%_%n@[%+%,%+%+%",
"                                              s%t%u%S.v%w%x%y%z%k#A%B%-.C%D%;%Z$}%[%+%+%_%n@[%}%",
"                                              E%F%G%C%H%I%J%J%K%J%J%J%J%L%M%;%T$'%!%,%_%_%0%,%.%",
"                                              N%O%P%J%J%J%Q%R%S%J%T%U%V%W%X%'%N$}%.%!%,%6%[%Z$,%",
"                                              Y%Z%`%J%J%J% &.&+&@&#&$&%&&&*&  P$N$Q$.%;% %+%;%}%",
"                                            =&-&3.;&J%J%J%>&,&'&)&!&~&{&]&^&          N$S$ %+%N$",
"                                            q%)+/&(&_&:&_&<&[&}&|&1&2&3&4&5&6&              H$P$",
"                                        7&8&9&0&a&b&c&d&e&f&g&h&i&j&h&k&l&m&n&o&p&              ",
"                                      q&r&s&t&u&j&j&v&w&j&j&j&x&y&z&A&B&C&D&E&F&G&H&            ",
"                                        I&J&K&L&M&N&O&P&Q&R&S&T&U&V&W&X&Y&Z&`& *.*+*            ",
"                                      @*#*:%$*%*&***=*-*;*>*,*'*)*!*~*{*]*^*/*(*_*:*            "};
